<svg width="400" height="400" xmlns="http://www.w3.org/2000/svg" xmlns:xlink="http://www.w3.org/1999/xlink">
 <!-- Created with SVG-edit - http://svg-edit.googlecode.com/ -->
 <defs>
  <svg viewBox="0 0 765 990" height="990" width="765" id="svg_1">
   <metadata id="metadata8">image/svg+xml</metadata>
   <defs>
    <clipPath id="clipPath18" clipPathUnits="userSpaceOnUse">
     <path id="path20" d="m0,0l612,0l0,792l-612,0l0,-792z"/>
    </clipPath>
    <clipPath id="clipPath24" clipPathUnits="userSpaceOnUse">
     <path id="path26" d="m251,415l144,0l0,146l-144,0l0,-146z"/>
    </clipPath>
    <clipPath id="clipPath28" clipPathUnits="userSpaceOnUse">
     <path id="path30" d="m251.58099,415.94299l142.784,0l0,144.578l-142.784,0l0,-144.578z"/>
    </clipPath>
    <clipPath id="clipPath376" clipPathUnits="userSpaceOnUse">
     <path id="path378" d="m0,0l612,0l0,792l-612,0l0,-792z"/>
    </clipPath>
    <clipPath id="clipPath382" clipPathUnits="userSpaceOnUse">
     <path id="path384" d="m247,404l153,0l0,172l-153,0l0,-172z"/>
    </clipPath>
    <clipPath id="clipPath386" clipPathUnits="userSpaceOnUse">
     <path id="path388" d="m247.37801,404.39499l152.18401,0l0,170.73398l-152.18401,0l0,-170.73398z"/>
    </clipPath>
   </defs>
   <g id="g10">
    <g id="g12"/>
    <g id="g14">
     <g clip-path="url(#clipPath18)" id="g16">
      <g id="g22"/>
      <g id="g32">
       <g id="g34" clip-path="url(#clipPath24)">
        <g id="g36"/>
        <g id="g38">
         <g id="g40" clip-path="url(#clipPath28)">
          <path id="path42" d="m446.03387,344.89563c-0.56876,-2.5025 1.66125,-4.51004 1.66125,-4.51004c0,0 2.37872,-1.31369 2.85001,1.06506c0,0 1.785,7.70874 -2.35376,7.36121c-1.90875,-0.17371 -2.1575,-3.91623 -2.1575,-3.91623" fill-rule="nonzero" fill="#373535"/>
          <path id="path44" d="m443.70486,351.41409c-3.12247,-3.09872 -2.15625,-7.83249 -2.15625,-7.83249c0.2225,-5.57623 4.38626,-8.77249 4.38626,-8.77249c0,0 1.66125,-0.71875 2.13126,-0.47128c0,0 0.17374,0.04877 0.44751,0.1488l0,0.02502c0.02371,0.02493 0.02371,0.04874 0.02371,0.04874l0.12503,0c1.26373,0.52124 4.16373,2.08243 4.93124,5.45248c0.02499,0.07501 0.02499,0.15002 0.04999,0.24872c0.12375,0.59503 0.17377,1.26373 0.12375,2.00754c0,0 0.27252,2.40372 -0.02499,5.05624c-0.29752,2.70123 -1.13998,5.67499 -3.41998,6.69122c-2.85001,1.28876 -4.63501,-1.16501 -4.63501,-1.16501c-0.79251,-0.39624 -1.46249,-0.89255 -1.98251,-1.4375m0.44498,-7.70871c0,0 -0.84119,5.23001 3.79376,6.89124c1.09003,0.37125 2.25378,-0.71875 2.25378,-0.71875c3.79373,-2.97372 1.18997,-9.14499 1.18997,-9.14499c-0.71872,-2.85126 -4.03873,-2.00876 -4.03873,-2.00876c0,0 -3.19879,2.37994 -3.19879,4.98126" fill-rule="nonzero" fill="#373535"/>
          <path id="path46" d="m415.07938,349.03503c-4.51126,0.39627 -4.60999,-4.60999 -4.60999,-4.60999c0,-4.28751 4.38626,-4.16376 4.38626,-4.16376c0,0 3.32248,-0.12375 4.73373,3.32123c0,0 1.06625,4.98126 -4.51001,5.45251" fill-rule="nonzero" fill="#373535"/>
          <path id="path48" d="m404.52026,346.68024c-1.28751,-5.82376 3.19751,-10.5575 3.19751,-10.5575c0,0 3.0975,-3.09875 6.29623,-2.85126c0,0 5.82376,0.47125 8.17874,3.19748c0,0 4.75751,4.26376 3.5675,9.96378c-1.31372,6.29498 -5.82373,8.07996 -5.82373,8.07996c-2.00757,1.75879 -7.93124,0.81754 -7.93124,0.81754c-7.01376,-2.255 -7.48502,-8.64999 -7.48502,-8.64999m4.28876,-2.15625c0,0 -0.37253,7.3613 6.86499,6.41998c9.56622,-1.26501 4.26251,-10.6825 4.26251,-10.6825c-3.42004,-3.66876 -6.64133,-2.38 -6.64133,-2.38c0,0 -4.73502,1.66122 -4.48624,6.64252" fill-rule="nonzero" fill="#373535"/>
          <path id="path50" d="m332.621,364.15399c0,0 -9.04599,37.69702 18.11801,64.86102l0.29599,-5.42902c2.703,-22.32999 14.47501,-34.39999 14.47501,-34.39999c-1.215,-11.15201 -0.297,-23.81799 -0.297,-23.81799c2.70099,-27.75803 20.79398,-56.707 20.79398,-56.707c0,0 -44.93399,8.15399 -53.38599,55.49298m31.07901,105.853c-3.91501,-1.80798 -8.45001,-16.58099 -8.45001,-16.58099c-3.91599,-2.10599 -7.237,-4.832 -7.237,-4.832c-30.16299,-22.90201 -33.48401,-63.02701 -33.48401,-63.02701c-1.19,-39.80298 18.09201,-62.10999 18.09201,-62.10999c27.759,-35.29199 70.289,-34.10199 70.289,-34.10199c0,0 34.375,0.32098 63.02701,25.353c0,0 26.841,22.90198 26.841,57.897c0,0 4.83398,49.767 -35.888,78.41699c0,0 -16.87701,16.284 -49.76703,16.879c0,0 -15.689,1.21399 -26.24698,-2.99899l-1.80801,0.89301c-12.04498,5.12997 -15.36798,4.21198 -15.36798,4.21198m-12.06802,-28.327c-18.38998,-14.17798 -24.737,-38.01999 -24.737,-38.01999c-12.961,-33.75601 4.53702,-62.73001 4.53702,-62.73001c18.09198,-36.483 57.30099,-41.91 57.30099,-41.91c0,0 7.237,-0.91599 8.452,-3.32098c0,0 1.80899,-2.702 -8.155,-1.51199c0,0 -32.86301,5.72498 -53.68201,31.37598c0,0 -23.819,28.354 -15.392,69.67102c0,0 6.048,26.841 22.92502,44.31299c0,0 5.72699,6.64301 10.26199,8.452l-1.51199,-6.319l0.00098,0l0,0zm6.96301,-28.478c0,0 1.09,1.90799 3.271,-5.17999c0,0 5.13,-6.841 5.72699,-8.17801c1.09003,-2.45398 -1.09198,-4.63599 -1.09198,-4.63599c0,0 -8.72299,13.63199 -7.90601,17.99399m-1.09,32.46701c0,0 2.45401,-3.272 2.72501,-4.634c0.27399,-1.36301 -3.543,-3.271 -3.543,-3.271l0.81799,7.905zm-0.24802,-13.92902c0.76801,-2.379 3.19702,-11.32599 3.19702,-11.32599c-0.19901,-1.63501 -2.80099,-1.685 -2.80099,-1.685c0,0 -3.12302,8.72299 -2.67603,12.34201c0,0 1.33801,3.64398 2.28,0.66898m2.42801,19.38202c0,0 0.819,5.72498 2.45401,5.99799c0,0 -1.909,-3.81799 0.27399,-5.453c2.17999,-1.63599 2.72601,-10.08701 2.72601,-10.08701l-1.909,-0.54498c0,0 -0.54501,8.45099 -3.54501,10.08701m9.543,-8.452c0,0 -1.09,11.45099 -4.63501,16.90399l-1.90799,0.81699c0,0 0.81799,3.02402 1.90799,4.09c0,0 4.90701,-4.90698 4.63501,-7.90598c-0.27301,-2.99902 3.543,-11.996 3.543,-11.996l-3.543,-1.909zm-6.86499,-7.733c0,0 5.254,-7.112 5.37698,-9.56601c0.12402,-2.45401 -2.82498,-3.66699 -2.82498,-3.66699c0,0 -2.923,9.392 -3.767,9.91199c-0.84302,0.496 -0.44702,3.793 1.215,3.32101m7.13699,-31.27701c0,0 -6.54199,9.26999 -5.72501,13.086c0,0 5.453,-4.90701 6.27002,-7.90601l-0.54501,-5.17999zm-1.09,35.194c0,0 4.08899,-1.36401 5.17999,-3.81702c0,0 0.27301,-5.17999 1.36301,-6.271l-3.54401,-1.90698c0,0 -1.909,7.633 -3.54498,8.45099c0,0 -0.54501,2.45401 0.54599,3.54401m2.82498,-89.17401c0,0 -9.04599,23.52002 3.91602,63.646c0,0 10.26001,30.75803 17.20099,40.10001l2.65201,-2.849c-12.14499,-13.82999 -19.90201,-48.578 -19.90201,-48.578c-9.121,-32.04498 3.073,-64.38901 3.073,-64.38901c8.45203,-21.41397 24.73502,-39.80399 24.73502,-39.80399c2.45401,-4.73401 -1.90799,-1.909 -1.90799,-1.909c0,0 -20.72101,19.40698 -29.76703,53.78299m1.53601,67.909l-1.08899,-4.659c0,0 -3.272,5.17999 -2.72702,7.112c0,0 2.72702,-0.81699 3.81601,-2.453m0.547,3.543c0,0 -0.547,1.63702 0.272,2.728l2.181,0.81702l-0.54599,-1.90799c-0.54501,-1.90903 -1.90701,-1.63702 -1.90701,-1.63702m3.271,25.90002c0,0 -6.271,14.32498 -3.81799,13.08698c1.63699,-0.81799 8.72501,-10.08798 8.72501,-10.08798l-4.90701,-2.99899zm-1.63599,-5.45203c0,0 0.272,1.09003 2.181,1.36401c0,0 3.81699,-4.09 3.54401,-5.99899l-2.72702,-4.90601c0,0 -0.54498,8.45099 -2.99799,9.54099m27.13998,-134.70297c0,0 -23.27399,22.25699 -25.65298,68.133c0,0 9.04599,-4.561 11.078,-16.01102c0,0 -3.32001,-14.004 3.09799,-26.81799c0,0 4.04001,-6.07101 5.05701,-8.104c0,0 8.87299,-6.46799 15.242,-7.435l-0.05002,-0.32199c-1.01498,-4.04001 -8.772,-9.44299 -8.772,-9.44299m-22.00998,90.513c0,0 0.397,1.53598 1.41299,2.10599c1.21399,0.694 3.668,-3.69202 3.668,-3.69202c1.51199,-1.04199 1.685,-3.59399 1.685,-3.59399c-1.48599,1.14001 -5.353,0.44601 -5.353,0.44601c0,0 -1.76001,2.55301 -1.41299,4.73401m0.86798,-16.08502c0,0 2.453,-1.63599 0.54501,-3c0,0 -4.362,2.45401 -4.09,4.90701c0,0 1.63699,-0.81702 3.54498,-1.90701m-1.36298,78.26901c0,0 8.72299,-1.909 11.202,-2.99899c0.89301,-0.39603 -3.79202,-5.155 -4.70901,-6.37003c0.04901,-0.12399 0.07501,-0.17398 0.07501,-0.17398c-0.34799,-0.22202 -0.34799,-0.14902 -0.07501,0.17398c-0.62,1.24002 -4.48599,8.87201 -6.49298,9.36902m0,-72.54401c0,0 1.63498,1.362 3.81598,1.09c2.20599,-0.27301 1.091,-1.36301 1.091,-1.36301l3.841,-5.452c0,0 -1.63599,-1.36398 -2.75,0.81702c-1.091,2.18198 -5.99799,4.90799 -5.99799,4.90799m4.60999,26.91501c0,0 3.42001,-4.11401 4.48599,-5.32901c0,0 -2.45499,-0.61899 -2.97498,-0.44598c0,0 -0.966,-1.93301 -1.85901,-1.58502c0,0 -0.52002,5.625 0.34799,7.36002m0.297,32.54199l-2.181,-4.362c0,0 -1.36301,1.63599 -1.091,2.99899l3.272,1.36301zm1.561,-74.155c0,0 -0.34698,1.314 1.31299,1.13998c0,0 1.56201,0.42102 2.10703,-0.79199c0,0 0.59399,-0.694 -1.41202,-1.23999c0,0 -2.108,-0.51999 -2.008,0.892m2.82501,42.233c-5.18002,7.11398 -0.81702,7.931 -0.81702,7.931l0.54599,-0.81702l5.996,-8.74899c0.27301,-5.72598 -5.72498,1.63501 -5.72498,1.63501m1.09,-17.99301c-4.931,5.17902 -2.18002,6.543 -2.18002,6.543c3.54401,1.63602 6.815,-5.17999 6.815,-5.17999c4.09003,-5.17999 0.54703,-3.81799 0.54703,-3.81799c-3,-1.90701 -5.18201,2.45499 -5.18201,2.45499m-4.18701,65.504c0,0 2.23001,1.11502 5.03101,1.11502c0,0 1.53601,0.39798 2.67599,0.76898c0.37302,0.37201 0.694,0.62 0.96701,0.62c0.76801,0 0.04999,-0.29797 -0.96701,-0.62c-1.215,-1.21399 -2.67599,-3.841 -2.67599,-3.841l-5.03101,1.957zm3.147,-73.88199c0,0 2.38,1.04099 4.21301,0.521c0,0 3.51999,-5.08099 4.215,-5.60098c0,0 2.20499,-2.207 -0.17401,-2.35501l0,0.14801c0,0 -4.11499,1.314 -5.70099,4.21399c0,0 -2.008,2.72598 -2.55301,3.073m2.10699,-12.987c0,0 -1.73499,-0.073 -0.694,2.10699c1.04102,2.20599 2.10699,0.44601 2.10699,0.44601c1.21301,-1.586 -1.41299,-2.55301 -1.41299,-2.55301m-0.793,54.427c2.03101,0 5.00601,-5.42801 5.00601,-5.42801c0.27298,-1.93201 5.94901,-6.22101 5.94901,-6.22101c-0.17401,-0.51999 -2.80103,-2.28 -2.80103,-2.28c-1.56097,0.96701 -4.461,6.74103 -4.461,6.74103c-1.13998,2.45398 -4.11499,5.17999 -4.11499,5.17999l-0.02399,0c-0.39801,0.595 -1.14001,2.008 0.44598,2.008m1.11499,-75.59302c0,0 0.84402,11.20401 -2.22998,13.16101c0,0 6.16998,3.073 18.76099,1.95801c0,0 2.23001,-0.05002 5.254,0.297c5.45401,0.62 13.45901,2.504 15.44101,8.07999c0,0 10.92999,13.73001 -0.54599,27.164c0,0 -4.21201,10.36002 -16.53,18.19101l-16.77902,17.077l3.64301,5.60101l0.54602,-1.41299c0,0 6.71597,0 10.35999,-3.073c0,0 1.41299,3.073 0.841,3.91599c-4.31201,6.49399 28.82501,-23.793 28.82501,-23.793c12.31799,-8.94699 11.47498,-33.31 11.47498,-33.31c-1.11499,-6.716 -1.685,-22.65201 -1.685,-22.65201c-8.37698,2.23001 -11.47598,-7.28799 -11.47598,-7.28799c-0.54501,2.23199 -2.80002,2.802 -2.80002,2.802c-1.11499,-0.27402 -2.22998,-2.52899 -2.22998,-2.52899c-0.84402,6.17099 -10.06403,9.78998 -10.06403,9.78998c-3.29498,1.06601 -6.31799,1.289 -8.97098,1.01602c-8.64902,-0.84201 -13.70502,-6.89001 -13.70502,-6.89001c-8.40198,-4.461 -4.759,-22.38 -4.759,-22.38c2.23001,-9.78998 11.203,-15.11899 11.203,-15.11899c17.49701,-5.651 33.681,-1.46201 34.896,-1.14001c-8.72498,-4.98099 -30.43597,-2.20599 -30.43597,-2.20599c-10.33401,0.54501 -15.66302,12.02002 -15.66302,12.02002c0,0 -3.64297,5.056 -3.371,20.71997m8.45102,71.23102c0.17398,0.694 -7.013,7.608 -7.013,7.608c0,0 -1.04199,1.487 -0.44699,2.20599c0,0 1.06497,0.76901 2.99899,-0.966l1.215,-2.03299c7.88,-8.05499 9.19501,-11.02802 9.19501,-11.02802c0.17398,-3.07401 -0.76901,-1.85898 -0.76901,-1.85898c0,0 -5.35199,5.35199 -5.17999,6.07199m-5.17999,-52.246c0,0 0.27399,2.97501 2.379,2.72601c2.35498,-0.29602 2.35498,-2.552 2.35498,-2.552l-4.73398,-0.17401zm-0.47,87.51401c0,0 5.478,-8.27802 7.38498,-7.931c0,0 2.974,0.37198 -0.69498,4.065c0,0 -2.89801,4.53598 -1.63501,7.31097l1.63501,0.595c0,0 -0.39502,-4.36099 1.58798,-6.22098c0,0 3.66901,-2.15701 2.80002,-5.60202c-0.24802,-1.01599 1.18997,-5.922 1.34,-6.49298l-0.026,0c-0.694,0.793 -5.10501,1.41299 -5.10501,1.41299c0,0 -4.58499,6.12201 -5.94901,6.345c-1.388,0.22299 -2.10599,5.37799 -1.33798,6.51801m1.535,-54.15402c0,0 0.547,4.63501 5.18198,-0.54498c0,0 2.99701,-1.909 2.453,-4.362c0,0 -1.63599,-3.272 -2.453,-3.54401c0,0 -7.362,7.36099 -5.18198,8.45099m2.77698,-55.44199c0,0 0.84302,1.41199 2.25601,0c0,0 2.85001,-2.13199 3.569,0c0,0 0.47,3.44501 -3.694,4.63501c0,0 -1.41299,-0.24902 -1.065,1.16498c0,0 1.065,2.155 2.255,1.18802c0,0 0.34698,-1.88202 1.909,-2.72601c0,0 2.00699,-1.66 2.85001,-0.694c0,0 2.13098,2.008 -0.37201,4.13901c0,0 -3.19601,2.008 -2.13101,3.44501c0,0 0.94101,0.71899 1.78403,0.224c0,0 1.06497,-2.603 1.53598,-3.32101c0,0 1.785,-1.66199 2.97501,-0.81799c0,0 1.53601,1.66 0.12399,3.91501c0,0 -0.71899,2.38 0.099,2.479c0,0 2.25601,0.71899 2.50302,-0.34601c0,0 0,-0.94299 -0.37201,-2.008c0,0 -0.22299,-3.44601 1.56198,-3.32202c0,0 2.255,-0.59399 2.60202,3.32202c0,0 -0.24802,2.478 0.34698,2.60098c0,0 1.561,0.34802 2.13101,-0.24698c0,0 0,-0.595 -0.94101,-1.884c0,0 -1.53699,-3.91602 0.595,-4.634c0,0 2.849,-1.19 3.91501,3.668c0,0 0,0.966 1.43799,0.24698c0,0 2.23102,-0.59497 -0.24799,-2.60199c0,0 -3.19699,-2.72598 -1.66,-4.858c0,0 2.00601,-1.561 3.198,0c0,0 1.31201,2.603 2.25299,2.72702c0,0 1.439,-0.24802 1.439,-1.18903c0,0 -0.125,-1.06598 -1.56097,-1.53799c0,0 -3.07401,-1.561 -1.884,-3.44501c0,0 1.66,-1.78299 3.44498,-0.71799c0,0 1.065,0.595 1.289,1.06601c0,0 0.71902,1.065 2.03201,0c0,0 2.354,-1.19 4.01498,0.12399c0,0 2.03302,0.94101 2.72702,0.22198c0,0 2.15601,-1.53598 2.97299,-0.94098c0,0 0.694,0.24698 1.19,0.74399c0.59399,0.59302 0.96701,1.48599 -0.24799,2.70102c0,0 -2.47803,0 -2.72501,1.65997c0,0 -0.224,1.06601 0.24698,1.53601c0,0 1.065,0.59601 1.884,-0.81699c0,0 1.09,-2.85001 3.22101,-1.785c0,0 2.13101,0.94199 0.595,2.85098c0,0 -2.03201,1.189 -1.19,2.85001c0,0 1.06601,0.94101 2.85101,0.694c0,0 1.164,-0.595 0.099,-2.479c0,0 -1.53702,-2.255 0.71899,-2.85001c0,0 2.379,-0.71899 2.72598,1.06601c0,0 -0.47098,1.53601 0.966,1.19c0,0 2.13202,-0.595 0.81802,-2.03201c0,0 -1.065,0.595 -2.00601,-0.224c0,0 -0.71899,-2.008 0.47,-2.50299c0,0 1.28799,-1.28799 2.255,-0.34698c0,0 1.19,-0.24802 0.47101,-1.31403c0,0 -1.31302,-0.34598 -1.065,-1.41199c0,0 0.71698,-1.53699 1.65997,-1.314c0,0 0.71902,-0.694 0.12402,-1.53601l-1.66,-0.17398l-0.02499,0c0.29599,-2.651 0.02499,-5.056 0.02499,-5.056c0.04999,-0.74402 0,-1.41302 -0.12399,-2.00803c0,0 0.47,0.595 1.189,0.34802c0,0 1.19,-0.47202 0.81699,-1.289c0,0 -0.94098,-1.19 -1.53598,-0.71899c0,0 -0.52002,0.86798 -0.52002,1.41199c-0.76801,-3.371 -3.66901,-4.93201 -4.931,-5.452l1.66,0l0,-2.95001c-2.45401,0.19901 -1.93399,2.42999 -1.81,2.87601c-0.27301,-0.10001 -0.44699,-0.14999 -0.44699,-0.14999c0,0 -3.44501,-1.31201 -2.85001,-2.97299c0,0 -0.12302,-1.065 0.71899,-1.41302c0,0 0.94299,-1.189 0.34799,-1.785c0,0 -1.66199,0.22403 -1.53699,1.19l0,4.01501c0,0 0.22198,2.85001 -2.85101,2.03299c0,0 -1.784,-0.71899 -1.66098,-3.793c0,0 0.349,-2.849 0.81998,-3.69199l-1.66098,-0.224l0.71799,10.68201c0,0 0.94299,4.73499 -1.785,4.98297c0,0 -2.13098,0 -2.47699,-2.85098l-0.72,-12.93799l-2.603,-0.59402l2.009,8.30301c0,0 0.84299,4.63501 -1.884,4.51099c0,0 -2.85001,0.12402 -2.85001,-4.98199c0,0 -0.47101,-7.362 -1.91,-8.30298l-0.94098,0c0,0 3.07397,8.05499 -0.94202,8.17899c0,0 -2.254,0.34702 -2.379,-3.79099c0,0 -0.371,-4.164 -1.66,-4.983l-0.71899,-0.12402c0,0 2.379,6.64301 -0.94101,6.767c0,0 -2.603,-0.24899 -2.728,-2.603l-0.71799,-4.164l-1.43701,-0.12299c0,0 2.155,4.63501 0.37201,5.353c0,0 -0.84302,1.884 -2.85199,-0.47101l-1.535,-4.164l-2.03201,0.595c0,0 4.28601,3.79102 1.66,5.453c0,0 -0.47101,1.31201 -2.479,-0.224l-1.53601,-2.72598l-0.84299,-0.12402l-0.34698,1.41202c0,0 2.84998,0.84299 1.88397,3.44598c0,0 -0.47,1.66101 -2.60199,1.19c0,0 -1.53699,-1.06699 -1.66101,-1.909l-1.06598,-0.12399l0,1.19c0,0 3.32098,0.71899 2.97501,2.62799c0,0 -0.37302,2.72601 -2.03302,2.255c0,0 -2.35498,-0.71899 -2.60199,-1.909c0,0 -2.379,0.47101 -0.47101,1.66101c0,0 3.54501,0.12399 3.66699,1.06497c0,0 0.24902,3.79202 -2.84998,3.32101c0,0 -2.60202,-0.71799 -2.13101,0.71899c0,0 0.47101,0.595 1.314,0.595c0,0 2.60199,-0.12399 2.72699,1.66c0,0 -0.125,2.479 -3.56998,3.07401c0,0 -1.41202,0.12299 -0.94202,1.314m4.14001,31.54901l-5.42801,7.80798c0,0 0.59399,1.66101 2.354,0.867c0,0 4.38599,-5.17899 5.87399,-5.87299c0,0 1.586,-1.58701 -0.793,-2.35501l-2.00699,-0.44699zm-0.86902,-5.00601c0,0 2.10703,1.314 3.05002,1.314c0,0 0.892,-3.59399 -0.76901,-5.155c0,0 -2.38,3.246 -2.28101,3.841m2.405,83.44901c0,0 -1.909,2.45401 -0.54498,3.271l3.271,0.27399l-2.72601,-3.54498l0,0zm-0.74399,-65.901c0,0 1.48801,1.38699 2.62799,0.17401c0,0 3.94,-3.52002 4.90701,-3.76801c0,0 0,-2.65201 -1.586,-3.69202l-0.76901,-0.694c0,0 -5.00598,5.526 -5.79999,5.60101c0,0 -0.69202,1.83398 0.62,2.379m2.10599,12.71399c0,0 -5.12997,3.61801 -1.23798,6.543c0.34698,0.27301 1.487,0 1.487,0l-0.24902,-6.543zm1.638,47.46201c0,0 -0.54599,1.909 0,2.99899c0,0 0.81702,0.272 1.63501,0.272c0,0 0.54501,-2.45398 -1.63501,-3.271m0.81702,-56.60699c0,0 -0.96701,1.06601 0,2.27899c0,0 1.314,1.06702 3.073,-0.42099c0,0 2.13101,-1.38699 2.62601,-1.586c0.621,-0.272 -1.065,-3.42001 -1.065,-3.42001c0,0 -3.841,2.974 -4.634,3.14801m-1.06702,-97.97299c0,0 -0.84097,0.39798 0.44702,1.909l11.27698,13.90399c0,0 1.561,0.496 2.13101,-0.57001l-0.62,-0.94199l-11.22601,-14.84601c0,0 -0.89297,-0.84201 -2.009,0.54501m1.414,72.74298c-0.44699,0.79199 0.34702,4.04001 1.66,4.832c0,0 1.06601,0.76901 1.24002,-1.13998l-0.24902,-3.866l0,-0.02502c-0.42099,-0.099 -2.254,-0.495 -2.651,0.19901m2.651,83.20102c0,0 3.54501,-4.09003 4.36401,-4.09003l-3.81799,0c0,0 -1.63602,3.27103 -0.54602,4.09003m-0.371,-75.39401c0,0 -0.793,2.28 -0.27298,2.89899c0,0 0,0.54501 1.48801,0.42102c2.20599,-0.172 0.79199,-2.974 0.79199,-2.974c-0.79199,-0.867 -2.00702,-0.34601 -2.00702,-0.34601m-0.694,26.29501c0,0 0.07401,1.73499 1.83502,0.34799c0,0 2.10498,-1.83401 2.35199,-2.89999c0,0 0.17499,-1.14001 -0.59299,-1.31403c0,0 -3.867,1.41202 -3.59402,3.86603m5.67603,-109.05103c0,0 -6.345,-1.51099 -2.10703,2.10703c0,0 2.10703,3.32199 6.91302,3.91498c0,0 21.41498,4.83401 30.46198,12.96301c0,0 23.24701,14.47501 30.16302,47.95898l0.31998,6.93802c0.89301,37.39999 -19.008,57.004 -19.008,57.004c-16.90298,21.09299 -38.31699,24.414 -38.31699,24.414c-4.51001,0.61899 -8.13,5.427 -8.13,5.427c3.32199,0.91699 8.74899,-0.892 8.74899,-0.892c17.49899,-0.595 37.995,-22.009 37.995,-22.009c23.224,-23.54501 23.224,-61.54001 23.224,-61.54001c-0.29898,-34.672 -23.819,-53.68201 -23.819,-53.68201c-21.116,-18.98599 -46.44498,-22.604 -46.44498,-22.604m-2.70102,149.42603c0,0 0.271,1.36298 3.54401,1.09c0,0 1.09,1.90799 2.453,2.45398c0,0 2.453,-0.54599 -2.18201,-4.09c0,0 0.27402,-2.99899 2.72699,-2.181c0,0 0.76801,3.048 2.45401,2.72702c2.99802,-0.54602 -0.27399,-3.54501 -0.27399,-3.54501c-1.90701,-2.45401 -5.72501,-0.54501 -5.72501,-0.54501c0,0 -2.453,2.45401 -2.99701,4.09003m1.66,-73.78403l0.272,4.21402l7.435,-0.521c0,0 -1.487,-2.80002 -3.668,-3.42001l-4.039,-0.27301zm3.42001,36.384c0,0 -2.97501,1.21402 -2.45401,3.76602c0,0 1.04001,1.58698 2.008,0.07498c0,0 -0.17398,-1.487 0.71802,-1.90799c0,0 0.51999,-1.41299 -0.272,-1.93301m-1.66101,-28.056c0,0 -1.58701,3.966 -0.51999,5.08102c0,0 2.35498,0.27298 3.841,-0.17401c0,0 -0.86801,-3.495 -0.966,-4.01501c0,0 -1.215,-1.31299 -2.35501,-0.892m0,9.74002c0,0 0.966,3.147 1.73599,4.28699c0,0 2.82401,-0.79199 3.51901,-0.69299c0,0 -0.44699,-3.59399 -1.14001,-4.487c0,0 -4.11499,0.62 -4.11499,0.89301m2.00699,8.229l0,6.49298c0,0 2.55301,0.52002 3.59402,-0.62c0,0 0.79398,-1.48599 1.23999,-1.83301c0,0 -2.108,-2.207 -2.108,-2.55298c0,0 0.86801,-1.38901 -2.72601,-1.487m2.08102,-92.298l4.53699,8.13c0,0 12.66501,1.51099 19.30701,3.93997c0,0 3.61899,3 4.83301,4.80902c0,0 7.237,4.237 8.42697,9.04599c0,0 8.74902,11.177 -3.91599,30.45999l-0.298,14.17603c0,0 4.80899,7.55899 0.595,21.116c0,0 0,15.689 -12.367,25.03299c0,0 -8.724,11.15201 -13.85498,12.36801c0,0 -0.91602,5.427 -2.42801,6.34399c0,0 0.297,4.51099 0,5.72598c13.582,-2.10699 28.05499,-15.689 28.05499,-15.689c28.05499,-24.73499 24.73502,-57.896 24.73502,-57.896c0,-29.56799 -21.116,-49.767 -21.116,-49.767c-15.39102,-14.47501 -36.509,-17.79599 -36.509,-17.79599m3.94299,131.332c-0.54599,-1.634 -3,0 -3,0c0,0 -0.57001,3.272 1.36398,3.272c1.90802,0 1.63602,-3.272 1.63602,-3.272m-0.59601,-58.73801c0,0 -1.66,1.04099 -0.76801,3.41998c0,0 1.215,3.22202 3.22101,3.22202c0,0 1.215,0.34698 1.85901,-0.07501c0.521,-0.34598 -1.065,-3.246 -1.065,-3.246c-0.24701,-0.34698 -0.42102,-2.28 -0.42102,-2.28c-0.37299,-1.75998 -2.82599,-1.04099 -2.82599,-1.04099m1.41299,12.86398c0,0 1.41299,1.75803 3.073,1.065c0,0 1.04102,-0.793 0.79401,-1.75998l-2.03299,-0.793c0,0 -2.45401,-1.215 -1.83401,1.48798m-0.44598,6.418c0,0 0.521,0.86801 1.23898,0.76901c0,0 1.76001,-0.521 1.487,-1.215c0,0 0.694,-1.487 -1.93298,-1.41299c0,0 -1.21402,0.71899 -0.793,1.85898m26.81799,-65.47998c0,0 -0.125,1.289 0.47,1.883c0,0 1.065,0.94199 1.53601,0.47101l-0.12302,-2.00702c-0.47101,-0.84299 -1.883,-0.34698 -1.883,-0.34698m2.60101,8.45099l0.12399,1.983c0,0 1.785,0.22202 1.785,-0.24799c0,0 0.09799,-1.53601 -0.84402,-1.63602l-1.06497,-0.099l0,0z" fill-rule="nonzero" fill="#373535"/>
         </g>
        </g>
       </g>
      </g>
      <g id="g52">
       <path id="path54" d="m350.73849,429.01425c-27.16376,-27.16376 -18.11752,-64.86127 -18.11752,-64.86127c8.45126,-47.33749 53.38626,-55.49249 53.38626,-55.49249c0,0 -18.0925,28.94876 -20.79498,56.70749c0,0 -0.91626,12.66501 0.29749,23.8175c0,0 -11.77243,12.07001 -14.47369,34.40125l-0.29755,5.42752z" stroke-miterlimit="4" stroke-width="0.1" stroke="#373535" fill="none"/>
      </g>
      <g id="g56">
       <path id="path58" d="m353.14301,447.99899c-4.535,-1.80899 -10.26001,-8.452 -10.26001,-8.452c-16.879,-17.47198 -22.927,-44.31299 -22.927,-44.31299c-8.427,-41.31702 15.392,-69.67001 15.392,-69.67001c20.81799,-25.65201 53.68201,-31.37698 53.68201,-31.37698c9.96399,-1.19 8.155,1.51199 8.155,1.51199c-1.215,2.40298 -8.452,3.32098 -8.452,3.32098c0,0 -39.20901,5.427 -57.302,41.91c0,0 -17.49701,28.974 -4.53601,62.73001c0,0 6.34601,23.84201 24.737,38.01895l1.51102,6.32004l0,0z" stroke-miterlimit="4" stroke-width="0.1" stroke="#373535" fill="none"/>
      </g>
      <g id="g60">
       <path id="path62" d="m380.8765,464.90173c10.5575,4.21375 26.24625,2.99875 26.24625,2.99875c32.89001,-0.595 49.76752,-16.87875 49.76752,-16.87875c40.72125,-28.64999 35.88751,-78.41623 35.88751,-78.41623c0,-34.99628 -26.84128,-57.89627 -26.84128,-57.89627c-28.65125,-25.03247 -63.02625,-25.35501 -63.02625,-25.35501c0,0 -42.53,-1.18997 -70.28876,34.10376c0,0 -19.2825,22.30502 -18.0925,62.10876c0,0 3.32126,40.12625 33.48251,63.0275c0,0 3.32251,2.72626 7.23874,4.83249c0,0 4.535,14.77127 8.45001,16.58002c0,0 3.32251,0.91748 15.36749,-4.21252l1.80875,-0.89249l0,0z" stroke-miterlimit="4" stroke-width="0.1" stroke="#373535" fill="none"/>
      </g>
      <g id="g64">
       <path id="path66" d="m481.327,372.30801c0.892,37.39798 -19.009,57.00299 -19.009,57.00299c-16.90201,21.09201 -38.31598,24.41299 -38.31598,24.41299c-4.51102,0.62 -8.13,5.427 -8.13,5.427c3.32098,0.918 8.74899,-0.89099 8.74899,-0.89099c17.49799,-0.595 37.99301,-22.009 37.99301,-22.009c23.224,-23.54602 23.224,-61.54001 23.224,-61.54001c-0.29703,-34.672 -23.81702,-53.68201 -23.81702,-53.68201c-21.117,-18.98499 -46.44699,-22.604 -46.44699,-22.604c0,0 -6.345,-1.51099 -2.10602,2.10602c0,0 2.10602,3.32199 6.914,3.91699c0,0 21.41501,4.83301 30.46002,12.96201c0,0 23.24899,14.474 30.164,47.95801l0.32098,6.94l0,0z" stroke-miterlimit="4" stroke-width="0.1" stroke="#373535" fill="none"/>
      </g>
      <g id="g68">
       <path id="path70" d="m425.216,449.21301c13.58099,-2.10602 28.05499,-15.68802 28.05499,-15.68802c28.056,-24.73401 24.73502,-57.897 24.73502,-57.897c0,-29.56699 -21.116,-49.76599 -21.116,-49.76599c-15.39102,-14.47501 -36.50803,-17.79501 -36.50803,-17.79501l4.53702,8.12903c0,0 12.66501,1.51099 19.306,3.93997c0,0 3.62,3 4.832,4.80902c0,0 7.23801,4.23801 8.42798,9.04599c0,0 8.74902,11.177 -3.91498,30.45999l-0.29901,14.17603c0,0 4.80899,7.56 0.595,21.116c0,0 0,15.689 -12.367,25.03299c0,0 -8.724,11.15399 -13.85498,12.367c0,0 -0.91702,5.42899 -2.42801,6.345c0,0 0.29599,4.50998 0,5.72501l0,0z" stroke-miterlimit="4" stroke-width="0.1" stroke="#373535" fill="none"/>
      </g>
      <g id="g72">
       <path id="path74" d="m392.3511,453.42651c-6.94,-9.34375 -17.19998,-40.10126 -17.19998,-40.10126c-12.96252,-40.12625 -3.91626,-63.64624 -3.91626,-63.64624c9.04623,-34.37625 29.76624,-53.78125 29.76624,-53.78125c0,0 4.36252,-2.82623 1.90875,1.9075c0,0 -16.28375,18.38998 -24.73499,39.80374c0,0 -12.19376,32.34375 -3.07251,64.39001c0,0 7.75626,34.7475 19.90125,48.57742l-2.6525,2.85007z" stroke-miterlimit="4" stroke-width="0.1" stroke="#373535" fill="none"/>
      </g>
      <g id="g76">
       <path id="path78" d="m411.51001,316.54236c-0.19876,0.02499 -0.39624,0.04999 -0.595,0.10001c-6.36874,0.96625 -15.24249,7.435 -15.24249,7.435c-1.01501,2.0325 -5.05624,8.10376 -5.05624,8.10376c-6.41876,12.81372 -3.0975,26.81747 -3.0975,26.81747c-2.0325,11.45001 -11.07877,16.01001 -11.07877,16.01001c2.38,-45.875 25.6525,-68.13126 25.6525,-68.13126c0,0 7.75751,5.4025 8.77252,9.4425" stroke-miterlimit="4" stroke-width="0.1" stroke="#373535" fill="none"/>
      </g>
      <g id="g80">
       <path id="path82" d="m420.13425,314.93164l-11.22626,-14.845c0,0 -0.89249,-0.84375 -2.00876,0.54501c0,0 -0.8425,0.39624 0.44751,1.9075l11.27625,13.90375c0,0 1.56125,0.49625 2.13126,-0.57001l-0.62,-0.94125z" stroke-miterlimit="4" stroke-width="0.1" stroke="#373535" fill="none"/>
      </g>
      <g id="g84">
       <path id="path86" d="m420.75436,315.72449l-0.62,-0.79251" stroke-miterlimit="4" stroke-width="0.1" stroke="#373535" fill="none"/>
      </g>
      <g id="g88">
       <path id="path90" d="m440.90451,323.5321c0,0 -0.02625,0 -0.07501,-0.02499c-8.72375,-4.98126 -30.435,-2.20627 -30.435,-2.20627c-10.33499,0.54501 -15.66251,12.02127 -15.66251,12.02127c0,0 -3.64499,5.05499 -3.3725,20.71875c0,0 0.84375,11.20374 -2.22998,13.16125c0,0 6.17123,3.07373 18.76248,1.95749c0,0 2.23001,-0.04999 5.25375,0.29749c5.45245,0.62003 13.45874,2.50375 15.44122,8.08002c0,0 10.92996,13.72998 -0.54623,27.16376c0,0 -4.21249,10.35999 -16.53125,18.19122l-16.7775,17.07626l3.64252,5.60126l0.54498,-1.41251c0,0 6.71625,0 10.36002,-3.07251c0,0 1.41251,3.07251 0.8425,3.91504c-4.3125,6.49374 28.82498,-23.79254 28.82498,-23.79254c12.31625,-8.94748 11.47369,-33.31 11.47369,-33.31c-1.11374,-6.71625 -1.68375,-22.6525 -1.68375,-22.6525c-8.37875,2.23001 -11.47626,-7.28751 -11.47626,-7.28751c-0.54623,2.23126 -2.79999,2.80127 -2.79999,2.80127c-1.11624,-0.27252 -2.23001,-2.52875 -2.23001,-2.52875c-0.84375,6.17117 -10.06375,9.78998 -10.06375,9.78998c-3.29623,1.06619 -6.31998,1.28876 -8.97125,1.01627c-8.64999,-0.8425 -13.70624,-6.89001 -13.70624,-6.89001c-8.4025,-4.46124 -4.75751,-22.37997 -4.75751,-22.37997c2.23001,-9.79001 11.20126,-15.11877 11.20126,-15.11877c17.4975,-5.65125 33.6825,-1.46249 34.89624,-1.13998" stroke-miterlimit="4" stroke-width="0.1" stroke="#373535" fill="none"/>
      </g>
      <g id="g92">
       <path id="path94" d="m393.49124,463.95999c-1.13998,-0.37125 -2.67624,-0.76874 -2.67624,-0.76874c-2.80124,0 -5.03125,-1.11499 -5.03125,-1.11499l5.03125,-1.95752c0,0 1.46124,2.62625 2.67624,3.84125z" stroke-miterlimit="4" stroke-width="0.1" stroke="#373535" fill="none"/>
      </g>
      <g id="g96">
       <path id="path98" d="m393.49124,463.95999c0.3725,0.37125 0.69501,0.62 0.96625,0.62c0.77002,0 0.05002,-0.29749 -0.96625,-0.62z" stroke-miterlimit="4" stroke-width="0.1" stroke="#373535" fill="none"/>
      </g>
      <g id="g100">
       <path id="path102" d="m406.55273,446.26401l-0.495,0.76874" stroke-miterlimit="4" stroke-width="0.1" stroke="#373535" fill="none"/>
      </g>
      <g id="g104">
       <path id="path106" d="m406.57837,446.26401l-0.02625,0" stroke-miterlimit="4" stroke-width="0.1" stroke="#373535" fill="none"/>
      </g>
      <g id="g108">
       <path id="path110" d="m406.60275,446.21463c0,0 0,0.02499 -0.02499,0.05002c-0.14877,0.56998 -1.58627,5.47623 -1.33878,6.49249c0.86877,3.44501 -2.79999,5.60126 -2.79999,5.60126c-1.98251,1.85999 -1.58749,6.22125 -1.58749,6.22125l-1.63501,-0.595c-1.26373,-2.77502 1.63501,-7.31125 1.63501,-7.31125c3.66873,-3.6925 0.69501,-4.065 0.69501,-4.065c-1.9075,-0.34625 -7.38501,7.93124 -7.38501,7.93124c-0.76877,-1.14001 -0.05002,-6.29501 1.33749,-6.51752c1.36374,-0.22372 5.94876,-6.345 5.94876,-6.345c0,0 4.41125,-0.62 5.10498,-1.41248" stroke-miterlimit="4" stroke-width="0.1" stroke="#373535" fill="none"/>
      </g>
      <g id="g112">
       <path id="path114" d="m404.14914,460.93625c0,0 -1.90875,2.45374 -0.54626,3.27124l3.27252,0.27249l-2.72626,-3.54373z" stroke-miterlimit="4" stroke-width="0.1" stroke="#373535" fill="none"/>
      </g>
      <g id="g116">
       <path id="path118" d="m357.25711,431.74011c0.76752,-2.37875 3.19751,-11.32626 3.19751,-11.32626c-0.19876,-1.63623 -2.80124,-1.685 -2.80124,-1.685c0,0 -3.12253,8.72375 -2.67627,12.3425c0,0 1.33875,3.64252 2.28,0.66876z" stroke-miterlimit="4" stroke-width="0.1" stroke="#373535" fill="none"/>
      </g>
      <g id="g120">
       <path id="path122" d="m364.91513,421.70288c0,0 -2.92377,9.39374 -3.76752,9.91376c-0.8425,0.49625 -0.44623,3.79123 1.215,3.32123c0,0 5.25375,-7.11374 5.3775,-9.56622c0.12375,-2.45502 -2.82498,-3.66876 -2.82498,-3.66876z" stroke-miterlimit="4" stroke-width="0.1" stroke="#373535" fill="none"/>
      </g>
      <g id="g124">
       <path id="path126" d="m367.59213,399.84314c-0.595,1.33749 -5.72501,8.17874 -5.72501,8.17874c-2.18124,7.08749 -3.27249,5.18002 -3.27249,5.18002c-0.8175,-4.36252 7.90625,-17.99377 7.90625,-17.99377c0,0 2.18124,2.18127 1.09125,4.63501z" stroke-miterlimit="4" stroke-width="0.1" stroke="#373535" fill="none"/>
      </g>
      <g id="g128">
       <path id="path130" d="m356.68701,437.76297l0.8175,7.90625c0,0 2.45374,-3.27124 2.72626,-4.63498c0.27249,-1.36252 -3.54376,-3.27127 -3.54376,-3.27127z" stroke-miterlimit="4" stroke-width="0.1" stroke="#373535" fill="none"/>
      </g>
      <g id="g132">
       <path id="path134" d="m362.13925,457.11975c-1.63626,-0.27249 -2.45377,-5.9975 -2.45377,-5.9975c3,-1.63626 3.54501,-10.08749 3.54501,-10.08749l1.9075,0.54498c0,0 -0.54501,8.45126 -2.72626,10.08749c-2.18124,1.63501 -0.27249,5.45251 -0.27249,5.45251z" stroke-miterlimit="4" stroke-width="0.1" stroke="#373535" fill="none"/>
      </g>
      <g id="g136">
       <path id="path138" d="m364.59286,464.48062c-1.09,-1.06625 -1.9075,-4.08875 -1.9075,-4.08875l1.9075,-0.81876c3.54373,-5.45248 4.63498,-16.9025 4.63498,-16.9025l3.54376,1.90869c0,0 -3.81625,8.99631 -3.54376,11.99506c0.27252,2.99875 -4.63498,7.90625 -4.63498,7.90625z" stroke-miterlimit="4" stroke-width="0.1" stroke="#373535" fill="none"/>
      </g>
      <g id="g140">
       <path id="path142" d="m372.77161,460.11838c-2.45374,1.23874 3.8175,-13.08624 3.8175,-13.08624l4.90625,2.99875c0,0 -7.08749,9.26999 -8.72375,10.08749z" stroke-miterlimit="4" stroke-width="0.1" stroke="#373535" fill="none"/>
      </g>
      <g id="g144">
       <path id="path146" d="m386.08151,450.2045c-0.62,1.24002 -4.48627,8.87375 -6.49374,9.36874c0,0 8.72372,-1.90872 11.20248,-2.99875c0.89127,-0.39624 -3.79251,-5.155 -4.70874,-6.37z" stroke-miterlimit="4" stroke-width="0.1" stroke="#373535" fill="none"/>
      </g>
      <g id="g148">
       <path id="path150" d="m386.08151,450.2045c-0.27374,-0.32123 -0.27374,-0.39624 0.07498,-0.17374c0,0 -0.02625,0.04999 -0.07498,0.17374z" stroke-miterlimit="4" stroke-width="0.1" stroke="#373535" fill="none"/>
      </g>
      <g id="g152">
       <path id="path154" d="m370.04575,408.83975c-0.8175,2.99875 -6.27127,7.90625 -6.27127,7.90625c-0.81747,-3.8175 5.72501,-13.08624 5.72501,-13.08624l0.54626,5.17999z" stroke-miterlimit="4" stroke-width="0.1" stroke="#373535" fill="none"/>
      </g>
      <g id="g156">
       <path id="path158" d="m371.68152,412.92911c0,0 -3.27124,5.17999 -2.72626,7.11252c0,0 2.72626,-0.8175 3.81625,-2.45251l-1.09,-4.66z" stroke-miterlimit="4" stroke-width="0.1" stroke="#373535" fill="none"/>
      </g>
      <g id="g160">
       <path id="path162" d="m375.22586,422.76852c-0.54623,-1.90875 -1.90875,-1.63626 -1.90875,-1.63626c0,0 -0.54498,1.63626 0.27252,2.72751l2.18124,0.8175l-0.54501,-1.90875z" stroke-miterlimit="4" stroke-width="0.1" stroke="#373535" fill="none"/>
      </g>
      <g id="g164">
       <path id="path166" d="m371.40875,426.85788c0,0 -1.90872,7.63373 -3.54373,8.45123c0,0 -0.54501,2.45377 0.54498,3.54501c0,0 4.09003,-1.36377 5.18002,-3.8175c0,0 0.27249,-5.17999 1.36249,-6.26999l-3.54376,-1.90875z" stroke-miterlimit="4" stroke-width="0.1" stroke="#373535" fill="none"/>
      </g>
      <g id="g168">
       <path id="path170" d="m377.95163,432.03799c0,0 -0.54501,8.45126 -2.99875,9.54126c0,0 0.27249,1.09125 2.18124,1.36374c0,0 3.81625,-4.08875 3.54376,-5.9975l-2.72626,-4.9075z" stroke-miterlimit="4" stroke-width="0.1" stroke="#373535" fill="none"/>
      </g>
      <g id="g172">
       <path id="path174" d="m382.31387,442.12524c0,0 -1.36249,1.63626 -1.09125,2.99875l3.27249,1.36249l-2.18124,-4.36124z" stroke-miterlimit="4" stroke-width="0.1" stroke="#373535" fill="none"/>
      </g>
      <g id="g176">
       <path id="path178" d="m407.1485,455.21115c0,0 -0.54623,1.90875 0,2.99875c0,0 0.8175,0.27249 1.63626,0.27249c0,0 0.54376,-2.45374 -1.63626,-3.27124z" stroke-miterlimit="4" stroke-width="0.1" stroke="#373535" fill="none"/>
      </g>
      <g id="g180">
       <path id="path182" d="m411.51001,452.48474c0,0 -1.63626,3.27124 -0.54626,4.08875c0,0 3.54501,-4.08875 4.36377,-4.08875l-3.8175,0z" stroke-miterlimit="4" stroke-width="0.1" stroke="#373535" fill="none"/>
      </g>
      <g id="g184">
       <path id="path186" d="m421.87012,447.85037c-1.68625,0.32251 -2.45374,-2.72626 -2.45374,-2.72626c-2.45377,-0.81747 -2.72751,2.18002 -2.72751,2.18002c4.63498,3.54498 2.1825,4.09 2.1825,4.09c-1.36374,-0.54501 -2.45377,-2.45251 -2.45377,-2.45251c-3.27124,0.27127 -3.54373,-1.09125 -3.54373,-1.09125c0.54373,-1.63623 2.9975,-4.08875 2.9975,-4.08875c0,0 3.8175,-1.90875 5.72501,0.54501c0,0 3.27124,2.9975 0.27374,3.54373z" stroke-miterlimit="4" stroke-width="0.1" stroke="#373535" fill="none"/>
      </g>
      <g id="g188">
       <path id="path190" d="m422.68799,442.67026c-1.93375,0 -1.36374,-3.27127 -1.36374,-3.27127c0,0 2.45374,-1.63623 3,0c0,0 0.27124,3.27127 -1.63626,3.27127z" stroke-miterlimit="4" stroke-width="0.1" stroke="#373535" fill="none"/>
      </g>
      <g id="g192">
       <path id="path194" d="m381.496,378.30502c0,0 -4.36249,2.45374 -4.08875,4.9075c0,0 1.63501,-0.81876 3.54376,-1.90875c0,0 2.45374,-1.63501 0.54498,-2.99875z" stroke-miterlimit="4" stroke-width="0.1" stroke="#373535" fill="none"/>
      </g>
      <g id="g196">
       <path id="path198" d="m379.58737,387.02939c0,0 4.9075,-2.72626 5.99875,-4.9075c1.11374,-2.18124 2.75,-0.8175 2.75,-0.8175l-3.84125,5.45248c0,0 1.11499,1.09003 -1.09,1.36377c-2.18127,0.27124 -3.8175,-1.09125 -3.8175,-1.09125z" stroke-miterlimit="4" stroke-width="0.1" stroke="#373535" fill="none"/>
      </g>
      <g id="g200">
       <path id="path202" d="m387.79175,403.11462c0,0 -2.75125,-1.36374 2.17999,-6.54251c0,0 2.18124,-4.36249 5.18124,-2.45499c0,0 3.54376,-1.36249 -0.54623,3.8175c0,0 -3.27124,6.81625 -6.815,5.17999z" stroke-miterlimit="4" stroke-width="0.1" stroke="#373535" fill="none"/>
      </g>
      <g id="g204">
       <path id="path206" d="m400.87762,397.9346c0,0 -7.36127,7.36127 -5.18127,8.45126c0,0 0.54626,4.63498 5.18127,-0.54501c0,0 2.9975,-1.90875 2.45374,-4.36249c0,0 -1.63626,-3.27124 -2.45374,-3.54376z" stroke-miterlimit="4" stroke-width="0.1" stroke="#373535" fill="none"/>
      </g>
      <g id="g208">
       <path id="path210" d="m388.064,422.49576c0,0 -4.36249,-0.8175 0.8175,-7.93124c0,0 5.9975,-7.35999 5.72501,-1.63501l-5.99625,8.74875l-0.54626,0.8175z" stroke-miterlimit="4" stroke-width="0.1" stroke="#373535" fill="none"/>
      </g>
      <g id="g212">
       <path id="path214" d="m389.9975,427.35352c0,0 -0.07501,0.09875 -0.19876,0.27249c-0.39749,0.595 -1.14001,2.00751 0.44626,2.00751c2.03125,0 5.00623,-5.42749 5.00623,-5.42749c0.27252,-1.9325 5.94876,-6.22125 5.94876,-6.22125c-0.17374,-0.52002 -2.80124,-2.28 -2.80124,-2.28c-1.56125,0.9675 -4.46127,6.74124 -4.46127,6.74124c-1.13998,2.45377 -4.11499,5.17999 -4.11499,5.17999" stroke-miterlimit="4" stroke-width="0.1" stroke="#373535" fill="none"/>
      </g>
      <g id="g216">
       <path id="path218" d="m396.565,432.08737c7.88126,-8.05502 9.19501,-11.02875 9.19501,-11.02875c0.17377,-3.07376 -0.76874,-1.86002 -0.76874,-1.86002c0,0 -5.35251,5.35376 -5.17874,6.07251c0.17249,0.69501 -7.01501,7.60873 -7.01501,7.60873c0,0 -1.04126,1.48752 -0.44626,2.20627c0,0 1.065,0.76874 2.99875,-0.96625l1.215,-2.0325z" stroke-miterlimit="4" stroke-width="0.1" stroke="#373535" fill="none"/>
      </g>
      <g id="g220">
       <path id="path222" d="m405.51151,407.72461l0,0.02499" stroke-miterlimit="4" stroke-width="0.1" stroke="#373535" fill="none"/>
      </g>
      <g id="g224">
       <path id="path226" d="m404.27249,414.29199c-3.88998,-2.92374 1.23877,-6.54251 1.23877,-6.54251l0.24875,6.54251c0,0 -1.14001,0.27249 -1.48752,0z" stroke-miterlimit="4" stroke-width="0.1" stroke="#373535" fill="none"/>
      </g>
      <g id="g228">
       <path id="path230" d="m383.85013,406.5845c0,0 -0.51999,5.625 0.3475,7.36127c0,0 3.42001,-4.11502 4.48627,-5.33002c0,0 -2.45502,-0.61874 -2.97501,-0.44501c0,0 -0.96625,-1.93375 -1.85876,-1.58624z" stroke-miterlimit="4" stroke-width="0.1" stroke="#373535" fill="none"/>
      </g>
      <g id="g232">
       <path id="path234" d="m411.45999,412.45789c0,0 -1.56125,-0.2475 -1.48624,2.20624c0,0 -0.52002,1.14001 0.51999,1.04126c0,0 1.31375,0 1.76001,-1.31375c0,0 0.17249,-1.83374 -0.69376,-2.45374" stroke-miterlimit="4" stroke-width="0.1" stroke="#373535" fill="none"/>
      </g>
      <g id="g236">
       <path id="path238" d="m417.95413,410.4505c0,0 -2.97501,1.21503 -2.45374,3.76752c0,0 1.03998,1.58624 2.00751,0.07376c0,0 -0.17377,-1.48627 0.71875,-1.9075c0,0 0.51999,-1.41251 -0.27252,-1.93378z" stroke-miterlimit="4" stroke-width="0.1" stroke="#373535" fill="none"/>
      </g>
      <g id="g240">
       <path id="path242" d="m413.4924,403.61026c0,0 -3.86627,1.41251 -3.59375,3.86627c0,0 0.07498,1.73499 1.83499,0.34747c0,0 2.10501,-1.83499 2.35376,-2.89999c0,0 0.17374,-1.13998 -0.595,-1.31375z" stroke-miterlimit="4" stroke-width="0.1" stroke="#373535" fill="none"/>
      </g>
      <g id="g244">
       <path id="path246" d="m418.30075,400.36313l0,6.49374c0,0 2.55249,0.51999 3.59375,-0.62c0,0 0.79373,-1.48627 1.23874,-1.83377c0,0 -2.10623,-2.20624 -2.10623,-2.55249c0,0 0.86749,-1.38748 -2.72626,-1.48749z" stroke-miterlimit="4" stroke-width="0.1" stroke="#373535" fill="none"/>
      </g>
      <g id="g248">
       <path id="path250" d="m413.66574,398.87637c-0.495,0.19876 -2.6275,1.58624 -2.6275,1.58624c-1.75876,1.48627 -3.07251,0.42126 -3.07251,0.42126c-0.96625,-1.215 0,-2.28 0,-2.28c0.79251,-0.17377 4.63376,-3.14749 4.63376,-3.14749c0,0 1.68625,3.14749 1.06625,3.41998z" stroke-miterlimit="4" stroke-width="0.1" stroke="#373535" fill="none"/>
      </g>
      <g id="g252">
       <path id="path254" d="m425.48825,398.0835c0,0 -1.215,0.71875 -0.79376,1.85876c0,0 0.52124,0.86749 1.23877,0.76874c0,0 1.76123,-0.52124 1.48874,-1.215c0,0 0.69376,-1.48752 -1.93375,-1.41251z" stroke-miterlimit="4" stroke-width="0.1" stroke="#373535" fill="none"/>
      </g>
      <g id="g256">
       <path id="path258" d="m426.97513,392.03549c0,0 -2.45374,-1.21375 -1.83374,1.48749c0,0 1.41251,1.76001 3.07251,1.065c0,0 1.04123,-0.79251 0.79373,-1.75876l-2.0325,-0.79373z" stroke-miterlimit="4" stroke-width="0.1" stroke="#373535" fill="none"/>
      </g>
      <g id="g260">
       <path id="path262" d="m420.40775,391.24265c0,0 -4.11499,0.62 -4.11499,0.89249c0,0 0.96625,3.14749 1.73624,4.28751c0,0 2.82376,-0.79376 3.51877,-0.69376c0,0 -0.44626,-3.59375 -1.14001,-4.48624z" stroke-miterlimit="4" stroke-width="0.1" stroke="#373535" fill="none"/>
      </g>
      <g id="g264">
       <path id="path266" d="m381.496,399.49588c-1.01624,-0.57001 -1.41251,-2.10623 -1.41251,-2.10623c-0.34747,-2.18127 1.41251,-4.73376 1.41251,-4.73376c0,0 3.86627,0.69376 5.35376,-0.44626c0,0 -0.17377,2.55252 -1.68625,3.59375c0,0 -2.45251,4.38626 -3.66751,3.6925z" stroke-miterlimit="4" stroke-width="0.1" stroke="#373535" fill="none"/>
      </g>
      <g id="g268">
       <path id="path270" d="m397.185,380.90762c0,0 -4.11502,1.31375 -5.70126,4.21375c0,0 -2.00751,2.72626 -2.55249,3.07251c0,0 2.37997,1.04126 4.21375,0.52124c0,0 3.51874,-5.08124 4.21381,-5.60123c0,0 2.20499,-2.20627 -0.1738,-2.35501c-0.07501,-0.02499 -0.17502,-0.02499 -0.27374,-0.02499" stroke-miterlimit="4" stroke-width="0.1" stroke="#373535" fill="none"/>
      </g>
      <g id="g272">
       <path id="path274" d="m402.61227,382.49387l-5.42752,7.8075c0,0 0.595,1.66 2.35376,0.86624c0,0 4.38751,-5.17999 5.87375,-5.87375c0,0 1.58749,-1.58499 -0.79248,-2.35376l-2.00751,-0.44623z" stroke-miterlimit="4" stroke-width="0.1" stroke="#373535" fill="none"/>
      </g>
      <g id="g276">
       <path id="path278" d="m408.58524,387.05447c0,0 -5.00626,5.52625 -5.79999,5.60126c0,0 -0.6925,1.83374 0.62,2.37875c0,0 1.48749,1.38873 2.6275,0.17374c0,0 3.94,-3.51874 4.9075,-3.76749c0,0 0,-2.65125 -1.58624,-3.6925l-0.76877,-0.69376z" stroke-miterlimit="4" stroke-width="0.1" stroke="#373535" fill="none"/>
      </g>
      <g id="g280">
       <path id="path282" d="m411.80786,384.50137c-1.48749,0.12375 -1.48749,-0.42123 -1.48749,-0.42123c-0.52002,-0.62 0.27249,-2.89999 0.27249,-2.89999c0,0 1.215,-0.52002 2.00751,0.34747c0,0 1.41373,2.80002 -0.79251,2.97375z" stroke-miterlimit="4" stroke-width="0.1" stroke="#373535" fill="none"/>
      </g>
      <g id="g284">
       <path id="path286" d="m416.29276,382.39438c0,0 -1.58624,3.96625 -0.51999,5.08124c0,0 2.35501,0.27249 3.84125,-0.17374c0,0 -0.86749,-3.495 -0.96625,-4.01501c0,0 -1.215,-1.31375 -2.35501,-0.89249z" stroke-miterlimit="4" stroke-width="0.1" stroke="#373535" fill="none"/>
      </g>
      <g id="g288">
       <path id="path290" d="m428.04074,387.22775c-0.64502,0.42123 -1.85876,0.07498 -1.85876,0.07498c-2.00751,0 -3.22125,-3.2225 -3.22125,-3.2225c-0.89249,-2.37997 0.76752,-3.41998 0.76752,-3.41998c0,0 2.45374,-0.72 2.82623,1.04001c0,0 0.17252,1.93375 0.42001,2.28c0,0 1.58749,2.89999 1.06625,3.2475z" stroke-miterlimit="4" stroke-width="0.1" stroke="#373535" fill="none"/>
      </g>
      <g id="g292">
       <path id="path294" d="m414.53375,374.06738l0.27252,4.21375l7.435,-0.52124c0,0 -1.48627,-2.80127 -3.66876,-3.42001l-4.03876,-0.27249z" stroke-miterlimit="4" stroke-width="0.1" stroke="#373535" fill="none"/>
      </g>
      <g id="g296">
       <path id="path298" d="m410.96439,373.17502l-0.02499,-0.32251" stroke-miterlimit="4" stroke-width="0.1" stroke="#373535" fill="none"/>
      </g>
      <g id="g300">
       <path id="path302" d="m411.03885,373.19949l-0.07498,0l0,-0.02499c-0.42001,-0.09875 -2.25375,-0.495 -2.65128,0.19876c-0.44623,0.79248 0.3475,4.03998 1.66,4.83249c0,0 1.06625,0.76874 1.24002,-1.13998l-0.24875,-3.86627" stroke-miterlimit="4" stroke-width="0.1" stroke="#373535" fill="none"/>
      </g>
      <g id="g304">
       <path id="path306" d="m404.02463,373.64563c0,0 -2.37875,3.2475 -2.28,3.84125c0,0 2.10623,1.31375 3.04874,1.31375c0,0 0.89252,-3.5925 -0.76874,-5.155z" stroke-miterlimit="4" stroke-width="0.1" stroke="#373535" fill="none"/>
      </g>
      <g id="g308">
       <path id="path310" d="m397.0105,375.75262c2.35501,-0.29749 2.35501,-2.55249 2.35501,-2.55249l-4.73376,-0.17374c0,0 0.27249,2.97375 2.37875,2.72623z" stroke-miterlimit="4" stroke-width="0.1" stroke="#373535" fill="none"/>
      </g>
      <g id="g312">
       <path id="path314" d="m388.064,371.43985c0,0 -2.10748,-0.51999 -2.00751,0.89252c0,0 -0.34747,1.31375 1.3125,1.13998c0,0 1.5625,0.42126 2.10751,-0.79248c0,0 0.59375,-0.69376 -1.41251,-1.24002z" stroke-miterlimit="4" stroke-width="0.1" stroke="#373535" fill="none"/>
      </g>
      <g id="g316">
       <path id="path318" d="m392.45114,377.76001c0,0 -1.06625,1.76001 -2.10751,-0.44626c-1.04123,-2.18124 0.69376,-2.10623 0.69376,-2.10623c0,0 2.6275,0.96625 1.41376,2.55249z" stroke-miterlimit="4" stroke-width="0.1" stroke="#373535" fill="none"/>
      </g>
      <g id="g320">
       <path id="path322" d="m440.58224,355.92462c0,0 -0.22375,1.06622 0.2475,1.53622c0,0 1.06625,0.59625 1.88376,-0.81747c0,0 1.09,-2.85001 3.22122,-1.785c0,0 2.13126,0.94247 0.59625,2.85123c0,0 -2.0325,1.18875 -1.19,2.85001c0,0 1.065,0.94125 2.85001,0.69376c0,0 1.16501,-0.595 0.09875,-2.47876c0,0 -1.53625,-2.25494 0.71875,-2.84998c0,0 2.38,-0.71875 2.72626,1.06622c0,0 -0.47125,1.53625 0.96625,1.19c0,0 2.13126,-0.595 0.81876,-2.0325c0,0 -1.06625,0.595 -2.00751,-0.22372c0,0 -0.71875,-2.00751 0.47,-2.5025c0,0 1.28876,-1.28876 2.25626,-0.3475c0,0 1.18875,-0.2475 0.47125,-1.31372c0,0 -1.31375,-0.34622 -1.06625,-1.41254c0,0 0.7175,-1.53619 1.66,-1.31375c0,0 0.72,-0.69376 0.12375,-1.53619l-1.66,-0.1738" stroke-miterlimit="4" stroke-width="0.1" stroke="#373535" fill="none"/>
      </g>
      <g id="g324">
       <path id="path326" d="m454.23825,344.89563c0,0 1.785,0.22375 1.785,-0.2475c0,0 0.09872,-1.53625 -0.84375,-1.63626l-1.06625,-0.09875l0.125,1.98251z" stroke-miterlimit="4" stroke-width="0.1" stroke="#373535" fill="none"/>
      </g>
      <g id="g328">
       <path id="path330" d="m453.64377,340.26123c0,0 0.47,0.595 1.18875,0.3475c0,0 1.19,-0.47125 0.8175,-1.28876c0,0 -0.94,-1.19 -1.53625,-0.72c0,0 -0.52002,0.86874 -0.52002,1.41376" stroke-miterlimit="4" stroke-width="0.1" stroke="#373535" fill="none"/>
      </g>
      <g id="g332">
       <path id="path334" d="m453.51926,336.81641c-0.47125,0.47 -1.53625,-0.47125 -1.53625,-0.47125c-0.595,-0.595 -0.47,-1.88376 -0.47,-1.88376c0,0 1.41125,-0.495 1.88251,0.3475l0.12375,2.00751z" stroke-miterlimit="4" stroke-width="0.1" stroke="#373535" fill="none"/>
      </g>
      <g id="g336">
       <path id="path338" d="m448.51312,334.48679c-0.125,-0.44626 -0.64502,-2.67752 1.80875,-2.87503" stroke-miterlimit="4" stroke-width="0.1" stroke="#373535" fill="none"/>
      </g>
      <g id="g340">
       <path id="path342" d="m450.32227,331.61139l0,2.94876l-1.66,0l-0.125,0c0,0 0,-0.02374 -0.02374,-0.04874" stroke-miterlimit="4" stroke-width="0.1" stroke="#373535" fill="none"/>
      </g>
      <g id="g344">
       <path id="path346" d="m448.06638,334.33777c0,0 -3.44501,-1.31375 -2.85001,-2.97375c0,0 -0.12375,-1.06625 0.71875,-1.41251c0,0 0.9425,-1.19 0.3475,-1.785c0,0 -1.66125,0.2225 -1.53625,1.19l0,4.01501c0,0 0.22125,2.85001 -2.85126,2.0325c0,0 -1.78375,-0.71875 -1.66125,-3.79251c0,0 0.34875,-2.85001 0.82001,-3.6925l-1.66125,-0.22372l0.71875,10.6825c0,0 0.9425,4.73373 -1.785,4.98123c0,0 -2.13123,0 -2.47748,-2.84998l-0.72,-12.9375l-2.60251,-0.595l2.00876,8.30249c0,0 0.84253,4.63501 -1.88376,4.51126c0,0 -2.85001,0.12375 -2.85001,-4.98126c0,0 -0.47125,-7.36127 -1.91,-8.30374l-0.94119,0c0,0 3.0737,8.05499 -0.94122,8.17999c0,0 -2.255,0.34625 -2.38,-3.79251c0,0 -0.37125,-4.16376 -1.66,-4.98123l-0.71875,-0.12375c0,0 2.37875,6.64124 -0.94125,6.76498c0,0 -2.60251,-0.2475 -2.72751,-2.60126l-0.71875,-4.16373l-1.43625,-0.12375c0,0 2.155,4.63373 0.37125,5.35248c0,0 -0.8425,1.88376 -2.85123,-0.47125l-1.535,-4.16373l-2.0325,0.595c0,0 4.28625,3.79248 1.66,5.45248c0,0 -0.47125,1.31375 -2.47751,-0.2225l-1.53751,-2.72626l-0.8425,-0.12375l-0.3475,1.41251c0,0 2.85001,0.8425 1.88376,3.44501c0,0 -0.47,1.66 -2.60126,1.19c0,0 -1.53751,-1.06625 -1.66125,-1.90875l-1.06625,-0.12375l0,1.18875c0,0 3.32126,0.71875 2.97501,2.6275c0,0 -0.3725,2.72626 -2.0325,2.255c0,0 -2.35498,-0.71875 -2.60248,-1.9075c0,0 -2.37875,0.47125 -0.47125,1.66c0,0 3.54498,0.12375 3.66748,1.06622c0,0 0.24875,3.79126 -2.84998,3.32126c0,0 -2.60251,-0.71875 -2.13126,0.71875c0,0 0.47125,0.59375 1.31375,0.59375c0,0 2.60248,-0.12375 2.72748,1.66119c0,0 -0.125,2.47876 -3.56998,3.07251c0,0 -1.41251,0.125 -0.9425,1.315c0,0 0.84375,1.41248 2.25626,0c0,0 2.84998,-2.13251 3.56873,0c0,0 0.47,3.44498 -3.69373,4.63373c0,0 -1.41251,-0.2475 -1.065,1.16501c0,0 1.065,2.15625 2.25497,1.19c0,0 0.3475,-1.88376 1.90875,-2.72626c0,0 2.00751,-1.66125 2.85001,-0.69376c0,0 2.13126,2.00751 -0.37125,4.13876c0,0 -3.19626,2.00751 -2.13126,3.44501c0,0 0.94125,0.71875 1.78375,0.2225c0,0 1.065,-2.60251 1.53625,-3.32001c0,0 1.785,-1.66125 2.97501,-0.81876c0,0 1.53625,1.66 0.12375,3.91626c0,0 -0.71875,2.37875 0.09875,2.47748c0,0 2.25626,0.72 2.50375,-0.34622c0,0 0,-0.94125 -0.37253,-2.00751c0,0 -0.22247,-3.44501 1.5625,-3.32126c0,0 2.25494,-0.595 2.60126,3.32126c0,0 -0.2475,2.47873 0.3475,2.60248c0,0 1.56125,0.3475 2.13251,-0.24875c0,0 0,-0.59375 -0.9425,-1.88248c0,0 -1.53751,-3.91626 0.595,-4.63501c0,0 2.84875,-1.19 3.91501,3.66751c0,0 0,0.9675 1.4375,0.24875c0,0 2.23123,-0.595 -0.2475,-2.60251c0,0 -3.19626,-2.72626 -1.66,-4.85751c0,0 2.00626,-1.56125 3.19748,0c0,0 1.3125,2.60251 2.25375,2.72626c0,0 1.43875,-0.2475 1.43875,-1.19c0,0 -0.125,-1.06625 -1.56125,-1.53625c0,0 -3.07373,-1.56125 -1.88373,-3.44498c0,0 1.65991,-1.785 3.44498,-0.71875c0,0 1.065,0.595 1.28876,1.065c0,0 0.71875,1.06622 2.0325,0c0,0 2.35376,-1.19 4.01501,0.12375c0,0 2.0325,0.94247 2.72623,0.22372c0,0 2.15625,-1.53748 2.97375,-0.94122c0,0 0.69376,0.2475 1.18994,0.74249c0.59375,0.595 0.96631,1.48749 -0.24875,2.70123c0,0 -2.47751,0 -2.72501,1.66125" stroke-miterlimit="4" stroke-width="0.1" stroke="#373535" fill="none"/>
      </g>
      <g id="g348">
       <path id="path350" d="m415.07938,349.03503c-4.51123,0.39624 -4.60999,-4.60999 -4.60999,-4.60999c0,-4.28751 4.38623,-4.16376 4.38623,-4.16376c0,0 3.32251,-0.12375 4.73376,3.32123c0,0 1.06625,4.98126 -4.51001,5.45251z" stroke-miterlimit="4" stroke-width="0.1" stroke="#373535" fill="none"/>
      </g>
      <g id="g352">
       <path id="path354" d="m415.67386,350.94363c-7.23749,0.94125 -6.86499,-6.41998 -6.86499,-6.41998c-0.2475,-4.98126 4.48624,-6.64127 4.48624,-6.64127c0,0 3.22125,-1.28876 6.64127,2.37875c0,0 5.30374,9.41876 -4.26251,10.6825z" stroke-miterlimit="4" stroke-width="0.1" stroke="#373535" fill="none"/>
      </g>
      <g id="g356">
       <path id="path358" d="m425.7605,346.4325c-1.31375,6.29501 -5.82376,8.07999 -5.82376,8.07999c-2.00873,1.76001 -7.93124,0.8175 -7.93124,0.8175c-7.01373,-2.255 -7.48499,-8.64999 -7.48499,-8.64999c-1.28751,-5.82376 3.19623,-10.5575 3.19623,-10.5575c0,0 3.09875,-3.09875 6.29752,-2.85001c0,0 5.82376,0.47 8.17874,3.19626c0,0 4.75751,4.26373 3.5675,9.96375z" stroke-miterlimit="4" stroke-width="0.1" stroke="#373535" fill="none"/>
      </g>
      <g id="g360">
       <path id="path362" d="m448.19089,348.81165c-1.9075,-0.17374 -2.1575,-3.91626 -2.1575,-3.91626c-0.56876,-2.5025 1.66251,-4.50998 1.66251,-4.50998c0,0 2.37872,-1.31375 2.84998,1.065c0,0 1.785,7.70874 -2.35498,7.36124z" stroke-miterlimit="4" stroke-width="0.1" stroke="#373535" fill="none"/>
      </g>
      <g id="g364">
       <path id="path366" d="m447.94312,350.59637c-4.63501,-1.66122 -3.79251,-6.88998 -3.79251,-6.88998c0,-2.60251 3.19751,-4.98251 3.19751,-4.98251c0,0 3.32126,-0.84125 4.04001,2.00876c0,0 2.60248,6.17126 -1.19,9.14499c0,0 -1.16501,1.09003 -2.255,0.71875z" stroke-miterlimit="4" stroke-width="0.1" stroke="#373535" fill="none"/>
      </g>
      <g id="g368">
       <path id="path370" d="m453.74265,347.32492c-0.29752,2.70123 -1.14001,5.67624 -3.42001,6.69247c-2.85126,1.28751 -4.63501,-1.16623 -4.63501,-1.16623c-0.79248,-0.39627 -1.46249,-0.89127 -1.98248,-1.4375c-3.1225,-3.0975 -2.15625,-7.83127 -2.15625,-7.83127c0.2225,-5.57623 4.38626,-8.77374 4.38626,-8.77374c0,0 1.66122,-0.71875 2.13123,-0.47125c0,0 0.17383,0.04999 0.44629,0.14874l0,0.02502c0.0488,0 0.10004,0.02499 0.14996,0.04999c1.26251,0.51999 4.16376,2.08124 4.93127,5.45248c0.02374,0.07376 0.02374,0.14877 0.04999,0.24753c0.12375,0.59497 0.17374,1.26373 0.12375,2.00748c0,0 0.27124,2.40375 -0.02499,5.05627z" stroke-miterlimit="4" stroke-width="0.1" stroke="#373535" fill="none"/>
      </g>
     </g>
    </g>
    <g id="g372">
     <g clip-path="url(#clipPath376)" id="g374">
      <g id="g380"/>
      <g id="g390">
       <g id="g392" clip-path="url(#clipPath382)">
        <g id="g394"/>
        <g id="g396">
         <g id="g398" clip-path="url(#clipPath386)">
          <path id="path400" d="m411.83224,472.33701c3.02374,-0.05002 2.5025,1.785 2.5025,1.785c-0.02502,0.84247 -0.54501,0.51999 -1.11502,0.76749c-0.9425,0.44623 -1.95749,-0.09872 -1.95749,-0.09872l-0.22375,7.1875c2.62753,-0.27252 2.60251,0.66998 2.60251,0.66998c-0.12378,1.53625 -1.11502,1.85751 -1.11502,1.85751l-12.26874,-0.04874c-0.59372,-0.19879 -2.67624,-2.15628 -2.67624,-2.15628c-2.47876,-1.785 -1.9325,-4.26248 -1.9325,-4.26248c0.17249,-3.495 6.02124,-5.35376 6.02124,-5.35376l10.16251,-0.3475zm-10.98001,8.10501c0,0 0.47125,1.48624 2.28,1.73499l3.42001,0.22247l-0.19748,-7.50998l-4.16379,0c0,0 -1.98251,1.68625 -2.03247,3.56876c0,0 -0.02377,1.4375 0.69373,1.98376" fill-rule="nonzero" fill="#373535"/>
          <path id="path402" d="m499.32126,329.23212c0.495,1.26373 -0.57001,2.0575 -0.57001,2.0575c-0.76877,0.14874 -1.66125,-0.79376 -1.66125,-0.79376c-0.49625,-0.59503 -1.04001,-0.14871 -1.04001,-0.14871c-0.34872,0.27243 -1.785,1.43747 -1.785,1.43747c-1.38748,1.73505 -4.51001,0.9425 -4.51001,0.9425c-2.05872,-0.44623 -4.33746,-4.01624 -4.33746,-4.01624c-2.00751,-3.27127 -1.51251,-6.0463 -1.51251,-6.0463c-0.04999,-1.85876 4.68375,-4.58496 4.68375,-4.58496c0.49634,-0.14999 -0.61868,-1.93378 -0.61868,-1.93378c-0.34625,-0.79373 1.215,-1.33871 1.215,-1.33871c1.51126,-0.39627 2.57623,2.10748 2.57623,2.10748c0.32251,0.6687 2.33002,4.28748 2.33002,4.28748c0.22247,0.89249 -0.44626,1.33752 -0.44626,1.33752c-0.57001,0.12497 -2.0575,-1.065 -2.0575,-1.065c-0.22247,-0.27252 -1.16382,0 -1.16382,0c-0.52124,0.07501 -1.95874,1.46249 -1.95874,1.46249c-1.65994,1.16501 -1.16373,3.39499 -1.16373,3.39499c0.32248,1.21497 2.60123,3.0488 2.60123,3.0488c1.95752,1.78372 4.36255,-0.76877 4.36255,-0.76877c0.81754,-0.22253 0.44629,-1.88254 0.44629,-1.88254c-0.52002,-1.68625 0.98999,-1.85995 0.98999,-1.85995c1.06619,0.12375 3.62,4.36249 3.62,4.36249" fill-rule="nonzero" fill="#373535"/>
          <path id="path404" d="m494.78513,425.495c0,0 0.76874,0.86749 -0.02502,1.9075c0,0 -2.52747,3.29752 -2.92374,4.58627c0,0 -1.06625,0.86749 -1.86002,0.56873c0,0 -1.41248,-0.8175 -0.29623,-2.65125c0,0 -3.27127,-2.60251 -4.36249,-2.99875c0,0 -0.61874,0.37125 -0.84253,0.76874c0,0 -0.89249,0.94128 -1.80875,0.595c0,0 -0.89249,-1.215 -0.05002,-2.10748l2.75128,-4.73373c0,0 1.26373,-1.26379 1.93375,-1.16501c0,0 1.23877,0.34747 0.22125,2.45374c0,0 -0.2475,0.19751 0.17377,0.57001l4.13998,2.77631c0,0 0.39627,0.02496 0.91623,-0.32251c0,0 1.51251,-0.8175 2.03253,-0.24756" fill-rule="nonzero" fill="#373535"/>
          <path id="path406" d="m407.89188,277.01172c0.14752,-1.28876 -1.11624,-2.15622 -1.11624,-2.15622c-2.23001,-1.46255 -6.36874,-0.69376 -6.36874,-0.69376c0,0 -3.29626,1.23871 -2.05753,3.94c0,0 0.37128,2.7262 5.50253,2.25623c0,0 3.54498,0.34622 4.03998,-3.34625m3.81628,-1.66122c1.28873,2.1312 -0.84253,4.26376 -0.84253,4.26376c-1.56125,1.43747 -0.86749,1.98248 -0.86749,1.98248c1.58627,-0.27249 2.28,0.29749 2.28,0.29749c0,0.84253 -1.71002,2.40372 -1.71002,2.40372c-1.56125,1.14005 -6.81625,0.44632 -6.81625,0.44632c-0.27121,-0.57007 -0.84122,-0.9913 -0.84122,-0.9913c-6.1225,-0.86752 -7.68375,-4.28748 -7.68375,-4.28748c-2.13126,-2.18124 0,-4.93246 0,-4.93246c2.70123,-3.44507 6.815,-3.2963 6.815,-3.2963l2.28122,-0.14877c3.84128,0.14877 7.38504,4.26254 7.38504,4.26254" fill-rule="nonzero" fill="#373535"/>
          <path id="path408" d="m326.87137,430.0549c0.34628,2.10751 -0.44623,2.4537 -0.44623,2.4537c-0.64499,0.29752 -1.56125,-0.44623 -1.56125,-0.44623c-0.2475,-0.42126 -0.79376,-0.8175 -0.79376,-0.8175c-0.2475,0.42126 -4.1875,2.70129 -4.1875,2.70129c-0.14877,0.19748 -0.14877,2.00748 -0.14877,2.00748c-0.19873,1.48749 -1.23996,1.28876 -1.23996,1.28876c-1.61127,-0.09879 -3.04877,-4.535 -3.04877,-4.535c-0.14749,-0.84375 0.74374,-8.45251 0.74374,-8.45251c-0.29749,0.05002 -2.30499,1.36374 -2.30499,1.36374c-0.14874,0.34753 0.54501,0.79251 0.54501,0.79251c0.34747,1.09128 -0.49503,1.90875 -0.49503,1.90875c-0.74374,0.54501 -1.83374,-0.52002 -1.83374,-0.52002c-0.24875,-2.03247 -2.6525,-3.39621 -2.6525,-3.39621c-1.09003,-3.44376 2.13126,-2.13129 2.13126,-2.13129c0.27249,0.59503 1.41248,0.9425 1.41248,0.9425c0.44626,0.04874 4.19,-2.75125 4.19,-2.75125c1.51126,-1.785 3.44376,-0.79373 3.44376,-0.79373c0.39752,1.33875 -0.495,6.24625 -0.495,6.24625c-0.44626,1.58627 -0.49625,4.78375 -0.49625,4.78375c0.44623,0 2.89999,-1.73627 2.89999,-1.73627c-0.09875,-2.25497 1.23874,-2.00748 1.23874,-2.00748c1.41379,-0.34622 3.09869,3.09875 3.09869,3.09875" fill-rule="nonzero" fill="#373535"/>
          <path id="path410" d="m322.83139,326.828c0.54498,0.67001 0.09875,1.95746 0.09875,1.95746c-1.11499,0.79376 -3.34625,4.28882 -3.34625,4.28882c-0.69376,1.11493 -1.80875,0.64374 -1.80875,0.64374c-0.69376,-0.29755 -0.44626,-1.98248 -0.44626,-1.98248c0.14877,-0.59503 0,-0.94254 0,-0.94254l-3.98999,-2.99875c-0.49625,-0.2475 -0.595,0.04999 -0.595,0.04999c-1.66,1.63629 -2.40375,0.59503 -2.40375,0.59503c-0.29752,-0.59503 0.44623,-2.20627 0.44623,-2.20627l3.54376,-4.18878c0.54501,-1.08994 2.00751,-0.64371 2.00751,-0.64371c0.64499,0.74371 0.04999,1.88373 0.04999,1.88373c-0.29749,0.34628 -0.44623,1.06628 -0.44623,1.06628c0.74374,0.89127 4.28748,3.09744 4.28748,3.09744c1.33878,-1.66122 2.60251,-0.61996 2.60251,-0.61996" fill-rule="nonzero" fill="#373535"/>
         </g>
        </g>
       </g>
      </g>
      <g id="g412">
       <path id="path414" d="m407.89188,277.01172c-0.495,3.6925 -4.03998,3.34625 -4.03998,3.34625c-5.13126,0.47 -5.5025,-2.25626 -5.5025,-2.25626c-1.23877,-2.70123 2.0575,-3.94 2.0575,-3.94c0,0 4.13873,-0.76874 6.36874,0.69376c0,0 1.26376,0.86749 1.11624,2.15625z" stroke-miterlimit="4" stroke-width="0.1" stroke="#373535" fill="none"/>
      </g>
      <g id="g416">
       <path id="path418" d="m402.04224,271.23663c0,0 -4.11374,-0.14874 -6.815,3.29626c0,0 -2.13126,2.75125 0,4.9325c0,0 1.56125,3.42001 7.6825,4.28751c0,0 0.57001,0.42126 0.8425,0.99124c0,0 5.25375,0.69376 6.815,-0.44623c0,0 1.70999,-1.56128 1.70999,-2.40378c0,0 -0.69247,-0.56998 -2.28,-0.29749c0,0 -0.69247,-0.54501 0.86877,-1.98251c0,0 2.13123,-2.13123 0.84125,-4.26248c0,0 -3.54376,-4.11502 -7.38501,-4.26376l-2.28,0.14874z" stroke-miterlimit="4" stroke-width="0.1" stroke="#373535" fill="none"/>
      </g>
      <g id="g420">
       <path id="path422" d="m314.33051,322.04462l-3.54376,4.18872c0,0 -0.74374,1.61127 -0.44623,2.20627c0,0 0.74249,1.04001 2.40375,-0.595c0,0 0.09872,-0.29752 0.595,-0.05002l3.98999,2.99878c0,0 0.14874,0.34747 0,0.94122c0,0 -0.2475,1.68625 0.44626,1.98376c0,0 1.11499,0.47 1.80875,-0.64499c0,0 2.23123,-3.49377 3.34625,-4.28751c0,0 0.44623,-1.28876 -0.09875,-1.95752c0,0 -1.2637,-1.04123 -2.60251,0.61877c0,0 -3.54498,-2.20508 -4.28751,-3.0975c0,0 0.14877,-0.71875 0.44626,-1.06625c0,0 0.595,-1.13876 -0.04999,-1.88376c0,0 -1.46252,-0.44626 -2.00751,0.64502z" stroke-miterlimit="4" stroke-width="0.1" stroke="#373535" fill="none"/>
      </g>
      <g id="g424">
       <path id="path426" d="m311.57901,422.27301c0,0 -3.22101,-1.314 -2.13101,2.13098c0,0 2.40399,1.36301 2.65201,3.39502c0,0 1.09,1.06598 1.83398,0.521c0,0 0.84201,-0.81702 0.495,-1.90802c0,0 -0.694,-0.44699 -0.54498,-0.793c0,0 2.008,-1.315 2.30499,-1.36398c0,0 -0.89099,7.60901 -0.74399,8.452c0,0 1.43799,4.436 3.04898,4.53601c0,0 1.04102,0.19699 1.23901,-1.289c0,0 0,-1.81 0.14999,-2.009c0,0 3.94,-2.27802 4.18701,-2.70102c0,0 0.54599,0.39801 0.79401,0.819c0,0 0.91599,0.74402 1.56097,0.44501c0,0 0.793,-0.34601 0.44601,-2.453c0,0 -1.685,-3.44501 -3.09799,-3.09799c0,0 -1.33801,-0.24799 -1.23901,2.00699c0,0 -2.45401,1.73502 -2.89999,1.73502c0,0 0.04999,-3.19601 0.496,-4.78201c0,0 0.89301,-4.90799 0.495,-6.246c0,0 -1.93201,-0.992 -3.44501,0.79202c0,0 -3.742,2.80099 -4.18799,2.75098c0,0 -1.14001,-0.34598 -1.41299,-0.94098l0,0l0,0z" stroke-miterlimit="4" stroke-width="0.1" stroke="#373535" fill="none"/>
      </g>
      <g id="g428">
       <path id="path430" d="m401.66989,472.68436c0,0 -5.84875,1.85876 -6.02127,5.35376c0,0 -0.54623,2.47751 1.93253,4.26251c0,0 2.08249,1.95749 2.67624,2.15625l12.26874,0.04999c0,0 0.99127,-0.32251 1.11502,-1.85876c0,0 0.02499,-0.94247 -2.60251,-0.66998l0.22375,-7.1875c0,0 1.01498,0.54623 1.95749,0.10001c0.57001,-0.24875 1.09,0.07373 1.11499,-0.76877c0,0 0.52127,-1.83374 -2.50247,-1.78494l-10.16251,0.34744z" stroke-miterlimit="4" stroke-width="0.1" stroke="#373535" fill="none"/>
      </g>
      <g id="g432">
       <path id="path434" d="m402.19113,474.89014c0,0 -1.98251,1.685 -2.0325,3.56876c0,0 -0.02499,1.4375 0.69376,1.98248c0,0 0.47125,1.48752 2.28,1.73502l3.41998,0.22375l-0.19748,-7.51001l-4.16376,0z" stroke-miterlimit="4" stroke-width="0.1" stroke="#373535" fill="none"/>
      </g>
      <g id="g436">
       <path id="path438" d="m482.616,426.164l2.75125,-4.73373c0,0 1.26376,-1.26376 1.93375,-1.16501c0,0 1.23877,0.3475 0.2225,2.45377c0,0 -0.2475,0.19748 0.17252,0.57001l4.13998,2.77625c0,0 0.39627,0.02374 0.91626,-0.32251c0,0 1.51251,-0.81744 2.0325,-0.2475c0,0 0.76999,0.86749 -0.02374,1.9075c0,0 -2.52875,3.29623 -2.92502,4.58624c0,0 -1.06625,0.86749 -1.85873,0.56876c0,0 -1.41251,-0.8175 -0.29752,-2.65125c0,0 -3.27124,-2.60251 -4.36249,-2.99875c0,0 -0.61874,0.37125 -0.8425,0.76749c0,0 -0.89252,0.9425 -1.80875,0.59625c0,0 -0.89252,-1.215 -0.05002,-2.10751z" stroke-miterlimit="4" stroke-width="0.1" stroke="#373535" fill="none"/>
      </g>
      <g id="g440">
       <path id="path442" d="m488.58899,318.07901c0,0 -4.73398,2.72598 -4.68399,4.58499c0,0 -0.496,2.776 1.513,6.048c0,0 2.27802,3.56799 4.33701,4.01498c0,0 3.12299,0.793 4.51001,-0.94199c0,0 1.43597,-1.16501 1.78497,-1.43802c0,0 0.54401,-0.44498 1.04001,0.15002c0,0 0.89301,0.94098 1.66101,0.79199c0,0 1.065,-0.79199 0.57001,-2.05701c0,0 -2.55301,-4.23801 -3.62003,-4.362c0,0 -1.51099,0.17401 -0.991,1.85901c0,0 0.37302,1.66 -0.44498,1.884c0,0 -2.40503,2.552 -4.362,0.76898c0,0 -2.27902,-1.83499 -2.60202,-3.04898c0,0 -0.496,-2.23102 1.164,-3.396c0,0 1.43802,-1.388 1.95901,-1.46301c0,0 0.94098,-0.272 1.164,0c0,0 1.487,1.19 2.05698,1.06601c0,0 0.66901,-0.44601 0.44601,-1.33801c0,0 -2.00699,-3.61798 -2.33002,-4.28799c0,0 -1.06497,-2.504 -2.57599,-2.10599c0,0 -1.561,0.54498 -1.215,1.33899c0,0 1.11401,1.78299 0.61899,1.93201l0,0l0,0z" stroke-miterlimit="4" stroke-width="0.1" stroke="#373535" fill="none"/>
      </g>
      <path id="path444" d="m233.79886,541.81891l2.1875,-0.0163c0.79752,0 1.52625,-0.09875 2.18752,-0.29871c0.65875,-0.20001 1.22499,-0.49249 1.69749,-0.88129c0.47125,-0.38873 0.83749,-0.86377 1.0925,-1.43121c0.25874,-0.56628 0.38625,-1.21124 0.38625,-1.93256c0,-0.57867 -0.08751,-1.12122 -0.26624,-1.62994c-0.17876,-0.50751 -0.47252,-0.95502 -0.88126,-1.33881c-0.41,-0.38123 -0.94753,-0.68622 -1.61252,-0.91119c-0.6675,-0.22626 -1.49124,-0.33624 -2.47874,-0.33624l-2.3125,0l0,8.77625zm0,3.16119l0,9.53503l-4.32623,0l0,-24.65375l7.00125,0c1.56374,0 2.91875,0.18372 4.06749,0.55127c1.14749,0.36871 2.09999,0.87372 2.85501,1.51746c0.75374,0.64752 1.31624,1.41504 1.68123,2.3075c0.36626,0.88879 0.55127,1.86249 0.55127,2.91003c0,0.40747 -0.05124,0.88501 -0.15625,1.4325c-0.10503,0.54376 -0.28876,1.10748 -0.55251,1.68878c-0.26125,0.58496 -0.6225,1.15497 -1.08252,1.71619c-0.46249,0.56128 -1.05373,1.06378 -1.77124,1.51129c-0.7175,0.44501 -1.57875,0.80127 -2.57999,1.07495c-1.0025,0.2738 -2.17877,0.40875 -3.53001,0.40875l-2.1575,0z" fill-rule="nonzero" fill="#373535"/>
      <path id="path446" d="m249.24875,554.51624l4.32625,0l0,-24.65497l-4.32625,0l0,24.65497z" fill-rule="nonzero" fill="#373535"/>
      <path id="path448" d="m272.26437,533.05664l-9.64502,0l0,6.7475l7.67752,0l0,3.17999l-7.67752,0l0,8.33624l10.05377,0l0,3.19501l-14.38,0l0,-24.65503l13.97125,0l0,3.19629z" fill-rule="nonzero" fill="#373535"/>
      <path id="path450" d="m280.776,541.15997c0.327,0.04102 0.65399,0.06805 0.98999,0.07703c0.33701,0.00897 0.67801,0.01501 1.022,0.01501c0.862,0 1.633,-0.10004 2.315,-0.29901c0.67999,-0.19598 1.25699,-0.487 1.73102,-0.862c0.47098,-0.37903 0.83099,-0.83801 1.07599,-1.37903c0.246,-0.539 0.37,-1.151 0.37,-1.83099c0,-0.68298 -0.082,-1.26599 -0.25101,-1.74597c-0.16998,-0.48401 -0.461,-0.88 -0.88098,-1.19c-0.42001,-0.31201 -0.983,-0.53802 -1.69302,-0.685c-0.70599,-0.14502 -1.59998,-0.21802 -2.681,-0.21802l-1.99799,0l0,8.11798zm-0.017,13.35602l-4.31,0l0,-24.65497l6.98401,0c1.57599,0 2.93298,0.16095 4.077,0.47595c1.14398,0.31305 2.09,0.76404 2.83798,1.35004c0.75101,0.58899 1.30701,1.30096 1.67001,2.138c0.35999,0.841 0.54099,1.78998 0.54099,2.84998c0,0.69202 -0.08798,1.40204 -0.258,2.13104c-0.17499,0.72998 -0.47998,1.42395 -0.91299,2.086c-0.435,0.659 -1.02701,1.263 -1.76999,1.80597c-0.74402,0.54901 -1.68903,0.98798 -2.83301,1.323l7.505,10.495l-4.862,0l-6.59302,-10.08496c-0.26099,0 -0.561,-0.00604 -0.89499,-0.01605c-0.33499,-0.00897 -0.724,-0.05298 -1.164,-0.125l-0.017,10.22601l0,0z" fill-rule="nonzero" fill="#373535"/>
      <path id="path452" d="m301.41599,541.15961c0.32751,0.04126 0.65628,0.06879 0.99252,0.07751c0.33374,0.00873 0.67624,0.01501 1.02124,0.01501c0.86127,0 1.63251,-0.10004 2.3125,-0.29877c0.6825,-0.19623 1.26001,-0.48749 1.73248,-0.86249c0.47125,-0.37872 0.83127,-0.83752 1.07501,-1.37878c0.2475,-0.5387 0.37125,-1.15118 0.37125,-1.83124c0,-0.6825 -0.08374,-1.26624 -0.25122,-1.74622c-0.17001,-0.48376 -0.46002,-0.88 -0.88126,-1.19c-0.42001,-0.31128 -0.98376,-0.53754 -1.6925,-0.685c-0.70502,-0.14502 -1.60126,-0.21753 -2.67999,-0.21753l-2.00003,0l0,8.11749zm-0.01498,13.35626l-4.31,0l0,-24.65497l6.98373,0c1.57376,0 2.93253,0.16119 4.07626,0.47626c1.14249,0.3125 2.09,0.76373 2.83875,1.34998c0.74875,0.58875 1.30499,1.30127 1.66748,2.13751c0.36127,0.84125 0.54251,1.78998 0.54251,2.85004c0,0.69244 -0.08749,1.40247 -0.25873,2.13123c-0.17374,0.72998 -0.47876,1.42371 -0.91251,2.08624c-0.435,0.65875 -1.02625,1.26251 -1.77127,1.80627c-0.74249,0.54871 -1.68747,0.98743 -2.83124,1.32245l7.505,10.495l-4.86252,0l-6.59247,-10.08496c-0.26251,0 -0.56125,-0.00629 -0.89502,-0.0163c-0.33624,-0.00873 -0.7225,-0.05249 -1.16501,-0.125l-0.01498,10.22626z" fill-rule="nonzero" fill="#373535"/>
      <path id="path454" d="m331.70053,533.05664l-9.64377,0l0,6.7475l7.67877,0l0,3.17999l-7.67877,0l0,8.33624l10.05377,0l0,3.19501l-14.38004,0l0,-24.65503l13.97003,0l0,3.19629z" fill-rule="nonzero" fill="#373535"/>
      <path id="path456" d="m340.21237,541.81891l2.18625,-0.0163c0.79874,0 1.52625,-0.09875 2.1875,-0.29871c0.66,-0.20001 1.22501,-0.49249 1.69873,-0.88129c0.47125,-0.38873 0.83502,-0.86377 1.0925,-1.43121c0.25751,-0.56628 0.38626,-1.21124 0.38626,-1.93256c0,-0.57867 -0.08875,-1.12122 -0.26752,-1.62994c-0.17749,-0.50751 -0.47247,-0.95502 -0.88123,-1.33881c-0.40875,-0.38123 -0.94748,-0.68622 -1.61124,-0.91119c-0.66751,-0.22626 -1.4913,-0.33624 -2.47876,-0.33624l-2.3125,0l0,8.77625zm0,3.16119l0,9.53503l-4.32626,0l0,-24.65375l7.00122,0c1.56128,0 2.91626,0.18372 4.06757,0.55127c1.14624,0.36871 2.09872,0.87372 2.85498,1.51746c0.755,0.64752 1.31622,1.41504 1.68246,2.3075c0.36627,0.88879 0.55127,1.86249 0.55127,2.91003c0,0.40747 -0.05249,0.88501 -0.15872,1.4325c-0.10501,0.54376 -0.28751,1.10748 -0.55127,1.68878c-0.26126,0.58496 -0.62253,1.15497 -1.08502,1.71619c-0.45996,0.56128 -1.05124,1.06378 -1.76996,1.51129c-0.71753,0.44501 -1.57751,0.80127 -2.58127,1.07495c-0.99875,0.2738 -2.17624,0.40875 -3.53,0.40875l-2.155,0z" fill-rule="nonzero" fill="#373535"/>
      <path id="path458" d="m373.20313,542.06915c0,-1.41376 -0.15625,-2.70129 -0.46375,-3.86005c-0.31,-1.15875 -0.75375,-2.15375 -1.33002,-2.9812c-0.57748,-0.8288 -1.27496,-1.47125 -2.0925,-1.92755c-0.81747,-0.45746 -1.73502,-0.685 -2.75375,-0.685c-0.995,0 -1.90625,0.21503 -2.72873,0.64374c-0.82254,0.43005 -1.5325,1.04877 -2.12503,1.85004c-0.59247,0.80371 -1.05371,1.77252 -1.38498,2.90375c-0.32877,1.13373 -0.49249,2.39624 -0.49249,3.78998c0,1.41626 0.13748,2.72626 0.41623,3.92627c0.27753,1.20001 0.69254,2.24249 1.24252,3.12122c0.55127,0.88251 1.23248,1.56879 2.05124,2.06378c0.82001,0.49249 1.76376,0.73749 2.83374,0.73749c1.07004,0 2.02499,-0.26495 2.87125,-0.7937c0.84378,-0.53131 1.56003,-1.23877 2.14627,-2.12378c0.58624,-0.88751 1.03625,-1.90503 1.34625,-3.06c0.3075,-1.15503 0.46375,-2.35626 0.46375,-3.60498m4.5625,-0.3913c0,1.23627 -0.12375,2.42749 -0.36874,3.57129c-0.2475,1.14252 -0.60501,2.21124 -1.06876,3.20001c-0.47,0.99371 -1.03748,1.88995 -1.69998,2.70001c-0.66876,0.80872 -1.41751,1.49994 -2.25128,2.07617c-0.83249,0.57629 -1.74246,1.02252 -2.72873,1.33752c-0.98752,0.315 -2.03497,0.47003 -3.14752,0.47003c-1.78122,0 -3.37,-0.31628 -4.76001,-0.9425c-1.38748,-0.63129 -2.56372,-1.5163 -3.52249,-2.65875c-0.95999,-1.14252 -1.69125,-2.51373 -2.19498,-4.11499c-0.5025,-1.60004 -0.755,-3.36877 -0.755,-5.30878c0,-1.86749 0.26248,-3.58124 0.78757,-5.14374c0.52243,-1.565 1.27368,-2.91125 2.24747,-4.04626c0.97626,-1.13123 2.16504,-2.01251 3.56503,-2.64124c1.39993,-0.63129 2.97501,-0.94501 4.72748,-0.94501c1.63629,0 3.13751,0.28876 4.50626,0.85876c1.36877,0.57251 2.54501,1.39124 3.5325,2.46375c0.98624,1.06873 1.7562,2.375 2.30252,3.91626c0.55374,1.54248 0.82874,3.27997 0.82874,5.20746" fill-rule="nonzero" fill="#373535"/>
      <path id="path460" d="m386.18411,536.86401l0,17.65125l-4.32999,0l0,-24.65497l4.0925,0l10.47626,17.73248l0,-17.73248l4.32498,0l0.0625,24.65497l-4.08875,0l-10.53751,-17.65125z" fill-rule="nonzero" fill="#373535"/>
      <path id="path462" d="m423.103,533.04199l-7.57874,0l0,21.47375l-4.32877,0l0,-21.47375l-7.565,0l0,-3.18127l19.4725,0l0,3.18127z" fill-rule="nonzero" fill="#373535"/>
      <path id="path464" d="m445.30273,548.39728c0.55753,0.57623 1.04999,1.0625 1.48624,1.45996c0.43378,0.40002 0.8725,0.72253 1.30502,0.96875c0.43875,0.2475 0.90375,0.42377 1.40125,0.53503c0.4975,0.10999 1.09375,0.16498 1.78622,0.16498c0.53375,0 1.05624,-0.05499 1.56503,-0.16498c0.50751,-0.11127 0.96124,-0.29755 1.36124,-0.55878c0.39752,-0.26123 0.7175,-0.61499 0.96127,-1.05499c0.23874,-0.44 0.35999,-0.99127 0.35999,-1.65125c0,-0.45001 -0.09125,-0.84998 -0.26877,-1.19501c-0.17621,-0.34753 -0.44623,-0.66498 -0.80249,-0.95874c-0.35498,-0.29376 -0.79874,-0.57751 -1.33624,-0.85248c-0.53375,-0.27002 -1.15375,-0.55878 -1.85501,-0.86377c-0.24124,-0.10376 -0.46249,-0.19751 -0.66251,-0.28253c-0.20001,-0.08496 -0.38748,-0.16626 -0.5675,-0.2525c-0.17624,-0.08496 -0.35373,-0.1637 -0.5325,-0.24371c-0.17749,-0.07751 -0.36746,-0.16504 -0.56625,-0.25873c-0.41248,-0.18878 -0.84998,-0.39001 -1.31998,-0.60504c-0.47626,-0.21497 -0.9425,-0.46747 -1.40875,-0.75623c-0.46747,-0.28625 -0.91998,-0.6225 -1.35376,-1c-0.43625,-0.37628 -0.81873,-0.8175 -1.14996,-1.32001c-0.32877,-0.50378 -0.59503,-1.08124 -0.79376,-1.73126c-0.20001,-0.65125 -0.29999,-1.38873 -0.29999,-2.21625c0,-1.08374 0.23624,-2.02252 0.70999,-2.8175c0.47122,-0.79749 1.09747,-1.45502 1.88,-1.97498c0.78122,-0.5188 1.67499,-0.90875 2.67996,-1.16376c1.00629,-0.25751 2.04251,-0.38751 3.09875,-0.38751c0.80002,0 1.54877,0.05878 2.2525,0.16748c0.70126,0.10999 1.37,0.28503 2.005,0.52625c0.63501,0.24249 1.24368,0.55127 1.83377,0.92877c0.58875,0.37872 1.17249,0.82874 1.76123,1.35254l-2.40622,3.19495c-0.42004,-0.43121 -0.81885,-0.81873 -1.1951,-1.16498c-0.37744,-0.34625 -0.77121,-0.64001 -1.17499,-0.88123c-0.40378,-0.24249 -0.845,-0.42505 -1.32123,-0.54883c-0.47879,-0.12744 -1.01877,-0.18994 -1.6275,-0.18994c-0.46243,0 -0.93118,0.0462 -1.40625,0.14124c-0.47754,0.09503 -0.91119,0.24872 -1.30002,0.46375c-0.38876,0.21497 -0.70499,0.49127 -0.95242,0.83252c-0.24509,0.34125 -0.36877,0.75745 -0.36877,1.2525c0,0.58624 0.16376,1.11121 0.48874,1.57874c0.32376,0.46753 0.71875,0.87872 1.17999,1.23499c0.46002,0.35999 0.94754,0.66376 1.45502,0.91498c0.50751,0.25128 0.94626,0.45502 1.31378,0.61255c0.3237,0.14746 0.59998,0.27124 0.82623,0.36871c0.22369,0.10004 0.44748,0.19629 0.66867,0.29254c0.22,0.09497 0.45877,0.19373 0.71506,0.30121c0.25629,0.10254 0.57877,0.23755 0.96625,0.40631c0.30627,0.12494 0.64502,0.27997 1.02252,0.46375c0.37872,0.18372 0.76251,0.40497 1.15872,0.65997c0.39005,0.25751 0.77628,0.56128 1.15378,0.91376c0.3775,0.35126 0.71375,0.76495 1.00494,1.23499c0.29755,0.47253 0.5325,1.01373 0.71124,1.62c0.17874,0.60626 0.26999,1.29999 0.26999,2.07751c0,0.78497 -0.12,1.505 -0.35867,2.15375c-0.23376,0.65125 -0.56006,1.23499 -0.97375,1.74622c-0.41373,0.51508 -0.90625,0.96503 -1.4725,1.34753c-0.565,0.38123 -1.17374,0.69751 -1.82498,0.9425c-0.64877,0.2475 -1.32877,0.4325 -2.03503,0.55627c-0.70874,0.12744 -1.41873,0.19122 -2.13251,0.19122c-0.97498,0 -1.87872,-0.07874 -2.70621,-0.23627c-0.82751,-0.15625 -1.60876,-0.38873 -2.34253,-0.69873c-0.73624,-0.30878 -1.43124,-0.69373 -2.08621,-1.15125c-0.65503,-0.45502 -1.28754,-0.98126 -1.89502,-1.57874l3.11499,-2.84625z" fill-rule="nonzero" fill="#373535"/>
      <path id="path466" d="m482.87,550.961c-0.71298,0.849 -1.388,1.53302 -2.03,2.05103c-0.63901,0.521 -1.29099,0.927 -1.95801,1.21997c-0.66599,0.29199 -1.36697,0.492 -2.108,0.591c-0.73898,0.09998 -1.57199,0.146 -2.49197,0.146c-1.74103,0 -3.27002,-0.33997 -4.586,-1.026c-1.31702,-0.68896 -2.42001,-1.62097 -3.30502,-2.79498c-0.88599,-1.17401 -1.552,-2.54401 -1.996,-4.10602c-0.44598,-1.56299 -0.67099,-3.21997 -0.67099,-4.97302c0,-1.09796 0.09201,-2.18298 0.276,-3.25598c0.185,-1.06799 0.46399,-2.07898 0.84201,-3.026c0.379,-0.94897 0.85699,-1.82599 1.44,-2.62799c0.57999,-0.80298 1.27298,-1.49701 2.07898,-2.08301c0.79901,-0.58899 1.711,-1.04498 2.73502,-1.36902c1.01999,-0.32794 2.164,-0.49097 3.42099,-0.49097c0.75699,0 1.47202,0.05103 2.14899,0.14197c0.67401,0.09601 1.31601,0.24603 1.91803,0.45801c0.60498,0.211 1.18198,0.49402 1.73798,0.85004c0.55701,0.35498 1.09702,0.78998 1.62201,1.30597l-2.37701,2.94c-0.38699,-0.409 -0.77298,-0.75897 -1.15598,-1.05298c-0.38202,-0.29303 -0.77902,-0.53699 -1.186,-0.72601c-0.41299,-0.18701 -0.84,-0.323 -1.29401,-0.40601c-0.44901,-0.08398 -0.944,-0.12598 -1.474,-0.12598c-1.07101,0 -1.995,0.242 -2.76999,0.73199c-0.77701,0.48499 -1.418,1.13397 -1.922,1.94c-0.50403,0.81 -0.875,1.73297 -1.11502,2.77002c-0.24298,1.03998 -0.36099,2.11395 -0.36099,3.22595c0,1.45502 0.142,2.81201 0.42999,4.06702c0.28799,1.25201 0.69501,2.34503 1.22,3.271c0.52499,0.92999 1.155,1.65698 1.888,2.18701c0.73401,0.53198 1.552,0.79498 2.45502,0.79498c0.797,0 1.47998,-0.07098 2.052,-0.21198c0.57199,-0.14099 1.07498,-0.34503 1.50998,-0.60602c0.436,-0.26099 0.827,-0.58502 1.172,-0.96899c0.34802,-0.38 0.69302,-0.82001 1.04001,-1.315l2.814,2.474l0,0l0,0z" fill-rule="nonzero" fill="#373535"/>
      <path id="path468" d="m486.61624,529.8609l4.32379,0l0,10.7475l10.21246,0l0,-10.7475l4.32626,0l0,24.65497l-4.32626,0l0,-10.72998l-10.21246,0l0,10.72998l-4.32379,0l0,-24.65497z" fill-rule="nonzero" fill="#373535"/>
      <path id="path470" d="m527.74054,542.06915c0,-1.41376 -0.15381,-2.70129 -0.46252,-3.86005c-0.31,-1.15875 -0.75372,-2.15375 -1.32996,-2.9812c-0.57751,-0.8288 -1.27502,-1.47125 -2.09381,-1.92755c-0.81622,-0.45746 -1.73499,-0.685 -2.74994,-0.685c-0.99878,0 -1.91003,0.21503 -2.73004,0.64374c-0.82373,0.43005 -1.53375,1.04877 -2.12622,1.85004c-0.59253,0.80371 -1.05127,1.77252 -1.38501,2.90375c-0.3288,1.13373 -0.49255,2.39624 -0.49255,3.78998c0,1.41626 0.13751,2.72626 0.41626,3.92627c0.27753,1.20001 0.69128,2.24249 1.24255,3.12122c0.55121,0.88251 1.23499,1.56879 2.05371,2.06378c0.8175,0.49249 1.76251,0.73749 2.83124,0.73749c1.07001,0 2.02631,-0.26495 2.87,-0.7937c0.84503,-0.53131 1.56006,-1.23877 2.14752,-2.12378c0.58752,-0.88751 1.03625,-1.90503 1.34625,-3.06c0.30872,-1.15503 0.46252,-2.35626 0.46252,-3.60498m4.56372,-0.3913c0,1.23627 -0.12372,2.42749 -0.37,3.57129c-0.2475,1.14252 -0.60254,2.21124 -1.07129,3.20001c-0.46497,0.99371 -1.03247,1.88995 -1.69623,2.70001c-0.66748,0.80872 -1.41748,1.49994 -2.2525,2.07617c-0.83246,0.57629 -1.74371,1.02252 -2.72748,1.33752c-0.98749,0.315 -2.03748,0.47003 -3.14624,0.47003c-1.78381,0 -3.37256,-0.31628 -4.76129,-0.9425c-1.38873,-0.63129 -2.565,-1.5163 -3.52246,-2.65875c-0.96002,-1.14252 -1.69379,-2.51373 -2.19751,-4.11499c-0.5025,-1.60004 -0.755,-3.36877 -0.755,-5.30878c0,-1.86749 0.26376,-3.58124 0.78998,-5.14374c0.52252,-1.565 1.27377,-2.91125 2.24878,-4.04626c0.97498,-1.13123 2.16254,-2.01251 3.56372,-2.64124c1.40002,-0.63129 2.97382,-0.94501 4.72498,-0.94501c1.63757,0 3.13879,0.28876 4.50879,0.85876c1.36877,0.57251 2.54626,1.39124 3.53253,2.46375c0.98499,1.06873 1.75494,2.375 2.30371,3.91626c0.55255,1.54248 0.82751,3.27997 0.82751,5.20746" fill-rule="nonzero" fill="#373535"/>
      <path id="path472" d="m554.16986,542.06915c0,-1.41376 -0.15125,-2.70129 -0.46124,-3.86005c-0.31,-1.15875 -0.7525,-2.15375 -1.32996,-2.9812c-0.57751,-0.8288 -1.27502,-1.47125 -2.09253,-1.92755c-0.81873,-0.45746 -1.73749,-0.685 -2.7525,-0.685c-0.99872,0 -1.90747,0.21503 -2.72876,0.64374c-0.82501,0.43005 -1.53375,1.04877 -2.12622,1.85004c-0.59375,0.80371 -1.05249,1.77252 -1.38501,2.90375c-0.32751,1.13373 -0.49371,2.39624 -0.49371,3.78998c0,1.41626 0.13873,2.72626 0.4162,3.92627c0.27753,1.20001 0.69128,2.24249 1.24249,3.12122c0.55127,0.88251 1.23627,1.56879 2.05499,2.06378c0.81757,0.49249 1.76251,0.73749 2.8313,0.73749c1.06873,0 2.02625,-0.26495 2.86871,-0.7937c0.84625,-0.53131 1.56128,-1.23877 2.1488,-2.12378c0.58746,-0.88751 1.03619,-1.90503 1.34619,-3.06c0.31,-1.15503 0.46124,-2.35626 0.46124,-3.60498m4.56378,-0.3913c0,1.23627 -0.1225,2.42749 -0.37,3.57129c-0.24628,1.14252 -0.60126,2.21124 -1.06879,3.20001c-0.46619,0.99371 -1.03375,1.88995 -1.69873,2.70001c-0.66626,0.80872 -1.41626,1.49994 -2.25122,2.07617c-0.83252,0.57629 -1.74377,1.02252 -2.72876,1.33752c-0.98749,0.315 -2.03503,0.47003 -3.14502,0.47003c-1.78497,0 -3.3725,-0.31628 -4.76123,-0.9425c-1.39001,-0.63129 -2.56378,-1.5163 -3.52374,-2.65875c-0.95874,-1.14252 -1.69379,-2.51373 -2.19629,-4.11499c-0.50372,-1.60004 -0.75623,-3.36877 -0.75623,-5.30878c0,-1.86749 0.26501,-3.58124 0.78998,-5.14374c0.52252,-1.565 1.27502,-2.91125 2.25,-4.04626c0.97375,-1.13123 2.16248,-2.01251 3.56256,-2.64124c1.40125,-0.63129 2.9762,-0.94501 4.7262,-0.94501c1.63629,0 3.14001,0.28876 4.50879,0.85876c1.36871,0.57251 2.5462,1.39124 3.53119,2.46375c0.98499,1.06873 1.755,2.375 2.30377,3.91626c0.55249,1.54248 0.82751,3.27997 0.82751,5.20746" fill-rule="nonzero" fill="#373535"/>
      <path id="path474" d="m578.01874,554.51538l-14.95874,0l0,-24.65503l4.32501,0l0,21.46002l10.63373,0l0,3.19501z" fill-rule="nonzero" fill="#373535"/>
      <path id="path476" d="m326.70898,578.95135l4.66251,0l-6.11377,22.75629l-3.62872,0l-3.92252,-17.61627l-4.24124,17.61627l-3.57126,0l-5.98126,-22.75629l4.38376,0l3.69,17.54376l4.29752,-17.54376l2.85999,0l4.05249,17.48376l3.51251,-17.48376z" fill-rule="nonzero" fill="#373535"/>
      <path id="path478" d="m340.76663,588.60834c-0.60748,0 -1.11252,0.10626 -1.51001,0.31879c-0.39496,0.21375 -0.70999,0.49371 -0.94247,0.84375c-0.23251,0.34747 -0.39752,0.74371 -0.49374,1.19122c-0.0975,0.44379 -0.14627,0.90375 -0.14627,1.37628l5.9975,0c0,-0.40503 -0.02875,-0.83002 -0.08624,-1.26752c-0.05753,-0.4425 -0.18875,-0.84253 -0.39249,-1.20624c-0.20377,-0.36255 -0.49625,-0.66376 -0.87753,-0.90125c-0.38373,-0.23627 -0.89749,-0.35504 -1.54874,-0.35504m7.31879,10.49878c-0.59869,0.64001 -1.17752,1.15125 -1.7338,1.54004c-0.5575,0.38623 -1.11249,0.68622 -1.66248,0.89246c-0.55374,0.21002 -1.11499,0.34625 -1.68378,0.41498c-0.57373,0.065 -1.16873,0.10126 -1.78748,0.10126c-1.33627,0 -2.48126,-0.2337 -3.435,-0.69745c-0.95248,-0.46503 -1.73126,-1.0838 -2.33749,-1.85876c-0.60376,-0.7738 -1.05002,-1.66498 -1.33624,-2.67249c-0.28625,-1.00629 -0.43002,-2.05133 -0.43002,-3.13629c0,-1.04626 0.15002,-2.0462 0.44626,-2.9975c0.29248,-0.95624 0.74374,-1.79498 1.34872,-2.52124c0.60501,-0.72626 1.36502,-1.30627 2.28128,-1.74255c0.91373,-0.43494 1.99121,-0.65497 3.23123,-0.65497c1.10376,0 2.07126,0.15125 2.90375,0.45251c0.83252,0.29877 1.52753,0.73004 2.08374,1.29126c0.55499,0.56122 0.97501,1.24249 1.25626,2.04126c0.28,0.79749 0.42126,1.69122 0.42126,2.67871c0,0.3775 -0.01251,0.7688 -0.03625,1.16998c-0.02502,0.40131 -0.07498,0.82007 -0.15378,1.255l-9.79999,0c0,0.4563 0.08002,0.9538 0.24503,1.49628c0.16626,0.54248 0.40375,1.05249 0.72,1.53375c0.3125,0.47626 0.70377,0.8775 1.16873,1.19751c0.46375,0.3175 0.9975,0.47748 1.59753,0.47748c0.52249,0 0.97998,-0.03876 1.37122,-0.11621c0.39249,-0.07751 0.755,-0.20129 1.09003,-0.37628c0.33249,-0.17499 0.6525,-0.40497 0.95874,-0.69c0.30249,-0.28625 0.63251,-0.64246 0.97998,-1.06744l2.29254,1.98871z" fill-rule="nonzero" fill="#373535"/>
      <path id="path480" d="m352.849,597.133c1.43301,1.58801 2.96301,2.38202 4.59,2.38202c0.35901,0 0.69299,-0.03699 1.00101,-0.10999c0.31201,-0.07202 0.578,-0.18506 0.79901,-0.341c0.22498,-0.15503 0.39999,-0.35303 0.53,-0.59503c0.13098,-0.24298 0.198,-0.53302 0.198,-0.87c0,-0.24402 -0.05502,-0.46002 -0.16202,-0.65503c-0.10599,-0.19397 -0.245,-0.36395 -0.41998,-0.50897c-0.173,-0.146 -0.367,-0.27197 -0.58002,-0.38397c-0.21201,-0.11102 -0.42599,-0.20703 -0.63998,-0.28503c-0.397,-0.16296 -0.79202,-0.31097 -1.18201,-0.44202c-0.39401,-0.13 -0.78799,-0.27795 -1.185,-0.44098c-0.22299,-0.078 -0.491,-0.17798 -0.80499,-0.29901c-0.315,-0.12097 -0.64102,-0.271 -0.98102,-0.45001c-0.33899,-0.17798 -0.672,-0.38898 -1.00198,-0.63098c-0.33102,-0.24298 -0.62701,-0.53302 -0.89502,-0.87299c-0.26498,-0.33698 -0.47998,-0.724 -0.646,-1.15198c-0.16199,-0.43304 -0.246,-0.92804 -0.246,-1.49005c0,-0.69696 0.17102,-1.30798 0.509,-1.82996c0.33801,-0.52405 0.78799,-0.96002 1.35001,-1.31403c0.561,-0.35297 1.20001,-0.62 1.91101,-0.79901c0.711,-0.17999 1.444,-0.26996 2.19897,-0.26996c1.20102,0 2.29202,0.14099 3.27502,0.42297c0.983,0.28101 1.88098,0.75201 2.69498,1.40997l-1.715,2.64001c-0.29898,-0.29797 -0.59299,-0.56799 -0.87799,-0.80298c-0.28601,-0.23999 -0.58899,-0.44202 -0.909,-0.612c-0.31799,-0.16901 -0.66699,-0.297 -1.04599,-0.38501c-0.37601,-0.08698 -0.80701,-0.13 -1.29202,-0.13c-0.40698,0 -0.754,0.047 -1.047,0.14301c-0.28799,0.099 -0.52798,0.229 -0.716,0.39398c-0.189,0.16504 -0.32898,0.354 -0.414,0.56604c-0.08798,0.21399 -0.13199,0.43695 -0.13199,0.66901c0,0.25995 0.06201,0.48596 0.19,0.67395c0.125,0.19 0.28699,0.354 0.48599,0.495c0.19901,0.14001 0.42401,0.26105 0.67599,0.36401c0.25302,0.10004 0.508,0.19299 0.76901,0.28204c0.40601,0.14496 0.81601,0.28796 1.228,0.42798c0.41101,0.14001 0.81799,0.28302 1.22601,0.42999c0.20499,0.07501 0.44998,0.16803 0.73999,0.27502c0.29199,0.10699 0.591,0.242 0.901,0.40497c0.31,0.16699 0.616,0.367 0.923,0.60199c0.306,0.23999 0.577,0.52399 0.82098,0.85901c0.241,0.33203 0.43701,0.72101 0.586,1.16101c0.151,0.44 0.22501,0.953 0.22501,1.534c0,0.724 -0.17899,1.36603 -0.53699,1.922c-0.35699,0.55499 -0.82901,1.02203 -1.414,1.39502c-0.58801,0.37299 -1.25101,0.65698 -1.99802,0.849c-0.746,0.19397 -1.50998,0.28998 -2.29498,0.28998c-0.69601,0 -1.35602,-0.039 -1.97501,-0.11499c-0.61801,-0.07898 -1.207,-0.20898 -1.763,-0.39203c-0.55701,-0.185 -1.08801,-0.43298 -1.59299,-0.74799c-0.50201,-0.315 -0.97501,-0.70996 -1.42001,-1.185l2.06,-2.48199l0,0l0,0z" fill-rule="nonzero" fill="#373535"/>
      <path id="path482" d="m365.45535,586.80664l2.31,-0.78375l0.98624,-4.04999l2.78879,0l0,4.04999l3.8475,0l-0.34879,2.70123l-3.49872,0l0,8.00378c0,0.44373 0.03125,0.81622 0.09372,1.11621c0.06375,0.29877 0.15125,0.54376 0.26752,0.72632c0.11749,0.18494 0.26376,0.31372 0.43875,0.39124c0.17374,0.07751 0.37125,0.11621 0.59375,0.11621c0.31,0 0.66125,-0.03625 1.05252,-0.1087c0.39249,-0.07129 0.83121,-0.20129 1.315,-0.38379l0.87125,1.84375c-0.69626,0.53125 -1.38254,0.92999 -2.05502,1.19122c-0.67252,0.26129 -1.32874,0.39252 -1.96875,0.39252c-0.87,0 -1.58749,-0.11499 -2.14871,-0.34125c-0.56006,-0.22876 -1.01004,-0.55249 -1.34253,-0.97375c-0.33499,-0.4212 -0.5675,-0.93121 -0.69751,-1.52997c-0.13126,-0.60126 -0.19501,-1.27502 -0.19501,-2.02124l0,-8.42255l-2.31,0l0,-1.91748z" fill-rule="nonzero" fill="#373535"/>
      <path id="path484" d="m385.53952,588.62189c-0.51376,0 -1.00497,0.06122 -1.47501,0.1825c-0.46875,0.12 -0.965,0.32123 -1.48749,0.6037l0,8.97375c0.26123,0.21252 0.51996,0.3775 0.7775,0.49377c0.25497,0.11749 0.51624,0.20251 0.78372,0.26001c0.2663,0.05878 0.53629,0.09247 0.8125,0.10254c0.27499,0.00995 0.56125,0.01367 0.85004,0.01367c0.57999,0 1.07623,-0.16119 1.48746,-0.48499c0.41254,-0.32501 0.74875,-0.75244 1.01004,-1.28497c0.26248,-0.53497 0.45502,-1.13873 0.58124,-1.815c0.125,-0.67877 0.19,-1.37128 0.19,-2.07623c0,-0.71753 -0.07001,-1.38 -0.20627,-1.99127c-0.13501,-0.60876 -0.34125,-1.13373 -0.62247,-1.57501c-0.28,-0.44 -0.64502,-0.78497 -1.09753,-1.03125c-0.44873,-0.245 -0.98373,-0.37122 -1.60373,-0.37122m-3.44125,-2.59882c0.05875,0.1463 0.12,0.35132 0.1875,0.61755c0.06747,0.26752 0.11624,0.52496 0.14624,0.77747c0.23126,-0.20502 0.47876,-0.40375 0.73877,-0.60248c0.26373,-0.19873 0.55374,-0.3725 0.8725,-0.52374c0.32123,-0.14874 0.67624,-0.27374 1.0675,-0.37c0.39249,-0.09625 0.83499,-0.1463 1.32999,-0.1463c1.25748,0 2.31253,0.21881 3.16376,0.65381c0.85373,0.4375 1.53375,1.01746 2.04126,1.74371c0.50873,0.72626 0.87125,1.56378 1.08997,2.51251c0.21753,0.94879 0.32626,1.93628 0.32626,2.96252c0,1.11127 -0.14877,2.17999 -0.4425,3.20123c-0.29617,1.02002 -0.74121,1.92126 -1.33618,2.70129c-0.59622,0.77869 -1.34497,1.40125 -2.25125,1.86493c-0.90625,0.46503 -1.96875,0.69751 -3.18875,0.69751c-1.22751,0 -2.31622,-0.3725 -3.2663,-1.11871l0,7.2912l-3.77625,0l0,-19.28375c0,-0.05872 -0.00253,-0.20502 -0.00626,-0.43744c-0.005,-0.23126 -0.01498,-0.49506 -0.03003,-0.79254c-0.01498,-0.29376 -0.03873,-0.60248 -0.07248,-0.9212c-0.03375,-0.32001 -0.08499,-0.59503 -0.15378,-0.82758l3.56003,0z" fill-rule="nonzero" fill="#373535"/>
      <path id="path486" d="m404.28836,599.48364c0.63998,0 1.19,-0.17377 1.65375,-0.52252c0.46503,-0.34747 0.8475,-0.80627 1.14877,-1.37872c0.29874,-0.57123 0.52249,-1.21503 0.66623,-1.93127c0.14627,-0.71747 0.21875,-1.44751 0.21875,-2.19122c0,-0.68878 -0.06622,-1.33997 -0.19498,-1.95502c-0.13254,-0.61499 -0.34753,-1.15247 -0.64627,-1.61249c-0.30249,-0.45874 -0.6875,-0.82629 -1.16251,-1.09625c-0.47498,-0.27124 -1.05002,-0.40625 -1.72751,-0.40625c-0.60999,0 -1.14999,0.14124 -1.61996,0.42126c-0.46875,0.28119 -0.86005,0.66498 -1.17001,1.15497c-0.30878,0.48877 -0.54373,1.06879 -0.70251,1.74249c-0.16,0.67126 -0.23999,1.40131 -0.23999,2.185c0,0.64001 0.06876,1.28876 0.21002,1.94629c0.14124,0.65875 0.36246,1.25995 0.66873,1.79999c0.30499,0.54248 0.69623,0.98499 1.17624,1.33002c0.47873,0.34369 1.05124,0.51373 1.72125,0.51373m0.13,2.61499c-1.27875,0 -2.40875,-0.19751 -3.39127,-0.59497c-0.98251,-0.3963 -1.80872,-0.9613 -2.47623,-1.69c-0.66751,-0.73248 -1.1738,-1.61255 -1.51633,-2.64502c-0.34497,-1.03125 -0.51749,-2.18127 -0.51749,-3.44873c0,-1.07501 0.16122,-2.09125 0.47998,-3.04999c0.32123,-0.95874 0.80502,-1.80005 1.45126,-2.52625c0.64999,-0.72504 1.465,-1.30255 2.44748,-1.72882c0.98376,-0.42621 2.13879,-0.63995 3.46378,-0.63995c1.32623,0 2.46872,0.21375 3.42874,0.63995c0.95752,0.42627 1.7475,1.01001 2.36624,1.75006c0.62,0.73999 1.07623,1.61121 1.3725,2.61499c0.29376,1.00122 0.44379,2.07495 0.44379,3.21619c0,1.11255 -0.17252,2.16003 -0.51752,3.14508c-0.3425,0.98126 -0.84125,1.84125 -1.49503,2.57617c-0.65247,0.73376 -1.44876,1.31628 -2.38126,1.74127c-0.93497,0.42749 -1.98749,0.64001 -3.15872,0.64001" fill-rule="nonzero" fill="#373535"/>
      <path id="path488" d="m419.31799,586.02301c0.202,1.026 0.34702,2.07098 0.436,3.138c0.18201,-0.427 0.45001,-0.84302 0.79901,-1.25c0.34799,-0.40601 0.73599,-0.76801 1.16199,-1.08002c0.42502,-0.31702 0.87302,-0.57202 1.34302,-0.76599c0.46799,-0.19202 0.91699,-0.289 1.34198,-0.289c0.53302,0 0.92999,0.034 1.19101,0.10199c0.263,0.06702 0.46899,0.13501 0.625,0.20398l-0.815,3.41101c-0.31,-0.14301 -0.59601,-0.24396 -0.862,-0.29797c-0.26801,-0.052 -0.53,-0.07703 -0.79102,-0.07703c-0.90298,0 -1.67297,0.21301 -2.31699,0.63702c-0.64301,0.42798 -1.168,0.98798 -1.57501,1.685l0.02701,10.26801l-3.80301,0l0,-13.04102c0,-0.16699 -0.00198,-0.37396 -0.00998,-0.62598c-0.004,-0.25201 -0.00702,-0.508 -0.01199,-0.76801c-0.005,-0.263 -0.01501,-0.50598 -0.02902,-0.73401c-0.01599,-0.229 -0.03101,-0.40002 -0.05298,-0.51599l3.34198,0l0,0z" fill-rule="nonzero" fill="#373535"/>
      <path id="path490" d="m427.18875,586.80664l2.31,-0.78375l0.98752,-4.04999l2.78873,0l0,4.04999l3.84628,0l-0.34753,2.70123l-3.49875,0l0,8.00378c0,0.44373 0.03003,0.81622 0.09378,1.11621c0.06125,0.29877 0.15125,0.54376 0.26746,0.72632c0.11627,0.18494 0.26129,0.31372 0.43628,0.39124c0.17374,0.07751 0.3725,0.11621 0.595,0.11621c0.31125,0 0.66122,-0.03625 1.05374,-0.1087c0.39127,-0.07129 0.82999,-0.20129 1.31378,-0.38379l0.87122,1.84375c-0.69623,0.53125 -1.38126,0.92999 -2.05374,1.19122c-0.67374,0.26129 -1.32999,0.39252 -1.97,0.39252c-0.87125,0 -1.58746,-0.11499 -2.14871,-0.34125c-0.56128,-0.22876 -1.00876,-0.55249 -1.34253,-0.97375c-0.33374,-0.4212 -0.56619,-0.93121 -0.69751,-1.52997c-0.13123,-0.60126 -0.19501,-1.27502 -0.19501,-2.02124l0,-8.42255l-2.31,0l0,-1.91748z" fill-rule="nonzero" fill="#373535"/>
      <path id="path492" d="m439.66312,605.25153c0.33875,-0.21375 0.6525,-0.42377 0.94504,-0.625c0.28873,-0.2038 0.53995,-0.41876 0.75372,-0.64752c0.21375,-0.22626 0.38,-0.47125 0.50125,-0.73248c0.12125,-0.26123 0.1825,-0.56128 0.1825,-0.90002c0,-0.10748 -0.01126,-0.20874 -0.03,-0.30499c-0.02002,-0.09747 -0.04373,-0.20123 -0.07248,-0.31873c-0.05875,0.0462 -0.16879,0.09998 -0.33502,0.15869c-0.16251,0.05878 -0.3425,0.08624 -0.53622,0.08624c-0.55127,0 -0.96628,-0.15625 -1.24127,-0.47119c-0.27625,-0.315 -0.41376,-0.71753 -0.41376,-1.21252c0,-0.2525 0.04498,-0.49628 0.13751,-0.73376c0.09125,-0.23621 0.22375,-0.44751 0.39127,-0.63123c0.16998,-0.185 0.37247,-0.33252 0.61124,-0.4425c0.23755,-0.11249 0.50629,-0.16754 0.80499,-0.16754c0.5625,0 1.03876,0.09253 1.42999,0.27631c0.39374,0.1825 0.71503,0.4212 0.965,0.70996c0.2525,0.29254 0.43875,0.61255 0.55499,0.96002c0.11627,0.34875 0.17377,0.6875 0.17377,1.01501c0,0.70874 -0.1087,1.32373 -0.32001,1.84625c-0.21375,0.52374 -0.50247,0.98499 -0.86499,1.38495c-0.36377,0.40381 -0.7825,0.75378 -1.25494,1.05383c-0.47632,0.29993 -0.97876,0.58246 -1.51126,0.84119l-0.87131,-1.14496z" fill-rule="nonzero" fill="#373535"/>
      <path id="path494" d="m480.45535,598.42413c-0.6575,0.78497 -1.2825,1.41748 -1.87247,1.89746c-0.59128,0.47748 -1.1925,0.85254 -1.80878,1.12378c-0.61502,0.27252 -1.26248,0.45245 -1.94623,0.54626c-0.68253,0.09125 -1.44879,0.13745 -2.30127,0.13745c-1.60748,0 -3.01749,-0.3175 -4.23251,-0.95245c-1.21497,-0.63501 -2.23245,-1.49255 -3.05127,-2.57751c-0.81622,-1.08374 -1.43121,-2.34875 -1.84372,-3.78998c-0.41251,-1.4425 -0.61624,-2.97253 -0.61624,-4.58875c0,-1.01752 0.08624,-2.0188 0.2525,-3.00751c0.17123,-0.98627 0.42874,-1.91754 0.77875,-2.79382c0.34875,-0.87622 0.79001,-1.68494 1.32874,-2.42621c0.53751,-0.73871 1.17374,-1.38123 1.91626,-1.92499c0.74124,-0.54004 1.58374,-0.96124 2.5275,-1.26251c0.94376,-0.29999 1.99625,-0.45001 3.1575,-0.45001c0.69751,0 1.35748,0.04254 1.98376,0.13251c0.6225,0.08502 1.21375,0.22498 1.77121,0.41998c0.55502,0.19257 1.09128,0.45502 1.60379,0.78381c0.51251,0.32874 1.01123,0.73248 1.49371,1.20496l-2.18997,2.71497c-0.35876,-0.37622 -0.715,-0.70123 -1.0675,-0.97247c-0.35373,-0.27124 -0.71875,-0.49249 -1.0975,-0.66626c-0.37622,-0.17499 -0.77496,-0.30121 -1.18997,-0.37994c-0.41751,-0.07629 -0.87003,-0.11627 -1.36502,-0.11627c-0.98877,0 -1.84003,0.22626 -2.5575,0.67749c-0.71503,0.44873 -1.30499,1.04626 -1.76877,1.79248c-0.465,0.74628 -0.81,1.59625 -1.03247,2.5575c-0.22375,0.9563 -0.33502,1.94879 -0.33502,2.97504c0,1.34619 0.13501,2.59875 0.40125,3.755c0.26501,1.15625 0.63998,2.16376 1.12378,3.02002c0.48499,0.85748 1.06625,1.52997 1.74371,2.01874c0.67877,0.48871 1.43253,0.7337 2.26501,0.7337c0.73627,0 1.36877,-0.065 1.89502,-0.19623c0.52875,-0.13123 0.99371,-0.3175 1.39374,-0.56c0.40253,-0.24249 0.76251,-0.53876 1.08249,-0.89374c0.31876,-0.35126 0.64001,-0.75751 0.95874,-1.21002l2.59875,2.27753z" fill-rule="nonzero" fill="#373535"/>
      <path id="path496" d="m500.27835,581.88477l-7,0l0,19.82251l-3.99249,0l0,-19.82251l-6.98499,0l0,-2.93378l17.97748,0l0,2.93378z" fill-rule="nonzero" fill="#373535"/>
     </g>
    </g>
   </g>
  </svg>
 </defs>
 <g display="inline">
  <title>Layer 1</title>
  <use fill="#ff0000" xlink:href="#svg_1" id="svg_2" y="-241.19877" x="-197.53801"/>
 </g>
</svg>
