<svg width="640" height="480" xmlns="http://www.w3.org/2000/svg" xmlns:xlink="http://www.w3.org/1999/xlink">
 <!-- Created with SVG-edit - http://svg-edit.googlecode.com/ -->
 <defs>
  <svg id="svg_1" width="765" height="990" viewBox="0 0 765 990">
   <metadata id="metadata8">image/svg+xml</metadata>
   <defs>
    <clipPath clipPathUnits="userSpaceOnUse" id="clipPath18">
     <path d="m0,0l612,0l0,792l-612,0l0,-792z" id="path20"/>
    </clipPath>
    <clipPath clipPathUnits="userSpaceOnUse" id="clipPath24">
     <path d="m251,415l144,0l0,146l-144,0l0,-146z" id="path26"/>
    </clipPath>
    <clipPath clipPathUnits="userSpaceOnUse" id="clipPath28">
     <path d="m251.580994,415.942993l142.783997,0l0,144.578003l-142.783997,0l0,-144.578003z" id="path30"/>
    </clipPath>
    <clipPath clipPathUnits="userSpaceOnUse" id="clipPath376">
     <path d="m0,0l612,0l0,792l-612,0l0,-792z" id="path378"/>
    </clipPath>
    <clipPath clipPathUnits="userSpaceOnUse" id="clipPath382">
     <path d="m247,404l153,0l0,172l-153,0l0,-172z" id="path384"/>
    </clipPath>
    <clipPath clipPathUnits="userSpaceOnUse" id="clipPath386">
     <path d="m247.378006,404.394989l152.184006,0l0,170.733978l-152.184006,0l0,-170.733978z" id="path388"/>
    </clipPath>
   </defs>
   <g id="g10" transform="matrix(1.25,0,0,-1.25,0,990)">
    <g id="g12"/>
    <g id="g14">
     <g id="g16" clip-path="url(#clipPath18)">
      <g id="g22"/>
      <g id="g32">
       <g clip-path="url(#clipPath24)" id="g34">
        <g id="g36"/>
        <g id="g38">
         <g clip-path="url(#clipPath28)" id="g40">
          <path fill="#373535" fill-rule="nonzero" d="m356.827087,516.083496c-0.454987,2.002014 1.32901,3.608032 1.32901,3.608032c0,0 1.902985,1.050964 2.279999,-0.852051c0,0 1.428009,-6.166992 -1.882996,-5.888977c-1.527008,0.138977 -1.726013,3.132996 -1.726013,3.132996" id="path42"/>
          <path fill="#373535" fill-rule="nonzero" d="m354.963898,510.868713c-2.497986,2.479004 -1.725006,6.265991 -1.725006,6.265991c0.178009,4.460999 3.509003,7.018005 3.509003,7.018005c0,0 1.32901,0.575012 1.705017,0.377014c0,0 0.138977,-0.039001 0.358002,-0.119019l0,-0.02002c0.018982,-0.019958 0.018982,-0.039001 0.018982,-0.039001l0.100006,0c1.010986,-0.416992 3.330994,-1.665955 3.945007,-4.362c0.019989,-0.059998 0.019989,-0.119995 0.039978,-0.198975c0.098999,-0.476013 0.139008,-1.010986 0.098999,-1.606018c0,0 0.218018,-1.922974 -0.019989,-4.044983c-0.238007,-2.161011 -0.911987,-4.540009 -2.735992,-5.352997c-2.279999,-1.031006 -3.708008,0.932007 -3.708008,0.932007c-0.634003,0.316986 -1.169983,0.713989 -1.585999,1.149994m0.355988,6.166992c0,0 -0.672974,-4.184021 3.035004,-5.513c0.872009,-0.296997 1.803009,0.575012 1.803009,0.575012c3.035004,2.378967 0.951996,7.315979 0.951996,7.315979c-0.574982,2.281006 -3.230988,1.606995 -3.230988,1.606995c0,0 -2.559021,-1.903992 -2.559021,-3.984985" id="path44"/>
          <path fill="#373535" fill-rule="nonzero" d="m332.063507,512.771973c-3.609009,-0.317017 -3.687988,3.687988 -3.687988,3.687988c0,3.429993 3.509003,3.330994 3.509003,3.330994c0,0 2.65799,0.098999 3.786987,-2.656982c0,0 0.852997,-3.984985 -3.608002,-4.362" id="path46"/>
          <path fill="#373535" fill-rule="nonzero" d="m323.616211,514.655823c-1.029999,4.658997 2.558014,8.445984 2.558014,8.445984c0,0 2.477997,2.479004 5.036987,2.281006c0,0 4.658997,-0.377014 6.542999,-2.557983c0,0 3.806,-3.411011 2.854004,-7.971008c-1.050995,-5.036011 -4.658997,-6.463989 -4.658997,-6.463989c-1.606018,-1.407013 -6.345001,-0.654022 -6.345001,-0.654022c-5.610992,1.804016 -5.988007,6.920013 -5.988007,6.920013m3.431,1.724976c0,0 -0.298004,-5.888977 5.492004,-5.135986c7.652985,1.012024 3.410004,8.546021 3.410004,8.546021c-2.736023,2.934998 -5.313019,1.903992 -5.313019,1.903992c0,0 -3.787994,-1.328979 -3.588989,-5.314026" id="path48"/>
          <path fill="#373535" fill-rule="nonzero" d="m266.097198,500.677185c0,0 -7.237,-30.15802 14.493988,-51.889008l0.237,4.343018c2.162018,17.863983 11.580017,27.519989 11.580017,27.519989c-0.972015,8.921997 -0.238007,19.054016 -0.238007,19.054016c2.161011,22.20697 16.63501,45.365967 16.63501,45.365967c0,0 -35.947021,-6.522949 -42.708008,-44.393982m24.863007,-84.682983c-3.132019,1.446991 -6.76001,13.264984 -6.76001,13.264984c-3.132996,1.684998 -5.790009,3.865997 -5.790009,3.865997c-24.12999,18.321014 -26.786987,50.421021 -26.786987,50.421021c-0.951996,31.842957 14.473999,49.687988 14.473999,49.687988c22.207001,28.234009 56.230988,27.281982 56.230988,27.281982c0,0 27.5,-0.256958 50.421021,-20.282959c0,0 21.472992,-18.321045 21.472992,-46.317017c0,0 3.867004,-39.813995 -28.709991,-62.734009c0,0 -13.502014,-13.027008 -39.813995,-13.502991c0,0 -12.551025,-0.971008 -20.997009,2.398987l-1.446991,-0.713989c-9.636017,-4.104004 -12.294006,-3.369995 -12.294006,-3.369995m-9.654999,22.661987c-14.712006,11.34201 -19.789001,30.416016 -19.789001,30.416016c-10.369003,27.004974 3.628998,50.18396 3.628998,50.18396c14.473999,29.186035 45.841003,33.528015 45.841003,33.528015c0,0 5.790009,0.732971 6.761993,2.656982c0,0 1.446991,2.161011 -6.523987,1.209045c0,0 -26.291016,-4.580017 -42.946014,-25.101013c0,0 -19.054993,-22.683014 -12.313004,-55.736023c0,0 4.837997,-21.472992 18.340012,-35.450989c0,0 4.580994,-5.313995 8.208984,-6.761017l-1.208984,5.055023zm5.570984,22.782013c0,0 0.872009,-1.526001 2.617004,4.143982c0,0 4.104004,5.472992 4.580994,6.542999c0.872009,1.963013 -0.872986,3.708008 -0.872986,3.708008c0,0 -6.979004,-10.904999 -6.325012,-14.394989m-0.871979,-25.973022c0,0 1.962982,2.617004 2.179993,3.707001c0.218994,1.089996 -2.834991,2.617004 -2.834991,2.617004l0.654999,-6.324005zm-0.199005,11.143005c0.61499,1.903015 2.557983,9.061005 2.557983,9.061005c-0.158997,1.308014 -2.240997,1.347992 -2.240997,1.347992c0,0 -2.497986,-6.979004 -2.140991,-9.873993c0,0 1.070984,-2.915009 1.824005,-0.535004m1.942993,-15.505981c0,0 0.654999,-4.580017 1.963013,-4.798004c0,0 -1.527008,3.053986 0.218994,4.362c1.743988,1.30899 2.181,8.069977 2.181,8.069977l-1.527008,0.436005c0,0 -0.436005,-6.760986 -2.835999,-8.069977m7.634003,6.761993c0,0 -0.872009,-9.161011 -3.708008,-13.52301l-1.526001,-0.653992c0,0 0.653992,-2.419006 1.526001,-3.272003c0,0 3.925995,3.925995 3.708008,6.325012c-0.217987,2.398987 2.834991,9.596985 2.834991,9.596985l-2.834991,1.527008zm-5.492004,6.186005c0,0 4.203003,5.690002 4.302002,7.652985c0.098999,1.963013 -2.26001,2.93399 -2.26001,2.93399c0,0 -2.338989,-7.513977 -3.013977,-7.929993c-0.674011,-0.397003 -0.357025,-3.033997 0.971985,-2.656982m5.709991,25.022003c0,0 -5.233978,-7.416016 -4.579987,-10.469025c0,0 4.362,3.925995 5.015991,6.325012l-0.436005,4.144012zm-0.871979,-28.155029c0,0 3.270996,1.091003 4.143982,3.053009c0,0 0.218018,4.143982 1.089996,5.016998l-2.834991,1.526001c0,0 -1.527008,-6.106995 -2.835999,-6.761017c0,0 -0.436005,-1.962982 0.437012,-2.834991m2.259979,71.338989c0,0 -7.237,-18.815979 3.132996,-50.916992c0,0 8.208008,-24.605988 13.76001,-32.079987l2.122009,2.278992c-9.716003,11.063995 -15.921997,38.863007 -15.921997,38.863007c-7.296021,25.635986 2.458984,51.510986 2.458984,51.510986c6.761017,17.130981 19.787994,31.843018 19.787994,31.843018c1.963013,3.786987 -1.526978,1.526978 -1.526978,1.526978c0,0 -16.576019,-15.524963 -23.813019,-43.026001m1.229004,-54.326996l-0.871979,3.72702c0,0 -2.617004,-4.144012 -2.181,-5.690002c0,0 2.181,0.653992 3.052979,1.962982m0.437012,-2.834991c0,0 -0.437012,-1.30899 0.217987,-2.182007l1.744995,-0.653992l-0.436981,1.527008c-0.436005,1.527008 -1.526001,1.30899 -1.526001,1.30899m2.617004,-20.720001c0,0 -5.016998,-11.459991 -3.054016,-10.468994c1.309021,0.653992 6.980011,8.070007 6.980011,8.070007l-3.925995,2.398987zm-1.309021,4.362c0,0 0.218018,-0.872009 1.745026,-1.091003c0,0 3.053986,3.272003 2.834991,4.799011l-2.181,3.924988c0,0 -0.436005,-6.760986 -2.399017,-7.632996m21.712006,107.761993c0,0 -18.618988,-17.804993 -20.522003,-54.505981c0,0 7.237,3.648987 8.862,12.80899c0,0 -2.656006,11.202972 2.479004,21.45401c0,0 3.231995,4.856995 4.045013,6.482971c0,0 7.098999,5.175049 12.194,5.947998l-0.040009,0.257996c-0.812012,3.232056 -7.018005,7.554016 -7.018005,7.554016m-17.608002,-72.410004c0,0 0.317993,-1.228973 1.131012,-1.684998c0.971008,-0.554993 2.93399,2.95401 2.93399,2.95401c1.209991,0.833008 1.347992,2.875 1.347992,2.875c-1.188995,-0.911987 -4.281982,-0.356995 -4.281982,-0.356995c0,0 -1.40799,-2.041992 -1.131012,-3.787018m0.695007,12.868011c0,0 1.962006,1.30899 0.436005,2.399994c0,0 -3.48999,-1.962982 -3.272003,-3.925995c0,0 1.30899,0.653992 2.835999,1.526001m-1.091003,-62.61499c0,0 6.979004,1.527008 8.962006,2.398987c0.713989,0.317017 -3.033997,4.123993 -3.766998,5.096008c0.039001,0.098999 0.059998,0.139008 0.059998,0.139008c-0.278992,0.177979 -0.278992,0.118988 -0.059998,-0.139008c-0.496002,-0.992004 -3.588989,-7.097992 -5.195007,-7.494995m0,58.035004c0,0 1.308014,-1.089996 3.053009,-0.872009c1.764984,0.217987 0.872986,1.089996 0.872986,1.089996l3.072998,4.362c0,0 -1.30899,1.091003 -2.199982,-0.653992c-0.873016,-1.744995 -4.799011,-3.925995 -4.799011,-3.925995m3.687988,-21.532013c0,0 2.736023,3.291016 3.58902,4.263c0,0 -1.96402,0.494995 -2.380005,0.356995c0,0 -0.77301,1.546021 -1.487,1.268005c0,0 -0.415985,-4.5 0.277985,-5.888m0.238007,-26.033997l-1.744995,3.48999c0,0 -1.089996,-1.30899 -0.872986,-2.398987l2.617981,-1.091003zm1.249023,59.324005c0,0 -0.278015,-1.050995 1.049988,-0.912018c0,0 1.25,-0.336975 1.686005,0.634003c0,0 0.475006,0.555023 -1.130005,0.992004c0,0 -1.686005,0.416016 -1.605988,-0.713989m2.259979,-33.786011c-4.143982,-5.69101 -0.653992,-6.345001 -0.653992,-6.345001l0.437012,0.653992l4.796997,6.999023c0.217987,4.580994 -4.580017,-1.308014 -4.580017,-1.308014m0.872009,14.394012c-3.945007,-4.143005 -1.744019,-5.234009 -1.744019,-5.234009c2.835022,-1.30899 5.452026,4.144012 5.452026,4.144012c3.272003,4.143982 0.436981,3.053986 0.436981,3.053986c-2.399994,1.526001 -4.144989,-1.963989 -4.144989,-1.963989m-3.350006,-52.403015c0,0 1.783997,-0.891998 4.024994,-0.891998c0,0 1.229004,-0.317993 2.141022,-0.61499c0.297974,-0.298004 0.554993,-0.496002 0.77298,-0.496002c0.615021,0 0.040009,0.238007 -0.77298,0.496002c-0.972015,0.971008 -2.141022,3.072998 -2.141022,3.072998l-4.024994,-1.56601zm2.518005,59.106018c0,0 1.903992,-0.833008 3.369995,-0.417023c0,0 2.81601,4.065002 3.372009,4.481018c0,0 1.764008,1.764984 -0.139008,1.884003l0,-0.119019c0,0 -3.291992,-1.050995 -4.561005,-3.371002c0,0 -1.605988,-2.181 -2.041992,-2.457977m1.684998,10.388977c0,0 -1.388,0.059021 -0.554993,-1.684998c0.832977,-1.764984 1.686005,-0.356995 1.686005,-0.356995c0.970001,1.269012 -1.131012,2.041992 -1.131012,2.041992m-0.634003,-43.540985c1.625,0 4.005005,4.34201 4.005005,4.34201c0.217987,1.54599 4.759003,4.97699 4.759003,4.97699c-0.139008,0.415985 -2.240997,1.824005 -2.240997,1.824005c-1.248993,-0.774017 -3.569,-5.393005 -3.569,-5.393005c-0.912018,-1.963013 -3.292023,-4.144012 -3.292023,-4.144012l-0.018982,0c-0.317993,-0.475983 -0.912018,-1.605988 0.356995,-1.605988m0.891998,60.473999c0,0 0.675018,-8.963013 -1.783997,-10.528992c0,0 4.936005,-2.458008 15.009003,-1.56601c0,0 1.783997,0.040009 4.203003,-0.238007c4.363007,-0.496002 10.766998,-2.002991 12.352997,-6.463989c0,0 8.743988,-10.984009 -0.437012,-21.731018c0,0 -3.369995,-8.287994 -13.223999,-14.553009l-13.423004,-13.66098l2.914001,-4.481018l0.437012,1.130005c0,0 5.372986,0 8.287994,2.459015c0,0 1.130005,-2.459015 0.673004,-3.132996c-3.450012,-5.195007 23.059998,19.033997 23.059998,19.033997c9.854004,7.15799 9.179993,26.64801 9.179993,26.64801c-0.891998,5.372986 -1.347992,18.121979 -1.347992,18.121979c-6.701996,-1.783997 -9.181,5.829987 -9.181,5.829987c-0.436005,-1.784973 -2.23999,-2.240967 -2.23999,-2.240967c-0.891998,0.218994 -1.783997,2.02298 -1.783997,2.02298c-0.675018,-4.937012 -8.051025,-7.832001 -8.051025,-7.832001c-2.635986,-0.852997 -5.054993,-1.030975 -7.176971,-0.812988c-6.919006,0.674011 -10.96402,5.511993 -10.96402,5.511993c-6.721985,3.569 -3.807007,17.904022 -3.807007,17.904022c1.784027,7.83197 8.962006,12.094971 8.962006,12.094971c13.998016,4.520996 26.945007,1.169983 27.917023,0.911987c-6.980011,3.985046 -24.34903,1.765015 -24.34903,1.765015c-8.266998,-0.435974 -12.529999,-9.616028 -12.529999,-9.616028c0,0 -2.914978,-4.044983 -2.696991,-16.575958m6.761017,-56.985016c0.138977,-0.554993 -5.611023,-6.085999 -5.611023,-6.085999c0,0 -0.832977,-1.190002 -0.356995,-1.764984c0,0 0.85199,-0.615021 2.399017,0.77298l0.971985,1.626007c6.304016,6.444 7.355988,8.822998 7.355988,8.822998c0.139008,2.459015 -0.61499,1.487 -0.61499,1.487c0,0 -4.281982,-4.281982 -4.143982,-4.858002m-4.144012,41.796997c0,0 0.218994,-2.380005 1.902985,-2.181c1.884003,0.237 1.884003,2.041992 1.884003,2.041992l-3.786987,0.139008zm-0.376007,-70.010986c0,0 4.382019,6.621979 5.90802,6.345001c0,0 2.378998,-0.298004 -0.556,-3.252014c0,0 -2.319,-3.628998 -1.308014,-5.848999l1.308014,-0.475983c0,0 -0.31601,3.488983 1.269989,4.97699c0,0 2.934998,1.725006 2.23999,4.480988c-0.197998,0.813019 0.951996,4.738007 1.072021,5.195007l-0.021027,0c-0.554993,-0.63501 -4.083984,-1.130981 -4.083984,-1.130981c0,0 -3.667999,-4.897003 -4.759003,-5.076019c-1.109985,-0.178009 -1.684998,-4.302002 -1.070007,-5.213989m1.227997,43.322998c0,0 0.437012,-3.708008 4.14502,0.436005c0,0 2.39798,1.526978 1.962982,3.48999c0,0 -1.30899,2.617004 -1.962982,2.834991c0,0 -5.889008,-5.888977 -4.14502,-6.760986m2.221008,44.354004c0,0 0.674988,-1.130005 1.804993,0c0,0 2.279999,1.705017 2.855011,0c0,0 0.376007,-2.756012 -2.955017,-3.708008c0,0 -1.129974,0.199005 -0.85199,-0.932007c0,0 0.85199,-1.723999 1.804016,-0.950989c0,0 0.277985,1.505981 1.526978,2.181c0,0 1.606018,1.328003 2.279999,0.554993c0,0 1.705017,-1.605988 -0.296997,-3.311005c0,0 -2.556976,-1.605988 -1.704987,-2.755981c0,0 0.752991,-0.575012 1.427002,-0.179016c0,0 0.85199,2.082001 1.229004,2.657013c0,0 1.427979,1.328979 2.380005,0.653992c0,0 1.228973,-1.328003 0.098999,-3.131989c0,0 -0.575012,-1.904022 0.078979,-1.983002c0,0 1.804993,-0.575012 2.003021,0.276978c0,0 0,0.753998 -0.298004,1.606018c0,0 -0.178009,2.756989 1.25,2.65799c0,0 1.803986,0.475006 2.080994,-2.65799c0,0 -0.197998,-1.981995 0.277985,-2.080994c0,0 1.249023,-0.278015 1.705017,0.197998c0,0 0,0.475983 -0.752991,1.506989c0,0 -1.230011,3.132996 0.475983,3.707001c0,0 2.278992,0.951996 3.131989,-2.93399c0,0 0,-0.77301 1.150024,-0.197998c0,0 1.785004,0.475983 -0.197998,2.082001c0,0 -2.558014,2.181 -1.328003,3.885986c0,0 1.60498,1.248993 2.557983,0c0,0 1.050018,-2.082001 1.803009,-2.181c0,0 1.151001,0.197998 1.151001,0.950989c0,0 -0.100006,0.853027 -1.248993,1.230011c0,0 -2.459015,1.248993 -1.507019,2.756012c0,0 1.328003,1.427002 2.756012,0.574982c0,0 0.85199,-0.475983 1.031006,-0.852997c0,0 0.574982,-0.85199 1.625977,0c0,0 1.883026,0.951996 3.212006,-0.098999c0,0 1.626007,-0.752991 2.181,-0.178009c0,0 1.725006,1.229004 2.378998,0.753021c0,0 0.555023,-0.197998 0.952026,-0.595001c0.474976,-0.475006 0.77298,-1.188995 -0.199005,-2.161011c0,0 -1.981995,0 -2.180023,-1.328003c0,0 -0.178986,-0.852997 0.198029,-1.229004c0,0 0.85199,-0.47699 1.506989,0.654022c0,0 0.872009,2.279999 2.576996,1.427979c0,0 1.704987,-0.753998 0.476013,-2.280975c0,0 -1.626007,-0.951019 -0.952026,-2.279999c0,0 0.853027,-0.753021 2.281006,-0.555023c0,0 0.931,0.476013 0.07901,1.983002c0,0 -1.230011,1.804016 0.575012,2.279999c0,0 1.902985,0.575012 2.181,-0.852997c0,0 -0.377014,-1.229004 0.77298,-0.951996c0,0 1.705017,0.476013 0.653992,1.626007c0,0 -0.85199,-0.476013 -1.60498,0.178986c0,0 -0.575012,1.606018 0.376007,2.002014c0,0 1.030975,1.031006 1.803986,0.277985c0,0 0.951996,0.197998 0.377014,1.050995c0,0 -1.050018,0.277008 -0.85202,1.130005c0,0 0.574005,1.229034 1.328003,1.050995c0,0 0.575012,0.554993 0.098999,1.229004l-1.328003,0.139038l-0.019989,0c0.237,2.120972 0.019989,4.044983 0.019989,4.044983c0.040009,0.594971 0,1.130005 -0.098999,1.606018c0,0 0.376007,-0.476013 0.951019,-0.278015c0,0 0.951996,0.377014 0.653992,1.031006c0,0 -0.752991,0.951965 -1.229004,0.574951c0,0 -0.415985,-0.69397 -0.415985,-1.129944c-0.614014,2.69696 -2.935028,3.945984 -3.945007,4.362l1.328003,0l0,2.359985c-1.963013,-0.158997 -1.546997,-1.944031 -1.447998,-2.301025c-0.218018,0.080017 -0.357025,0.119995 -0.357025,0.119995c0,0 -2.755981,1.050049 -2.279999,2.379028c0,0 -0.098999,0.85199 0.575012,1.130005c0,0 0.753998,0.950989 0.278015,1.427979c0,0 -1.32901,-0.179016 -1.229004,-0.951965l0,-3.212036c0,0 0.177002,-2.279968 -2.281006,-1.625977c0,0 -1.427002,0.575012 -1.32901,3.033997c0,0 0.278992,2.278992 0.656006,2.953979l-1.32901,0.179016l0.575012,-8.546021c0,0 0.753998,-3.787964 -1.428009,-3.985962c0,0 -1.704987,0 -1.981995,2.281006l-0.575989,10.349976l-2.082001,0.474976l1.606995,-6.641968c0,0 0.673981,-3.708008 -1.507019,-3.609009c0,0 -2.279999,-0.098999 -2.279999,3.986023c0,0 -0.376984,5.888977 -1.527985,6.641968l-0.752991,0c0,0 2.458984,-6.44397 -0.753998,-6.542969c0,0 -1.803009,-0.278015 -1.903015,3.032959c0,0 -0.296997,3.330994 -1.328003,3.986023l-0.574982,0.098999c0,0 1.902985,-5.314026 -0.753021,-5.413025c0,0 -2.082001,0.199036 -2.182007,2.082031l-0.574982,3.330994l-1.149017,0.098999c0,0 1.723999,-3.708008 0.297028,-4.28302c0,0 -0.674011,-1.506958 -2.281006,0.377014l-1.227997,3.330994l-1.626007,-0.476013c0,0 3.428986,-3.032959 1.328003,-4.362c0,0 -0.377014,-1.049988 -1.983002,0.179016l-1.229004,2.18103l-0.674011,0.098999l-0.277985,-1.130005c0,0 2.279999,-0.674011 1.506989,-2.756042c0,0 -0.376007,-1.328979 -2.080994,-0.951965c0,0 -1.230011,0.852966 -1.32901,1.526978l-0.852997,0.098999l0,-0.951965c0,0 2.657013,-0.575012 2.380005,-2.10199c0,0 -0.298004,-2.18103 -1.626007,-1.804016c0,0 -1.884003,0.575012 -2.082001,1.526978c0,0 -1.902985,-0.377014 -0.376984,-1.328979c0,0 2.835999,-0.098999 2.93399,-0.85199c0,0 0.199005,-3.033997 -2.279999,-2.657043c0,0 -2.082001,0.575012 -1.704987,-0.574951c0,0 0.376984,-0.476013 1.050995,-0.476013c0,0 2.082001,0.098999 2.182007,-1.328003c0,0 -0.100006,-1.983032 -2.856018,-2.458984c0,0 -1.130005,-0.098999 -0.753998,-1.051025m3.312012,-25.23999l-4.34201,-6.246002c0,0 0.475006,-1.32901 1.882996,-0.694c0,0 3.509003,4.143982 4.699005,4.699005c0,0 1.269012,1.268982 -0.634003,1.884003l-1.605988,0.356995zm-0.695007,4.005005c0,0 1.686005,-1.051025 2.440002,-1.051025c0,0 0.713989,2.875 -0.61499,4.124023c0,0 -1.904022,-2.597015 -1.825012,-3.072998m1.924011,-66.759033c0,0 -1.527008,-1.962982 -0.436005,-2.617004l2.617004,-0.218994l-2.181,2.835999zm-0.595001,52.721008c0,0 1.190002,-1.109985 2.10199,-0.139008c0,0 3.152008,2.81601 3.925995,3.014008c0,0 0,2.122009 -1.269012,2.95401l-0.61499,0.554993c0,0 -4.005005,-4.42099 -4.639984,-4.480988c0,0 -0.554016,-1.46701 0.496002,-1.903015m1.684998,-10.17099c0,0 -4.104004,-2.89502 -0.990997,-5.235016c0.277985,-0.217987 1.189972,0 1.189972,0l-0.198975,5.235016zm1.309998,-37.970001c0,0 -0.437012,-1.527008 0,-2.399017c0,0 0.653992,-0.217987 1.307983,-0.217987c0,0 0.436005,1.963013 -1.307983,2.617004m0.653992,45.28598c0,0 -0.773987,-0.852997 0,-1.823975c0,0 1.050995,-0.853027 2.458008,0.336975c0,0 1.704987,1.110016 2.100983,1.269012c0.497009,0.217987 -0.85199,2.735992 -0.85199,2.735992c0,0 -3.072998,-2.378998 -3.707001,-2.518005m-0.854004,78.378021c0,0 -0.673004,-0.317993 0.358002,-1.527039l9.020996,-11.122986c0,0 1.248993,-0.396973 1.705017,0.455994l-0.496002,0.753052l-8.981018,11.876953c0,0 -0.713989,0.674011 -1.606995,-0.435974m1.131012,-58.194c-0.356995,-0.634003 0.277985,-3.231995 1.328003,-3.865997c0,0 0.852997,-0.615021 0.992004,0.911987l-0.199005,3.092987l0,0.02002c-0.337006,0.07901 -1.803009,0.395996 -2.121002,-0.158997m2.121002,-66.561005c0,0 2.835999,3.272003 3.490997,3.272003l-3.054016,0c0,0 -1.30899,-2.617004 -0.436981,-3.272003m-0.296997,60.315002c0,0 -0.634003,-1.824005 -0.218018,-2.319c0,0 0,-0.436005 1.190002,-0.337006c1.765015,0.138 0.634003,2.378998 0.634003,2.378998c-0.634003,0.694 -1.605988,0.277008 -1.605988,0.277008m-0.555023,-21.036011c0,0 0.059021,-1.388 1.468018,-0.277985c0,0 1.68399,1.46698 1.881989,2.319977c0,0 0.140015,0.912018 -0.475006,1.051025c0,0 -3.092987,-1.130005 -2.875,-3.093018m4.541016,87.241028c0,0 -5.076019,1.208984 -1.686005,-1.686035c0,0 1.686005,-2.656982 5.531006,-3.131958c0,0 17.131989,-3.867004 24.368988,-10.370056c0,0 18.597992,-11.579956 24.131012,-38.366974l0.255981,-5.550995c0.71402,-29.920013 -15.207001,-45.602997 -15.207001,-45.602997c-13.521973,-16.873993 -30.652985,-19.531006 -30.652985,-19.531006c-3.608002,-0.494995 -6.503998,-4.34201 -6.503998,-4.34201c2.656982,-0.733002 6.998993,0.71402 6.998993,0.71402c13.998993,0.475983 30.395996,17.606995 30.395996,17.606995c18.57901,18.835999 18.57901,49.231995 18.57901,49.231995c-0.239014,27.738007 -19.054993,42.946014 -19.054993,42.946014c-16.893005,15.187988 -37.156006,18.083008 -37.156006,18.083008m-2.161011,-119.541016c0,0 0.21701,-1.090027 2.834991,-0.872009c0,0 0.872009,-1.526001 1.963013,-1.963013c0,0 1.962006,0.437012 -1.746002,3.272003c0,0 0.218994,2.398987 2.182007,1.745026c0,0 0.613983,-2.439026 1.962982,-2.182007c2.39801,0.436981 -0.218994,2.835999 -0.218994,2.835999c-1.526001,1.962982 -4.579987,0.436005 -4.579987,0.436005c0,0 -1.963013,-1.963013 -2.39801,-3.272003m1.328003,59.026978l0.218018,-3.370972l5.947998,0.416992c0,0 -1.190002,2.23999 -2.934998,2.735992l-3.231018,0.217987zm2.736023,-29.106995c0,0 -2.380035,-0.970978 -1.963013,-3.013c0,0 0.832001,-1.268982 1.605988,-0.059998c0,0 -0.139008,1.190002 0.575012,1.527008c0,0 0.415985,1.130005 -0.218018,1.54599m-1.328979,22.445007c0,0 -1.269012,-3.173004 -0.416016,-4.065002c0,0 1.884003,-0.218018 3.072998,0.139008c0,0 -0.694,2.79599 -0.77298,3.211975c0,0 -0.972015,1.051025 -1.884003,0.71402m0,-7.792023c0,0 0.77298,-2.517975 1.388977,-3.429993c0,0 2.259003,0.634003 2.815002,0.554993c0,0 -0.356995,2.875 -0.911987,3.58902c0,0 -3.291992,-0.496002 -3.291992,-0.71402m1.605988,-6.582977l0,-5.195007c0,0 2.041992,-0.415985 2.875,0.496002c0,0 0.63501,1.188995 0.992004,1.46701c0,0 -1.686005,1.764984 -1.686005,2.041992c0,0 0.694,1.110992 -2.181,1.190002m1.665009,73.838013l3.628998,-6.504028c0,0 10.131989,-1.208984 15.445984,-3.151978c0,0 2.89502,-2.400024 3.865997,-3.846985c0,0 5.790009,-3.390015 6.742004,-7.237c0,0 6.999023,-8.942017 -3.132996,-24.368042l-0.238007,-11.340973c0,0 3.847015,-6.047028 0.476013,-16.893005c0,0 0,-12.550995 -9.894012,-20.026001c0,0 -6.978973,-8.921997 -11.083984,-9.894012c0,0 -0.733002,-4.34201 -1.941986,-5.075989c0,0 0.237,-3.608002 0,-4.580017c10.86499,1.684998 22.444,12.550995 22.444,12.550995c22.444,19.788025 19.787994,46.317017 19.787994,46.317017c0,23.654022 -16.893005,39.813019 -16.893005,39.813019c-12.312988,11.579956 -29.207001,14.237 -29.207001,14.237m3.153992,-105.06601c-0.436981,1.307983 -2.399994,0 -2.399994,0c0,0 -0.455994,-2.617004 1.091003,-2.617004c1.527008,0 1.30899,2.617004 1.30899,2.617004m-0.47699,46.990997c0,0 -1.328003,-0.833008 -0.613983,-2.736023c0,0 0.971985,-2.577972 2.576996,-2.577972c0,0 0.971985,-0.277008 1.487,0.059998c0.416992,0.276978 -0.85202,2.596985 -0.85202,2.596985c-0.197998,0.278015 -0.336975,1.824005 -0.336975,1.824005c-0.298004,1.40799 -2.261017,0.833008 -2.261017,0.833008m1.131012,-10.291016c0,0 1.130005,-1.406982 2.457977,-0.85199c0,0 0.833008,0.634003 0.63501,1.40799l-1.626007,0.634003c0,0 -1.962982,0.972015 -1.46698,-1.190002m-0.357025,-5.134979c0,0 0.417023,-0.694 0.991028,-0.615021c0,0 1.40799,0.417023 1.189972,0.972015c0,0 0.555023,1.190002 -1.546997,1.130005c0,0 -0.970978,-0.575012 -0.634003,-1.487m21.45401,52.384003c0,0 -0.100006,-1.031006 0.376007,-1.506042c0,0 0.85199,-0.753967 1.229004,-0.376953l-0.097992,1.605957c-0.377014,0.674011 -1.507019,0.277039 -1.507019,0.277039m2.080994,-6.760986l0.098999,-1.58606c0,0 1.428009,-0.177979 1.428009,0.198059c0,0 0.07901,1.228943 -0.674988,1.30896l-0.85202,0.079041z" id="path50"/>
         </g>
        </g>
       </g>
      </g>
      <g id="g52" transform="translate(280.5908,448.7886)">
       <path fill="#373535" stroke="#373535" stroke-width="0.1" stroke-miterlimit="4" d="m0,0c-21.731001,21.731001 -14.494,51.889 -14.494,51.889c6.761001,37.870003 42.709001,44.393997 42.709001,44.393997c0,0 -14.474,-23.158997 -16.636,-45.365997c0,0 -0.733001,-10.132 0.238,-19.053999c0,0 -9.418,-9.656 -11.579,-27.521001l-0.238,-4.342z" id="path54"/>
      </g>
      <g id="g56" transform="translate(282.5142,433.6011)">
       <path fill="#373535" stroke="#373535" stroke-width="0.1" stroke-miterlimit="4" d="m0,0c-3.628,1.447 -8.208,6.761 -8.208,6.761c-13.503,13.978 -18.341,35.451002 -18.341,35.451002c-6.742001,33.052998 12.313,55.735996 12.313,55.735996c16.655,20.521004 42.945999,25.101006 42.945999,25.101006c7.971001,0.951996 6.524002,-1.209007 6.524002,-1.209007c-0.972,-1.922997 -6.762001,-2.656998 -6.762001,-2.656998c0,0 -31.367,-4.341995 -45.841,-33.528c0,0 -13.998001,-23.178997 -3.629,-50.183998c0,0 5.077,-19.074001 19.788999,-30.415l1.209,-5.056z" id="path58"/>
      </g>
      <g id="g60" transform="translate(304.7012,420.0786)">
       <path fill="#373535" stroke="#373535" stroke-width="0.1" stroke-miterlimit="4" d="m0,0c8.446,-3.371 20.997,-2.399 20.997,-2.399c26.311998,0.476 39.814001,13.503 39.814001,13.503c32.577,22.919998 28.710003,62.732998 28.710003,62.732998c0,27.997002 -21.473007,46.317001 -21.473007,46.317001c-22.920998,20.025993 -50.420996,20.284004 -50.420996,20.284004c0,0 -34.024,0.951996 -56.231001,-27.283005c0,0 -15.425999,-17.844002 -14.473999,-49.687c0,0 2.656998,-32.100998 26.785999,-50.421999c0,0 2.657999,-2.181 5.791,-3.865999c0,0 3.628,-11.817 6.759999,-13.264c0,0 2.658,-0.734 12.294,3.37l1.447,0.714z" id="path62"/>
      </g>
      <g id="g64" transform="translate(385.0615,494.1538)">
       <path fill="#373535" stroke="#373535" stroke-width="0.1" stroke-miterlimit="4" d="m0,0c0.714,-29.919001 -15.207,-45.603001 -15.207,-45.603001c-13.522,-16.873001 -30.653001,-19.530003 -30.653001,-19.530003c-3.609001,-0.495995 -6.503998,-4.341995 -6.503998,-4.341995c2.656998,-0.734001 6.998997,0.712997 6.998997,0.712997c13.999002,0.475998 30.395001,17.607002 30.395001,17.607002c18.579,18.836998 18.579,49.231999 18.579,49.231999c-0.238,27.738001 -19.054,42.945999 -19.054,42.945999c-16.893002,15.188 -37.157001,18.083 -37.157001,18.083c0,0 -5.076,1.209 -1.684998,-1.684998c0,0 1.684998,-2.657001 5.530998,-3.133003c0,0 17.132,-3.866997 24.368,-10.369999c0,0 18.599,-11.578999 24.131,-38.365999l0.257,-5.552z" id="path66"/>
      </g>
      <g id="g68" transform="translate(340.1729,432.6294)">
       <path fill="#373535" stroke="#373535" stroke-width="0.1" stroke-miterlimit="4" d="m0,0c10.865,1.685 22.444,12.551 22.444,12.551c22.445,19.787002 19.787998,46.317 19.787998,46.317c0,23.654003 -16.892998,39.813 -16.892998,39.813c-12.313001,11.580002 -29.206001,14.236 -29.206001,14.236l3.629,-6.502998c0,0 10.132,-1.209 15.445,-3.152c0,0 2.896001,-2.400002 3.866,-3.847c0,0 5.790001,-3.390999 6.742001,-7.237c0,0 6.998999,-8.942001 -3.132,-24.368004l-0.239,-11.340996c0,0 3.847,-6.048 0.476,-16.893002c0,0 0,-12.551001 -9.894,-20.026001c0,0 -6.979,-8.922999 -11.084,-9.893999c0,0 -0.733,-4.343 -1.942,-5.076c0,0 0.237,-3.608 0,-4.58z" id="path70"/>
      </g>
      <g id="g72" transform="translate(313.8809,429.2588)">
       <path fill="#373535" stroke="#373535" stroke-width="0.1" stroke-miterlimit="4" d="m0,0c-5.552,7.475 -13.76,32.081001 -13.76,32.081001c-10.369999,32.100998 -3.132999,50.917 -3.132999,50.917c7.237,27.500999 23.813,43.025002 23.813,43.025002c0,0 3.49,2.260994 1.526999,-1.526001c0,0 -13.026999,-14.711998 -19.787999,-31.843002c0,0 -9.755001,-25.875 -2.458,-51.512001c0,0 6.205,-27.797998 15.921,-38.861998l-2.122,-2.28z" id="path74"/>
      </g>
      <g id="g76" transform="translate(329.208,538.7661)">
       <path fill="#373535" stroke="#373535" stroke-width="0.1" stroke-miterlimit="4" d="m0,0c-0.159,-0.02 -0.317,-0.04 -0.476,-0.08c-5.095,-0.773 -12.194,-5.948 -12.194,-5.948c-0.812,-1.626 -4.045,-6.483 -4.045,-6.483c-5.135,-10.250999 -2.478001,-21.454 -2.478001,-21.454c-1.625999,-9.16 -8.862999,-12.807999 -8.862999,-12.807999c1.903999,36.699999 20.522,54.504999 20.522,54.504999c0,0 6.206,-4.322 7.018,-7.554" id="path78"/>
      </g>
      <g id="g80" transform="translate(336.1074,540.0547)">
       <path fill="#373535" stroke="#373535" stroke-width="0.1" stroke-miterlimit="4" d="m0,0l-8.981,11.876c0,0 -0.714,0.674999 -1.607,-0.436001c0,0 -0.674,-0.316999 0.358001,-1.526l9.021,-11.123c0,0 1.249,-0.397 1.705,0.456l-0.496,0.753z" id="path82"/>
      </g>
      <g id="g84" transform="translate(336.6035,539.4204)">
       <path fill="#373535" stroke="#373535" stroke-width="0.1" stroke-miterlimit="4" d="m0,0l-0.496,0.634" id="path86"/>
      </g>
      <g id="g88" transform="translate(352.7236,533.1743)">
       <path fill="#373535" stroke="#373535" stroke-width="0.1" stroke-miterlimit="4" d="m0,0c0,0 -0.021,0 -0.06,0.02c-6.979,3.985 -24.348001,1.765 -24.348001,1.765c-8.267998,-0.436 -12.529999,-9.617 -12.529999,-9.617c0,0 -2.916,-4.044001 -2.698002,-16.575c0,0 0.675003,-8.962999 -1.783997,-10.529001c0,0 4.936996,-2.459 15.009998,-1.565998c0,0 1.784,0.039997 4.202999,-0.238003c4.362001,-0.495998 10.767001,-2.002998 12.353001,-6.463997c0,0 8.744,-10.984001 -0.437,-21.730999c0,0 -3.37,-8.288002 -13.225,-14.553001l-13.421999,-13.661003l2.914001,-4.480995l0.435997,1.129997c0,0 5.373001,0 8.288002,2.458c0,0 1.129999,-2.458 0.674,-3.132004c-3.450001,-5.195 23.059999,19.034004 23.059999,19.034004c9.853,7.157997 9.179,26.647999 9.179,26.647999c-0.891,5.373001 -1.347,18.122002 -1.347,18.122002c-6.703,-1.784 -9.181,5.829998 -9.181,5.829998c-0.437,-1.785 -2.24,-2.240999 -2.24,-2.240999c-0.893,0.218 -1.784,2.023001 -1.784,2.023001c-0.675,-4.937 -8.051,-7.832001 -8.051,-7.832001c-2.637001,-0.853001 -5.056,-1.030998 -7.177,-0.813c-6.92,0.674 -10.965,5.511999 -10.965,5.511999c-6.722,3.569 -3.806,17.904 -3.806,17.904c1.784,7.832 8.961,12.095001 8.961,12.095001c13.997999,4.521 26.945999,1.17 27.916999,0.912" id="path90"/>
      </g>
      <g id="g92" transform="translate(314.793,420.832)">
       <path fill="#373535" stroke="#373535" stroke-width="0.1" stroke-miterlimit="4" d="m0,0c-0.912,0.297 -2.141,0.615 -2.141,0.615c-2.241,0 -4.025,0.892 -4.025,0.892l4.025,1.566c0,0 1.169,-2.101 2.141,-3.073z" id="path94"/>
      </g>
      <g id="g96" transform="translate(314.793,420.832)">
       <path fill="#373535" stroke="#373535" stroke-width="0.1" stroke-miterlimit="4" d="m0,0c0.298,-0.297 0.556,-0.496 0.773,-0.496c0.616,0 0.04,0.238 -0.773,0.496z" id="path98"/>
      </g>
      <g id="g100" transform="translate(325.2422,434.9888)">
       <path fill="#373535" stroke="#373535" stroke-width="0.1" stroke-miterlimit="4" d="m0,0l-0.396,-0.615" id="path102"/>
      </g>
      <g id="g104" transform="translate(325.2627,434.9888)">
       <path fill="#373535" stroke="#373535" stroke-width="0.1" stroke-miterlimit="4" d="m0,0l-0.021,0" id="path106"/>
      </g>
      <g id="g108" transform="translate(325.2822,435.0283)">
       <path fill="#373535" stroke="#373535" stroke-width="0.1" stroke-miterlimit="4" d="m0,0c0,0 0,-0.02 -0.02,-0.04c-0.119,-0.456 -1.269,-4.381 -1.071,-5.194c0.695,-2.756 -2.24,-4.481 -2.24,-4.481c-1.586,-1.488 -1.27,-4.977 -1.27,-4.977l-1.308,0.476001c-1.011,2.219999 1.308,5.849 1.308,5.849c2.935,2.954 0.556,3.252 0.556,3.252c-1.526,0.276999 -5.908,-6.345 -5.908,-6.345c-0.615,0.912 -0.04,5.036 1.07,5.214c1.091001,0.179 4.759,5.076 4.759,5.076c0,0 3.529,0.496 4.084,1.13" id="path110"/>
      </g>
      <g id="g112" transform="translate(323.3193,423.251)">
       <path fill="#373535" stroke="#373535" stroke-width="0.1" stroke-miterlimit="4" d="m0,0c0,0 -1.527,-1.963 -0.437,-2.617l2.618,-0.218l-2.181,2.835z" id="path114"/>
      </g>
      <g id="g116" transform="translate(285.8057,446.6079)">
       <path fill="#373535" stroke="#373535" stroke-width="0.1" stroke-miterlimit="4" d="m0,0c0.614,1.903 2.558,9.061 2.558,9.061c-0.159,1.309 -2.241,1.348001 -2.241,1.348001c0,0 -2.498,-6.979 -2.141,-9.874c0,0 1.071,-2.914 1.824,-0.535z" id="path118"/>
      </g>
      <g id="g120" transform="translate(291.9321,454.6377)">
       <path fill="#373535" stroke="#373535" stroke-width="0.1" stroke-miterlimit="4" d="m0,0c0,0 -2.339,-7.515 -3.014,-7.931c-0.674,-0.397 -0.357,-3.033 0.972,-2.657c0,0 4.203,5.691 4.302,7.653c0.099,1.964 -2.26,2.935 -2.26,2.935z" id="path122"/>
      </g>
      <g id="g124" transform="translate(294.0737,472.1255)">
       <path fill="#373535" stroke="#373535" stroke-width="0.1" stroke-miterlimit="4" d="m0,0c-0.476,-1.07 -4.58,-6.543 -4.58,-6.543c-1.745,-5.67 -2.618,-4.144 -2.618,-4.144c-0.654,3.49 6.325,14.395 6.325,14.395c0,0 1.745,-1.745 0.873,-3.708z" id="path126"/>
      </g>
      <g id="g128" transform="translate(285.3496,441.7896)">
       <path fill="#373535" stroke="#373535" stroke-width="0.1" stroke-miterlimit="4" d="m0,0l0.654,-6.325c0,0 1.963,2.617 2.181,3.708c0.218,1.09 -2.835,2.617 -2.835,2.617z" id="path130"/>
      </g>
      <g id="g132" transform="translate(289.7114,426.3042)">
       <path fill="#373535" stroke="#373535" stroke-width="0.1" stroke-miterlimit="4" d="m0,0c-1.309,0.218 -1.963,4.798 -1.963,4.798c2.4,1.309 2.836,8.07 2.836,8.07l1.526,-0.436c0,0 -0.436,-6.761 -2.181,-8.07c-1.745,-1.308 -0.218,-4.362 -0.218,-4.362z" id="path134"/>
      </g>
      <g id="g136" transform="translate(291.6743,420.4155)">
       <path fill="#373535" stroke="#373535" stroke-width="0.1" stroke-miterlimit="4" d="m0,0c-0.872,0.853 -1.526,3.271 -1.526,3.271l1.526,0.655c2.835,4.362 3.708,13.522 3.708,13.522l2.835,-1.527c0,0 -3.053,-7.197 -2.835,-9.596c0.218,-2.399 -3.708,-6.325 -3.708,-6.325z" id="path138"/>
      </g>
      <g id="g140" transform="translate(298.2173,423.9053)">
       <path fill="#373535" stroke="#373535" stroke-width="0.1" stroke-miterlimit="4" d="m0,0c-1.963,-0.991 3.054,10.469 3.054,10.469l3.925,-2.399c0,0 -5.67,-7.416 -6.979,-8.07z" id="path142"/>
      </g>
      <g id="g144" transform="translate(308.8652,431.8364)">
       <path fill="#373535" stroke="#373535" stroke-width="0.1" stroke-miterlimit="4" d="m0,0c-0.496,-0.992 -3.589,-7.099 -5.195,-7.495c0,0 6.979,1.527 8.962,2.399c0.713,0.317 -3.034,4.124 -3.767,5.096z" id="path146"/>
      </g>
      <g id="g148" transform="translate(308.8652,431.8364)">
       <path fill="#373535" stroke="#373535" stroke-width="0.1" stroke-miterlimit="4" d="m0,0c-0.219,0.257 -0.219,0.317 0.06,0.139c0,0 -0.021,-0.04 -0.06,-0.139z" id="path150"/>
      </g>
      <g id="g152" transform="translate(296.0366,464.9282)">
       <path fill="#373535" stroke="#373535" stroke-width="0.1" stroke-miterlimit="4" d="m0,0c-0.654,-2.399 -5.017,-6.325 -5.017,-6.325c-0.654,3.054 4.58,10.469 4.58,10.469l0.437,-4.144z" id="path154"/>
      </g>
      <g id="g156" transform="translate(297.3452,461.6567)">
       <path fill="#373535" stroke="#373535" stroke-width="0.1" stroke-miterlimit="4" d="m0,0c0,0 -2.617,-4.144 -2.181,-5.69c0,0 2.181,0.654 3.053,1.962l-0.872,3.728z" id="path158"/>
      </g>
      <g id="g160" transform="translate(300.1807,453.7852)">
       <path fill="#373535" stroke="#373535" stroke-width="0.1" stroke-miterlimit="4" d="m0,0c-0.437,1.527 -1.527,1.309 -1.527,1.309c0,0 -0.436,-1.309 0.218,-2.182l1.745,-0.654l-0.436,1.527z" id="path162"/>
      </g>
      <g id="g164" transform="translate(297.127,450.5137)">
       <path fill="#373535" stroke="#373535" stroke-width="0.1" stroke-miterlimit="4" d="m0,0c0,0 -1.527,-6.107 -2.835,-6.761c0,0 -0.436,-1.963 0.436,-2.836c0,0 3.272,1.091001 4.144,3.054c0,0 0.218,4.144 1.09,5.016l-2.835,1.527z" id="path166"/>
      </g>
      <g id="g168" transform="translate(302.3613,446.3696)">
       <path fill="#373535" stroke="#373535" stroke-width="0.1" stroke-miterlimit="4" d="m0,0c0,0 -0.436,-6.761 -2.399,-7.633c0,0 0.218,-0.873 1.745,-1.091c0,0 3.053,3.271 2.835,4.798l-2.181,3.926z" id="path170"/>
      </g>
      <g id="g172" transform="translate(305.8511,438.2998)">
       <path fill="#373535" stroke="#373535" stroke-width="0.1" stroke-miterlimit="4" d="m0,0c0,0 -1.09,-1.309 -0.873,-2.399l2.618,-1.09l-1.745,3.489z" id="path174"/>
      </g>
      <g id="g176" transform="translate(325.7188,427.8311)">
       <path fill="#373535" stroke="#373535" stroke-width="0.1" stroke-miterlimit="4" d="m0,0c0,0 -0.437,-1.527 0,-2.399c0,0 0.654,-0.218 1.309,-0.218c0,0 0.435,1.963 -1.309,2.617z" id="path178"/>
      </g>
      <g id="g180" transform="translate(329.208,430.0122)">
       <path fill="#373535" stroke="#373535" stroke-width="0.1" stroke-miterlimit="4" d="m0,0c0,0 -1.309,-2.617 -0.437,-3.271c0,0 2.836,3.271 3.491,3.271l-3.054,0z" id="path182"/>
      </g>
      <g id="g184" transform="translate(337.4961,433.7197)">
       <path fill="#373535" stroke="#373535" stroke-width="0.1" stroke-miterlimit="4" d="m0,0c-1.349,-0.258 -1.963,2.181 -1.963,2.181c-1.963,0.654 -2.182,-1.744 -2.182,-1.744c3.708,-2.836 1.746,-3.272 1.746,-3.272c-1.091,0.436 -1.963,1.962 -1.963,1.962c-2.617,-0.217 -2.835,0.873 -2.835,0.873c0.435,1.309 2.398,3.271 2.398,3.271c0,0 3.054,1.527 4.58,-0.436c0,0 2.617,-2.398 0.219,-2.835z" id="path186"/>
      </g>
      <g id="g188" transform="translate(338.1504,437.8638)">
       <path fill="#373535" stroke="#373535" stroke-width="0.1" stroke-miterlimit="4" d="m0,0c-1.547,0 -1.091,2.617 -1.091,2.617c0,0 1.963,1.309 2.4,0c0,0 0.217,-2.617 -1.309,-2.617z" id="path190"/>
      </g>
      <g id="g192" transform="translate(305.1968,489.356)">
       <path fill="#373535" stroke="#373535" stroke-width="0.1" stroke-miterlimit="4" d="m0,0c0,0 -3.49,-1.963 -3.271,-3.926c0,0 1.308,0.655 2.835,1.527c0,0 1.963,1.308 0.436,2.399z" id="path194"/>
      </g>
      <g id="g196" transform="translate(303.6699,482.3765)">
       <path fill="#373535" stroke="#373535" stroke-width="0.1" stroke-miterlimit="4" d="m0,0c0,0 3.926,2.181 4.799,3.926c0.891,1.745 2.2,0.654 2.2,0.654l-3.073,-4.362c0,0 0.892,-0.872 -0.872,-1.091c-1.745,-0.217 -3.054,0.873 -3.054,0.873z" id="path198"/>
      </g>
      <g id="g200" transform="translate(310.2334,469.5083)">
       <path fill="#373535" stroke="#373535" stroke-width="0.1" stroke-miterlimit="4" d="m0,0c0,0 -2.201,1.091 1.744,5.234c0,0 1.745,3.49 4.145,1.964c0,0 2.835,1.09 -0.437,-3.054c0,0 -2.617,-5.453 -5.452,-4.144z" id="path202"/>
      </g>
      <g id="g204" transform="translate(320.7021,473.6523)">
       <path fill="#373535" stroke="#373535" stroke-width="0.1" stroke-miterlimit="4" d="m0,0c0,0 -5.889,-5.889 -4.145,-6.761c0,0 0.437,-3.708 4.145,0.436c0,0 2.398,1.527 1.963,3.49c0,0 -1.309,2.617 -1.963,2.835z" id="path206"/>
      </g>
      <g id="g208" transform="translate(310.4512,454.0034)">
       <path fill="#373535" stroke="#373535" stroke-width="0.1" stroke-miterlimit="4" d="m0,0c0,0 -3.49,0.654 0.654,6.345c0,0 4.798,5.888 4.58,1.308l-4.797,-6.999l-0.437,-0.654z" id="path210"/>
      </g>
      <g id="g212" transform="translate(311.998,450.1172)">
       <path fill="#373535" stroke="#373535" stroke-width="0.1" stroke-miterlimit="4" d="m0,0c0,0 -0.06,-0.079 -0.159,-0.218c-0.318,-0.476 -0.912,-1.606 0.357,-1.606c1.625,0 4.005,4.342 4.005,4.342c0.218,1.546 4.759,4.977 4.759,4.977c-0.139,0.416 -2.241,1.824 -2.241,1.824c-1.249,-0.774 -3.569,-5.393 -3.569,-5.393c-0.912,-1.963 -3.292,-4.144 -3.292,-4.144" id="path214"/>
      </g>
      <g id="g216" transform="translate(317.252,446.3301)">
       <path fill="#373535" stroke="#373535" stroke-width="0.1" stroke-miterlimit="4" d="m0,0c6.305,6.444 7.356,8.823 7.356,8.823c0.139,2.459 -0.615,1.488 -0.615,1.488c0,0 -4.282,-4.283 -4.143,-4.858c0.138,-0.556 -5.612,-6.087 -5.612,-6.087c0,0 -0.833,-1.19 -0.357,-1.765c0,0 0.852,-0.615 2.399,0.773l0.972,1.626z" id="path218"/>
      </g>
      <g id="g220" transform="translate(324.4092,465.8203)">
       <path fill="#373535" stroke="#373535" stroke-width="0.1" stroke-miterlimit="4" d="m0,0l0,-0.02" id="path222"/>
      </g>
      <g id="g224" transform="translate(323.418,460.5664)">
       <path fill="#373535" stroke="#373535" stroke-width="0.1" stroke-miterlimit="4" d="m0,0c-3.112,2.339 0.991,5.234 0.991,5.234l0.199,-5.234c0,0 -0.912,-0.218 -1.19,0z" id="path226"/>
      </g>
      <g id="g228" transform="translate(307.0801,466.7324)">
       <path fill="#373535" stroke="#373535" stroke-width="0.1" stroke-miterlimit="4" d="m0,0c0,0 -0.416,-4.5 0.278,-5.889c0,0 2.736,3.292 3.589,4.264c0,0 -1.964,0.495 -2.38,0.356c0,0 -0.773,1.547 -1.487,1.269z" id="path230"/>
      </g>
      <g id="g232" transform="translate(329.168,462.0337)">
       <path fill="#373535" stroke="#373535" stroke-width="0.1" stroke-miterlimit="4" d="m0,0c0,0 -1.249,0.198 -1.189,-1.765c0,0 -0.416,-0.912 0.416,-0.833c0,0 1.051,0 1.408,1.051c0,0 0.138,1.467 -0.555,1.963" id="path234"/>
      </g>
      <g id="g236" transform="translate(334.3633,463.6396)">
       <path fill="#373535" stroke="#373535" stroke-width="0.1" stroke-miterlimit="4" d="m0,0c0,0 -2.38,-0.972 -1.963,-3.014c0,0 0.832,-1.269 1.606,-0.059c0,0 -0.139,1.189 0.575,1.526c0,0 0.416,1.13 -0.218,1.547z" id="path238"/>
      </g>
      <g id="g240" transform="translate(330.7939,469.1118)">
       <path fill="#373535" stroke="#373535" stroke-width="0.1" stroke-miterlimit="4" d="m0,0c0,0 -3.093,-1.13 -2.875,-3.093c0,0 0.06,-1.388 1.468,-0.278c0,0 1.684,1.468 1.883,2.32c0,0 0.139,0.912 -0.476,1.051z" id="path242"/>
      </g>
      <g id="g244" transform="translate(334.6406,471.7095)">
       <path fill="#373535" stroke="#373535" stroke-width="0.1" stroke-miterlimit="4" d="m0,0l0,-5.195c0,0 2.042,-0.416 2.875,0.496c0,0 0.635,1.189 0.991,1.467c0,0 -1.685,1.765 -1.685,2.042c0,0 0.694,1.11 -2.181,1.19z" id="path246"/>
      </g>
      <g id="g248" transform="translate(330.9326,472.8989)">
       <path fill="#373535" stroke="#373535" stroke-width="0.1" stroke-miterlimit="4" d="m0,0c-0.396,-0.159 -2.102,-1.269 -2.102,-1.269c-1.407,-1.189 -2.458,-0.337 -2.458,-0.337c-0.773,0.972 0,1.824 0,1.824c0.634,0.139 3.707,2.518 3.707,2.518c0,0 1.349,-2.518 0.853,-2.736z" id="path250"/>
      </g>
      <g id="g252" transform="translate(340.3906,473.5332)">
       <path fill="#373535" stroke="#373535" stroke-width="0.1" stroke-miterlimit="4" d="m0,0c0,0 -0.972,-0.575 -0.635,-1.487c0,0 0.417,-0.694 0.991,-0.615c0,0 1.409,0.417 1.191,0.972c0,0 0.555,1.19 -1.547,1.13z" id="path254"/>
      </g>
      <g id="g256" transform="translate(341.5801,478.3716)">
       <path fill="#373535" stroke="#373535" stroke-width="0.1" stroke-miterlimit="4" d="m0,0c0,0 -1.963,0.971 -1.467,-1.19c0,0 1.13,-1.408 2.458,-0.852c0,0 0.833,0.634 0.635,1.407l-1.626,0.635z" id="path258"/>
      </g>
      <g id="g260" transform="translate(336.3262,479.0059)">
       <path fill="#373535" stroke="#373535" stroke-width="0.1" stroke-miterlimit="4" d="m0,0c0,0 -3.292,-0.496 -3.292,-0.714c0,0 0.773,-2.518 1.389,-3.43c0,0 2.259,0.635 2.815,0.555c0,0 -0.357,2.875 -0.912,3.589z" id="path262"/>
      </g>
      <g id="g264" transform="translate(305.1968,472.4033)">
       <path fill="#373535" stroke="#373535" stroke-width="0.1" stroke-miterlimit="4" d="m0,0c-0.813,0.456 -1.13,1.685 -1.13,1.685c-0.278,1.745 1.13,3.787 1.13,3.787c0,0 3.093,-0.555 4.283,0.357c0,0 -0.139,-2.042 -1.349,-2.875c0,0 -1.962,-3.509 -2.934,-2.954z" id="path266"/>
      </g>
      <g id="g268" transform="translate(317.748,487.2739)">
       <path fill="#373535" stroke="#373535" stroke-width="0.1" stroke-miterlimit="4" d="m0,0c0,0 -3.292,-1.051 -4.561,-3.371c0,0 -1.606,-2.181 -2.042,-2.458c0,0 1.904,-0.833 3.371,-0.417c0,0 2.815,4.065 3.371,4.481c0,0 1.764,1.765 -0.139,1.884c-0.06,0.02 -0.14,0.02 -0.219,0.02" id="path270"/>
      </g>
      <g id="g272" transform="translate(322.0898,486.0049)">
       <path fill="#373535" stroke="#373535" stroke-width="0.1" stroke-miterlimit="4" d="m0,0l-4.342,-6.246c0,0 0.476,-1.328 1.883,-0.693c0,0 3.51,4.144 4.699,4.699c0,0 1.27,1.268 -0.634,1.883l-1.606,0.357z" id="path274"/>
      </g>
      <g id="g276" transform="translate(326.8682,482.3564)">
       <path fill="#373535" stroke="#373535" stroke-width="0.1" stroke-miterlimit="4" d="m0,0c0,0 -4.005,-4.421 -4.64,-4.481c0,0 -0.554,-1.467 0.496,-1.903c0,0 1.19,-1.111 2.102,-0.139c0,0 3.152,2.815 3.926,3.014c0,0 0,2.121 -1.269,2.954l-0.615,0.555z" id="path278"/>
      </g>
      <g id="g280" transform="translate(329.4463,484.3989)">
       <path fill="#373535" stroke="#373535" stroke-width="0.1" stroke-miterlimit="4" d="m0,0c-1.19,-0.099 -1.19,0.337 -1.19,0.337c-0.416,0.496 0.218,2.32 0.218,2.32c0,0 0.972,0.416 1.606,-0.278c0,0 1.131,-2.24 -0.634,-2.379z" id="path282"/>
      </g>
      <g id="g284" transform="translate(333.0342,486.0845)">
       <path fill="#373535" stroke="#373535" stroke-width="0.1" stroke-miterlimit="4" d="m0,0c0,0 -1.269,-3.173 -0.416,-4.065c0,0 1.884,-0.218 3.073,0.139c0,0 -0.694,2.796 -0.773,3.212c0,0 -0.972,1.051 -1.884,0.714z" id="path286"/>
      </g>
      <g id="g288" transform="translate(342.4326,482.2178)">
       <path fill="#373535" stroke="#373535" stroke-width="0.1" stroke-miterlimit="4" d="m0,0c-0.516,-0.337 -1.487,-0.06 -1.487,-0.06c-1.606,0 -2.577,2.578 -2.577,2.578c-0.714,1.904 0.614,2.736 0.614,2.736c0,0 1.963,0.576 2.261,-0.832c0,0 0.138,-1.547 0.336,-1.824c0,0 1.27,-2.32 0.853,-2.598z" id="path290"/>
      </g>
      <g id="g292" transform="translate(331.627,492.7461)">
       <path fill="#373535" stroke="#373535" stroke-width="0.1" stroke-miterlimit="4" d="m0,0l0.218,-3.371l5.948,0.417c0,0 -1.189,2.241 -2.935,2.736l-3.231,0.218z" id="path294"/>
      </g>
      <g id="g296" transform="translate(328.7715,493.46)">
       <path fill="#373535" stroke="#373535" stroke-width="0.1" stroke-miterlimit="4" d="m0,0l-0.02,0.258" id="path298"/>
      </g>
      <g id="g300" transform="translate(328.8311,493.4404)">
       <path fill="#373535" stroke="#373535" stroke-width="0.1" stroke-miterlimit="4" d="m0,0l-0.06,0l0,0.02c-0.336,0.079 -1.803,0.396 -2.121,-0.159c-0.357,-0.634 0.278,-3.232 1.328,-3.866c0,0 0.853,-0.615 0.992,0.912l-0.199,3.093" id="path302"/>
      </g>
      <g id="g304" transform="translate(323.2197,493.0835)">
       <path fill="#373535" stroke="#373535" stroke-width="0.1" stroke-miterlimit="4" d="m0,0c0,0 -1.903,-2.598 -1.824,-3.073c0,0 1.685,-1.051 2.439,-1.051c0,0 0.714,2.874 -0.615,4.124z" id="path306"/>
      </g>
      <g id="g308" transform="translate(317.6084,491.3979)">
       <path fill="#373535" stroke="#373535" stroke-width="0.1" stroke-miterlimit="4" d="m0,0c1.884,0.238 1.884,2.042 1.884,2.042l-3.787,0.139c0,0 0.218,-2.379 1.903,-2.181z" id="path310"/>
      </g>
      <g id="g312" transform="translate(310.4512,494.8481)">
       <path fill="#373535" stroke="#373535" stroke-width="0.1" stroke-miterlimit="4" d="m0,0c0,0 -1.686,0.416 -1.606,-0.714c0,0 -0.278,-1.051 1.05,-0.912c0,0 1.25,-0.337 1.686,0.634c0,0 0.475,0.555 -1.13,0.992z" id="path314"/>
      </g>
      <g id="g316" transform="translate(313.9609,489.792)">
       <path fill="#373535" stroke="#373535" stroke-width="0.1" stroke-miterlimit="4" d="m0,0c0,0 -0.853,-1.408 -1.686,0.357c-0.833,1.745 0.555,1.685 0.555,1.685c0,0 2.102,-0.773 1.131,-2.042z" id="path318"/>
      </g>
      <g id="g320" transform="translate(352.4658,507.2603)">
       <path fill="#373535" stroke="#373535" stroke-width="0.1" stroke-miterlimit="4" d="m0,0c0,0 -0.179,-0.853 0.198,-1.229c0,0 0.853,-0.477 1.507,0.654c0,0 0.872,2.28 2.577,1.428c0,0 1.705,-0.754 0.477,-2.281c0,0 -1.626,-0.951 -0.952,-2.28c0,0 0.852,-0.753 2.28,-0.555c0,0 0.932,0.476 0.079,1.983c0,0 -1.229,1.804 0.575,2.28c0,0 1.904,0.575 2.181,-0.853c0,0 -0.377,-1.229 0.773,-0.952c0,0 1.705,0.476 0.655001,1.626c0,0 -0.853001,-0.476 -1.606,0.179c0,0 -0.575001,1.606 0.375999,2.002c0,0 1.031,1.031 1.805,0.278c0,0 0.951,0.198 0.377,1.051c0,0 -1.051,0.277 -0.853,1.13c0,0 0.573999,1.229 1.328,1.051c0,0 0.575999,0.555 0.099,1.229l-1.328,0.139" id="path322"/>
      </g>
      <g id="g324" transform="translate(363.3906,516.0835)">
       <path fill="#373535" stroke="#373535" stroke-width="0.1" stroke-miterlimit="4" d="m0,0c0,0 1.428,-0.179 1.428,0.198c0,0 0.079,1.229 -0.675,1.309l-0.853,0.079l0.1,-1.586z" id="path326"/>
      </g>
      <g id="g328" transform="translate(362.915,519.791)">
       <path fill="#373535" stroke="#373535" stroke-width="0.1" stroke-miterlimit="4" d="m0,0c0,0 0.376,-0.476 0.951,-0.278c0,0 0.952,0.377 0.654,1.031c0,0 -0.752,0.952 -1.229,0.576c0,0 -0.416,-0.695 -0.416,-1.131" id="path330"/>
      </g>
      <g id="g332" transform="translate(362.8154,522.5469)">
       <path fill="#373535" stroke="#373535" stroke-width="0.1" stroke-miterlimit="4" d="m0,0c-0.377,-0.376 -1.229,0.377 -1.229,0.377c-0.476,0.476 -0.376,1.507 -0.376,1.507c0,0 1.129,0.396 1.506,-0.278l0.099,-1.606z" id="path334"/>
      </g>
      <g id="g336" transform="translate(358.8105,524.4106)">
       <path fill="#373535" stroke="#373535" stroke-width="0.1" stroke-miterlimit="4" d="m0,0c-0.1,0.357 -0.516,2.142 1.447,2.3" id="path338"/>
      </g>
      <g id="g340" transform="translate(360.2578,526.7109)">
       <path fill="#373535" stroke="#373535" stroke-width="0.1" stroke-miterlimit="4" d="m0,0l0,-2.359l-1.328,0l-0.1,0c0,0 0,0.019 -0.019,0.039" id="path342"/>
      </g>
      <g id="g344" transform="translate(358.4531,524.5298)">
       <path fill="#373535" stroke="#373535" stroke-width="0.1" stroke-miterlimit="4" d="m0,0c0,0 -2.756,1.051 -2.28,2.379c0,0 -0.099,0.853 0.575,1.13c0,0 0.754,0.952 0.278,1.428c0,0 -1.329,-0.178 -1.229,-0.952l0,-3.212c0,0 0.177,-2.28 -2.281,-1.626c0,0 -1.427,0.575 -1.329,3.034c0,0 0.279,2.28 0.656,2.954l-1.329,0.179l0.575,-8.546c0,0 0.754,-3.787 -1.428,-3.985c0,0 -1.705,0 -1.982,2.28l-0.576,10.35l-2.082,0.476l1.607,-6.642c0,0 0.674,-3.708 -1.507,-3.609c0,0 -2.28,-0.099 -2.28,3.985c0,0 -0.377001,5.889 -1.528,6.643l-0.753,0c0,0 2.459,-6.444 -0.753,-6.544c0,0 -1.804001,-0.277 -1.903999,3.034c0,0 -0.297001,3.331 -1.328001,3.985l-0.574999,0.099c0,0 1.903,-5.313 -0.753,-5.412c0,0 -2.082001,0.198 -2.182001,2.081l-0.574999,3.331l-1.149,0.099c0,0 1.723999,-3.707 0.296999,-4.282c0,0 -0.674,-1.507 -2.281,0.377l-1.227999,3.331l-1.626001,-0.476c0,0 3.429001,-3.034 1.328001,-4.362c0,0 -0.377001,-1.051 -1.982,0.178l-1.23,2.181l-0.674,0.099l-0.278,-1.13c0,0 2.279999,-0.674 1.507,-2.756c0,0 -0.375999,-1.328 -2.081001,-0.952c0,0 -1.23,0.853 -1.328999,1.527l-0.853001,0.099l0,-0.951c0,0 2.657001,-0.575 2.380001,-2.102c0,0 -0.298,-2.181 -1.625999,-1.804c0,0 -1.884003,0.575 -2.082001,1.526c0,0 -1.903,-0.377 -0.377003,-1.328c0,0 2.836002,-0.099 2.934002,-0.853c0,0 0.199001,-3.033 -2.279999,-2.657c0,0 -2.082001,0.575 -1.705002,-0.575c0,0 0.376999,-0.475 1.050999,-0.475c0,0 2.082001,0.099 2.182003,-1.329c0,0 -0.100002,-1.983001 -2.856003,-2.458c0,0 -1.129997,-0.1 -0.753998,-1.052c0,0 0.674999,-1.13 1.805,0c0,0 2.279999,1.705999 2.855,0c0,0 0.375999,-2.756001 -2.955002,-3.707001c0,0 -1.129997,0.198 -0.851997,-0.931999c0,0 0.851997,-1.725 1.803997,-0.952c0,0 0.278,1.507 1.527,2.181c0,0 1.606003,1.329 2.280003,0.555c0,0 1.704998,-1.606001 -0.297001,-3.311001c0,0 -2.556999,-1.605999 -1.705002,-2.756001c0,0 0.753002,-0.574999 1.427002,-0.177999c0,0 0.851997,2.082001 1.229,2.656c0,0 1.427999,1.329 2.379999,0.655001c0,0 1.229,-1.328001 0.099001,-3.133001c0,0 -0.575001,-1.903 0.078999,-1.981998c0,0 1.805,-0.576 2.003,0.276999c0,0 0,0.753 -0.298,1.606001c0,0 -0.177999,2.756001 1.25,2.657c0,0 1.804001,0.476 2.081001,-2.657c0,0 -0.198,-1.983 0.278,-2.082001c0,0 1.248999,-0.278 1.705999,0.199001c0,0 0,0.474998 -0.754,1.505999c0,0 -1.23,3.133001 0.476,3.708c0,0 2.278999,0.952 3.132,-2.934c0,0 0,-0.774 1.15,-0.198999c0,0 1.785,0.476 -0.198,2.082001c0,0 -2.556999,2.181 -1.327999,3.886c0,0 1.605,1.249 2.557999,0c0,0 1.050001,-2.082001 1.803001,-2.181c0,0 1.150999,0.198 1.150999,0.952c0,0 -0.099999,0.852999 -1.249001,1.229c0,0 -2.459,1.249 -1.507,2.756c0,0 1.328001,1.427999 2.756001,0.575c0,0 0.852,-0.476 1.031,-0.852c0,0 0.575,-0.853 1.626,0c0,0 1.882999,0.952001 3.212,-0.099c0,0 1.626,-0.754 2.181,-0.179c0,0 1.725,1.23 2.379,0.753c0,0 0.555,-0.198 0.952,-0.594c0.475,-0.476 0.773,-1.190001 -0.199,-2.161c0,0 -1.982,0 -2.18,-1.329" id="path346"/>
      </g>
      <g id="g348" transform="translate(332.0635,512.772)">
       <path fill="#373535" stroke="#373535" stroke-width="0.1" stroke-miterlimit="4" d="m0,0c-3.609,-0.317 -3.688,3.688 -3.688,3.688c0,3.43 3.509,3.331 3.509,3.331c0,0 2.658,0.099 3.787,-2.657c0,0 0.853,-3.985 -3.608,-4.362z" id="path350"/>
      </g>
      <g id="g352" transform="translate(332.5391,511.2451)">
       <path fill="#373535" stroke="#373535" stroke-width="0.1" stroke-miterlimit="4" d="m0,0c-5.79,-0.753 -5.492,5.136 -5.492,5.136c-0.198,3.985 3.589,5.313 3.589,5.313c0,0 2.577,1.030999 5.313,-1.903001c0,0 4.243,-7.534999 -3.41,-8.546z" id="path354"/>
      </g>
      <g id="g356" transform="translate(340.6084,514.854)">
       <path fill="#373535" stroke="#373535" stroke-width="0.1" stroke-miterlimit="4" d="m0,0c-1.051,-5.036 -4.659,-6.464 -4.659,-6.464c-1.607,-1.408 -6.345,-0.654 -6.345,-0.654c-5.611,1.804 -5.988001,6.92 -5.988001,6.92c-1.029999,4.659 2.557,8.446 2.557,8.446c0,0 2.479,2.479 5.038,2.28c0,0 4.659,-0.375999 6.543,-2.557c0,0 3.806,-3.411 2.854,-7.971z" id="path358"/>
      </g>
      <g id="g360" transform="translate(358.5527,512.9507)">
       <path fill="#373535" stroke="#373535" stroke-width="0.1" stroke-miterlimit="4" d="m0,0c-1.526,0.139 -1.726,3.133 -1.726,3.133c-0.455,2.002 1.33,3.608 1.33,3.608c0,0 1.903,1.051 2.28,-0.852c0,0 1.428,-6.167 -1.884,-5.889z" id="path362"/>
      </g>
      <g id="g364" transform="translate(358.3545,511.5229)">
       <path fill="#373535" stroke="#373535" stroke-width="0.1" stroke-miterlimit="4" d="m0,0c-3.708,1.329 -3.034,5.512 -3.034,5.512c0,2.082 2.558,3.986 2.558,3.986c0,0 2.657,0.673 3.232,-1.607c0,0 2.082,-4.937 -0.952,-7.316c0,0 -0.932,-0.872 -1.804,-0.575z" id="path366"/>
      </g>
      <g id="g368" transform="translate(362.9941,514.1401)">
       <path fill="#373535" stroke="#373535" stroke-width="0.1" stroke-miterlimit="4" d="m0,0c-0.238,-2.161 -0.912,-4.541 -2.736,-5.354c-2.281,-1.03 -3.708,0.933 -3.708,0.933c-0.634,0.317 -1.17,0.713 -1.585999,1.15c-2.498,2.478 -1.725,6.265 -1.725,6.265c0.178,4.461 3.509,7.019 3.509,7.019c0,0 1.329,0.575001 1.705,0.377001c0,0 0.139,-0.04 0.357,-0.119l0,-0.02c0.039,0 0.08,-0.02 0.12,-0.04c1.01,-0.416 3.331,-1.665001 3.945,-4.362c0.019,-0.059 0.019,-0.119 0.04,-0.198c0.099,-0.476 0.139,-1.011 0.099,-1.606c0,0 0.217,-1.923 -0.02,-4.045z" id="path370"/>
      </g>
     </g>
    </g>
    <g id="g372">
     <g id="g374" clip-path="url(#clipPath376)">
      <g id="g380"/>
      <g id="g390">
       <g clip-path="url(#clipPath382)" id="g392">
        <g id="g394"/>
        <g id="g396">
         <g clip-path="url(#clipPath386)" id="g398">
          <path fill="#373535" fill-rule="nonzero" d="m329.46579,414.130402c2.419006,0.040009 2.002014,-1.428009 2.002014,-1.428009c-0.02002,-0.673981 -0.436005,-0.415985 -0.892029,-0.613983c-0.753998,-0.356995 -1.565979,0.078979 -1.565979,0.078979l-0.179016,-5.75c2.10202,0.218018 2.082001,-0.53598 2.082001,-0.53598c-0.098999,-1.229004 -0.891998,-1.486023 -0.891998,-1.486023l-9.815002,0.039001c-0.474976,0.159027 -2.140991,1.725006 -2.140991,1.725006c-1.983002,1.428009 -1.54599,3.410004 -1.54599,3.410004c0.138,2.79599 4.816986,4.28299 4.816986,4.28299l8.130005,0.278015zm-8.783997,-6.484009c0,0 0.376984,-1.188995 1.824005,-1.388l2.735992,-0.177979l-0.15799,6.007996l-3.331024,0c0,0 -1.585999,-1.348999 -1.625977,-2.855011c0,0 -0.019012,-1.149994 0.554993,-1.587006" id="path400"/>
          <path fill="#373535" fill-rule="nonzero" d="m399.457001,528.614319c0.395996,-1.010986 -0.455994,-1.645996 -0.455994,-1.645996c-0.615021,-0.119019 -1.32901,0.63501 -1.32901,0.63501c-0.397003,0.476013 -0.832001,0.118958 -0.832001,0.118958c-0.278992,-0.217957 -1.428009,-1.149963 -1.428009,-1.149963c-1.109985,-1.388 -3.608002,-0.754028 -3.608002,-0.754028c-1.646973,0.356995 -3.469971,3.213013 -3.469971,3.213013c-1.606018,2.617004 -1.210022,4.837036 -1.210022,4.837036c-0.039978,1.487 3.747009,3.667969 3.747009,3.667969c0.397003,0.119995 -0.494995,1.546997 -0.494995,1.546997c-0.277008,0.63501 0.971985,1.070984 0.971985,1.070984c1.209015,0.317017 2.061005,-1.685974 2.061005,-1.685974c0.257996,-0.534973 1.864014,-3.429993 1.864014,-3.429993c0.177979,-0.713989 -0.357025,-1.070007 -0.357025,-1.070007c-0.455994,-0.099976 -1.645996,0.85199 -1.645996,0.85199c-0.177979,0.218018 -0.931,0 -0.931,0c-0.416992,-0.059998 -1.566986,-1.169983 -1.566986,-1.169983c-1.328003,-0.932007 -0.931,-2.716003 -0.931,-2.716003c0.257996,-0.971985 2.080994,-2.439026 2.080994,-2.439026c1.56601,-1.427002 3.48999,0.61499 3.48999,0.61499c0.654022,0.17804 0.357025,1.506042 0.357025,1.506042c-0.416016,1.348999 0.791992,1.487976 0.791992,1.487976c0.852997,-0.098999 2.895996,-3.48999 2.895996,-3.48999" id="path402"/>
          <path fill="#373535" fill-rule="nonzero" d="m395.828094,451.604004c0,0 0.61499,-0.694 -0.02002,-1.526001c0,0 -2.021973,-2.638 -2.338989,-3.669006c0,0 -0.852997,-0.694 -1.488007,-0.454987c0,0 -1.129974,0.653992 -0.237,2.121002c0,0 -2.617004,2.082001 -3.48999,2.398987c0,0 -0.494995,-0.296997 -0.674011,-0.61499c0,0 -0.713989,-0.753021 -1.446991,-0.476013c0,0 -0.713989,0.972015 -0.040009,1.686005l2.201019,3.786987c0,0 1.010986,1.011017 1.546997,0.932007c0,0 0.990997,-0.277985 0.177002,-1.962982c0,0 -0.197998,-0.15802 0.139008,-0.456024l3.311981,-2.220978c0,0 0.317017,-0.02002 0.733002,0.257996c0,0 1.209991,0.653992 1.626007,0.197998" id="path404"/>
          <path fill="#373535" fill-rule="nonzero" d="m326.313507,570.390625c0.118011,1.031006 -0.893005,1.724976 -0.893005,1.724976c-1.783997,1.170044 -5.095001,0.554993 -5.095001,0.554993c0,0 -2.636993,-0.990967 -1.645996,-3.151978c0,0 0.296997,-2.180969 4.402008,-1.804993c0,0 2.835999,-0.276978 3.231995,2.677002m3.053009,1.328979c1.031006,-1.704956 -0.674011,-3.411011 -0.674011,-3.411011c-1.248993,-1.149963 -0.694,-1.585999 -0.694,-1.585999c1.269012,0.218018 1.824005,-0.237976 1.824005,-0.237976c0,-0.674011 -1.368011,-1.922974 -1.368011,-1.922974c-1.248993,-0.912048 -5.453003,-0.357056 -5.453003,-0.357056c-0.21698,0.456055 -0.672974,0.79303 -0.672974,0.79303c-4.89801,0.694031 -6.147003,3.429993 -6.147003,3.429993c-1.705017,1.744995 0,3.945984 0,3.945984c2.16098,2.756042 5.451996,2.637024 5.451996,2.637024l1.824982,0.119019c3.073029,-0.119019 5.90802,-3.410034 5.90802,-3.410034" id="path406"/>
          <path fill="#373535" fill-rule="nonzero" d="m261.497101,447.956085c0.277008,-1.686005 -0.356995,-1.962982 -0.356995,-1.962982c-0.515991,-0.238007 -1.248993,0.356995 -1.248993,0.356995c-0.197998,0.337006 -0.63501,0.653992 -0.63501,0.653992c-0.197998,-0.337006 -3.350006,-2.161011 -3.350006,-2.161011c-0.119003,-0.15799 -0.119003,-1.605988 -0.119003,-1.605988c-0.158997,-1.190002 -0.991989,-1.031006 -0.991989,-1.031006c-1.289001,0.07901 -2.439011,3.627991 -2.439011,3.627991c-0.117996,0.675018 0.595001,6.762024 0.595001,6.762024c-0.237991,-0.040009 -1.843994,-1.091003 -1.843994,-1.091003c-0.119003,-0.278015 0.436005,-0.634003 0.436005,-0.634003c0.278,-0.873016 -0.396011,-1.527008 -0.396011,-1.527008c-0.595001,-0.436005 -1.466995,0.416016 -1.466995,0.416016c-0.199005,1.625977 -2.121994,2.71698 -2.121994,2.71698c-0.872009,2.755005 1.705002,1.705017 1.705002,1.705017c0.217987,-0.476013 1.12999,-0.753998 1.12999,-0.753998c0.35701,-0.039001 3.352005,2.200989 3.352005,2.200989c1.209,1.428009 2.75499,0.63501 2.75499,0.63501c0.318024,-1.071014 -0.395996,-4.997009 -0.395996,-4.997009c-0.356995,-1.269012 -0.396988,-3.826996 -0.396988,-3.826996c0.356979,0 2.319992,1.389008 2.319992,1.389008c-0.07901,1.803986 0.990997,1.605988 0.990997,1.605988c1.131012,0.276978 2.479004,-2.479004 2.479004,-2.479004" id="path408"/>
          <path fill="#373535" fill-rule="nonzero" d="m258.265106,530.537598c0.436005,-0.536011 0.07901,-1.565979 0.07901,-1.565979c-0.891998,-0.63501 -2.677002,-3.43103 -2.677002,-3.43103c-0.555008,-0.891968 -1.447006,-0.515015 -1.447006,-0.515015c-0.554993,0.238037 -0.356995,1.585999 -0.356995,1.585999c0.119003,0.476013 0,0.754028 0,0.754028l-3.192001,2.398987c-0.397003,0.197998 -0.475998,-0.039978 -0.475998,-0.039978c-1.328003,-1.309021 -1.923004,-0.476013 -1.923004,-0.476013c-0.238007,0.476013 0.356995,1.765015 0.356995,1.765015l2.835007,3.351013c0.436005,0.871948 1.606003,0.514954 1.606003,0.514954c0.515991,-0.594971 0.039993,-1.506958 0.039993,-1.506958c-0.237991,-0.277039 -0.356995,-0.853027 -0.356995,-0.853027c0.595001,-0.713013 3.429993,-2.477966 3.429993,-2.477966c1.071014,1.328979 2.082001,0.495972 2.082001,0.495972" id="path410"/>
         </g>
        </g>
       </g>
      </g>
      <g id="g412" transform="translate(326.3135,570.3906)">
       <path fill="#373535" stroke="#373535" stroke-width="0.1" stroke-miterlimit="4" d="m0,0c-0.396,-2.954 -3.232,-2.677 -3.232,-2.677c-4.105,-0.376 -4.402,1.805 -4.402,1.805c-0.991,2.161 1.646,3.152 1.646,3.152c0,0 3.311,0.615 5.095,-0.555c0,0 1.011,-0.694 0.893,-1.725z" id="path414"/>
      </g>
      <g id="g416" transform="translate(321.6338,575.0107)">
       <path fill="#373535" stroke="#373535" stroke-width="0.1" stroke-miterlimit="4" d="m0,0c0,0 -3.291,0.119 -5.452,-2.637c0,0 -1.705,-2.201 0,-3.946c0,0 1.249,-2.736 6.146,-3.429999c0,0 0.456,-0.337001 0.674,-0.793c0,0 4.203,-0.555 5.452,0.356999c0,0 1.368,1.249001 1.368,1.923c0,0 -0.554,0.456 -1.824,0.238c0,0 -0.554,0.436 0.695,1.586c0,0 1.705,1.705 0.673,3.41c0,0 -2.835,3.292 -5.908,3.411l-1.824,-0.119z" id="path418"/>
      </g>
      <g id="g420" transform="translate(251.4644,534.3643)">
       <path fill="#373535" stroke="#373535" stroke-width="0.1" stroke-miterlimit="4" d="m0,0l-2.835,-3.351c0,0 -0.595,-1.289 -0.357,-1.765c0,0 0.594,-0.832 1.923,0.476c0,0 0.079,0.238 0.476,0.04l3.192,-2.399c0,0 0.119,-0.278 0,-0.753c0,0 -0.198,-1.349 0.357,-1.587c0,0 0.892,-0.376 1.447,0.516c0,0 1.785,2.795 2.677,3.43c0,0 0.357,1.031 -0.079,1.566c0,0 -1.011,0.833 -2.082,-0.495c0,0 -2.836,1.764 -3.43,2.478c0,0 0.119,0.575 0.357,0.853c0,0 0.476,0.911 -0.04,1.507c0,0 -1.17,0.357 -1.606,-0.516z" id="path422"/>
      </g>
      <g id="g424" transform="translate(249.2632,454.1816)">
       <path fill="#373535" stroke="#373535" stroke-width="0.1" stroke-miterlimit="4" d="m0,0c0,0 -2.577,1.051 -1.705,-1.705c0,0 1.923,-1.09 2.122,-2.716c0,0 0.872,-0.853 1.467,-0.417c0,0 0.674,0.654 0.396,1.527c0,0 -0.555,0.357 -0.436,0.634c0,0 1.606,1.052 1.844,1.091c0,0 -0.713,-6.087 -0.595,-6.761c0,0 1.15,-3.549 2.439,-3.629c0,0 0.833,-0.158 0.991,1.031c0,0 0,1.448 0.12,1.606999c0,0 3.152,1.823 3.35,2.161c0,0 0.437,-0.318 0.635,-0.655c0,0 0.733,-0.595 1.249,-0.356c0,0 0.634,0.276999 0.357,1.962c0,0 -1.348001,2.756 -2.479,2.479c0,0 -1.07,0.198 -0.991,-1.606c0,0 -1.963,-1.388 -2.32,-1.388c0,0 0.04,2.557 0.397,3.826c0,0 0.714,3.926 0.396,4.997c0,0 -1.546,0.793 -2.756,-0.634c0,0 -2.994,-2.241 -3.351,-2.201c0,0 -0.912,0.277 -1.13,0.753z" id="path426"/>
      </g>
      <g id="g428" transform="translate(321.3359,413.8525)">
       <path fill="#373535" stroke="#373535" stroke-width="0.1" stroke-miterlimit="4" d="m0,0c0,0 -4.679,-1.487 -4.817,-4.283c0,0 -0.437,-1.982 1.546,-3.41c0,0 1.666,-1.566 2.141,-1.725l9.815,-0.04c0,0 0.792999,0.258 0.891999,1.487c0,0 0.02,0.754 -2.082,0.536l0.179,5.75c0,0 0.812,-0.437 1.566,-0.08c0.456,0.199 0.872001,-0.059 0.892,0.615c0,0 0.417,1.467 -2.002,1.428l-8.13,-0.278z" id="path430"/>
      </g>
      <g id="g432" transform="translate(321.7529,412.0879)">
       <path fill="#373535" stroke="#373535" stroke-width="0.1" stroke-miterlimit="4" d="m0,0c0,0 -1.586,-1.348 -1.626,-2.855c0,0 -0.02,-1.15 0.555,-1.586c0,0 0.377,-1.19 1.824,-1.388l2.736,-0.179l-0.158,6.008l-3.331,0z" id="path434"/>
      </g>
      <g id="g436" transform="translate(386.0928,451.0688)">
       <path fill="#373535" stroke="#373535" stroke-width="0.1" stroke-miterlimit="4" d="m0,0l2.201,3.787c0,0 1.011,1.011 1.547,0.932c0,0 0.991,-0.278 0.178,-1.963c0,0 -0.198,-0.158 0.138,-0.456l3.312,-2.221c0,0 0.317,-0.019 0.733,0.258c0,0 1.21,0.654 1.625999,0.198c0,0 0.616,-0.694 -0.019,-1.526c0,0 -2.023,-2.637 -2.34,-3.669c0,0 -0.853,-0.694 -1.487,-0.455c0,0 -1.13,0.654 -0.238,2.121c0,0 -2.617,2.082 -3.49,2.399c0,0 -0.495,-0.297 -0.674,-0.614c0,0 -0.714,-0.754 -1.447,-0.477c0,0 -0.714,0.972 -0.04,1.686z" id="path438"/>
      </g>
      <g id="g440" transform="translate(390.8711,537.5366)">
       <path fill="#373535" stroke="#373535" stroke-width="0.1" stroke-miterlimit="4" d="m0,0c0,0 -3.787,-2.181 -3.747,-3.668c0,0 -0.397,-2.221 1.21,-4.838c0,0 1.823,-2.855 3.47,-3.212001c0,0 2.498,-0.634999 3.608,0.753c0,0 1.149,0.932 1.428,1.151c0,0 0.435,0.356 0.832,-0.12c0,0 0.714,-0.753 1.329,-0.634c0,0 0.852,0.634 0.456,1.646c0,0 -2.043,3.39 -2.896,3.489c0,0 -1.209,-0.139 -0.793,-1.487c0,0 0.298,-1.328 -0.356,-1.507c0,0 -1.924,-2.042 -3.49,-0.615c0,0 -1.823,1.468 -2.081,2.439c0,0 -0.397,1.785 0.931,2.717c0,0 1.15,1.11 1.567,1.17c0,0 0.753,0.218 0.931,0c0,0 1.19,-0.952 1.646,-0.853c0,0 0.535,0.357 0.357,1.071c0,0 -1.606,2.894 -1.864,3.43c0,0 -0.852,2.003 -2.061,1.685c0,0 -1.249,-0.436 -0.972,-1.071c0,0 0.891,-1.427 0.495,-1.546z" id="path442"/>
      </g>
      <path fill="#373535" fill-rule="nonzero" d="m187.039093,358.544891l1.75,0.013c0.638,0 1.220993,0.07901 1.75,0.238983c0.526993,0.160004 0.979996,0.394012 1.358002,0.705017c0.376999,0.311005 0.669998,0.69101 0.873993,1.144989c0.207001,0.453003 0.309006,0.968994 0.309006,1.546021c0,0.462982 -0.070007,0.897003 -0.212997,1.303986c-0.143005,0.406006 -0.378006,0.764008 -0.705002,1.071014c-0.328003,0.304993 -0.758011,0.548981 -1.290009,0.728973c-0.533997,0.18103 -1.192993,0.269012 -1.983002,0.269012l-1.849991,0l0,-7.020996zm0,-2.528992l0,-7.628021l-3.460999,0l0,19.723022l5.600998,0c1.250992,0 2.334991,-0.147003 3.253998,-0.44101c0.917999,-0.295013 1.679993,-0.699005 2.283997,-1.213989c0.602997,-0.518005 1.053009,-1.132019 1.345001,-1.846008c0.292999,-0.710999 0.44101,-1.48999 0.44101,-2.328003c0,-0.325989 -0.041,-0.708008 -0.125,-1.145996c-0.084015,-0.434998 -0.231003,-0.886017 -0.442001,-1.351013c-0.209,-0.467987 -0.498001,-0.923981 -0.866013,-1.372986c-0.369995,-0.449005 -0.842987,-0.851013 -1.416992,-1.209015c-0.574005,-0.355988 -1.263,-0.640991 -2.063995,-0.859985c-0.802002,-0.218994 -1.743011,-0.326996 -2.824005,-0.326996l-1.725998,0z" id="path444"/>
      <path fill="#373535" fill-rule="nonzero" d="m199.399002,348.386993l3.460999,0l0,19.723999l-3.460999,0l0,-19.723999z" id="path446"/>
      <path fill="#373535" fill-rule="nonzero" d="m217.811493,365.554688l-7.716003,0l0,-5.39801l6.141998,0l0,-2.543976l-6.141998,0l0,-6.669006l8.042999,0l0,-2.556l-11.503998,0l0,19.723999l11.177002,0l0,-2.557007z" id="path448"/>
      <path fill="#373535" fill-rule="nonzero" d="m224.621094,359.072296c0.261002,-0.03299 0.522995,-0.054993 0.791992,-0.061981c0.268997,-0.007019 0.542007,-0.012024 0.817001,-0.012024c0.690002,0 1.307007,0.080017 1.852005,0.239014c0.543991,0.156982 1.005997,0.389984 1.384995,0.690002c0.376999,0.302979 0.665009,0.669983 0.861008,1.102997c0.196991,0.431 0.29599,0.92099 0.29599,1.464996c0,0.54599 -0.065994,1.013 -0.200989,1.397003c-0.136002,0.386993 -0.369003,0.70401 -0.705002,0.951996c-0.335999,0.248993 -0.786011,0.429993 -1.354004,0.548004c-0.565002,0.115997 -1.279999,0.174011 -2.145004,0.174011l-1.597992,0l0,-6.494019zm-0.014008,-10.684998l-3.447998,0l0,19.723999l5.587006,0c1.261002,0 2.347,-0.128998 3.261993,-0.381012c0.915009,-0.25 1.671997,-0.610992 2.270004,-1.079987c0.600998,-0.471008 1.046005,-1.041016 1.335999,-1.710022c0.287994,-0.672974 0.432999,-1.431976 0.432999,-2.279999c0,-0.553986 -0.069992,-1.121979 -0.205994,-1.704987c-0.139999,-0.584015 -0.384003,-1.139008 -0.731003,-1.669006c-0.348007,-0.527008 -0.820999,-1.01001 -1.416,-1.445007c-0.595001,-0.438995 -1.350998,-0.789978 -2.266006,-1.057983l6.003998,-8.395996l-3.889999,0l-5.273987,8.067993c-0.209,0 -0.449005,0.005005 -0.716003,0.013c-0.268005,0.006989 -0.57901,0.041992 -0.931,0.100006l-0.014008,-8.181z" id="path450"/>
      <path fill="#373535" fill-rule="nonzero" d="m241.132797,359.072296c0.262009,-0.03299 0.525009,-0.054993 0.794006,-0.061981c0.266998,-0.007019 0.541,-0.012024 0.817001,-0.012024c0.688995,0 1.306,0.080017 1.849991,0.239014c0.546005,0.156982 1.008011,0.389984 1.386002,0.690002c0.376999,0.302979 0.665009,0.669983 0.860001,1.102997c0.197998,0.431 0.296997,0.92099 0.296997,1.464996c0,0.54599 -0.067001,1.013 -0.200989,1.397003c-0.136002,0.386993 -0.368011,0.70401 -0.705002,0.951996c-0.335999,0.248993 -0.787003,0.429993 -1.354004,0.548004c-0.563995,0.115997 -1.281006,0.174011 -2.143997,0.174011l-1.600006,0l0,-6.494019zm-0.011993,-10.684998l-3.447998,0l0,19.723999l5.58699,0c1.259003,0 2.346008,-0.128998 3.261002,-0.381012c0.914001,-0.25 1.671997,-0.610992 2.270996,-1.079987c0.598999,-0.471008 1.044006,-1.041016 1.334,-1.710022c0.289001,-0.672974 0.434006,-1.431976 0.434006,-2.279999c0,-0.553986 -0.069992,-1.121979 -0.207001,-1.704987c-0.138992,-0.584015 -0.382996,-1.139008 -0.729996,-1.669006c-0.348007,-0.527008 -0.820999,-1.01001 -1.417007,-1.445007c-0.593994,-0.438995 -1.349991,-0.789978 -2.264999,-1.057983l6.003998,-8.395996l-3.889999,0l-5.273987,8.067993c-0.210007,0 -0.449005,0.005005 -0.716003,0.013c-0.268997,0.006989 -0.578003,0.041992 -0.932007,0.100006l-0.011993,-8.181z" id="path452"/>
      <path fill="#373535" fill-rule="nonzero" d="m265.360413,365.554688l-7.714996,0l0,-5.39801l6.143005,0l0,-2.543976l-6.143005,0l0,-6.669006l8.042999,0l0,-2.556l-11.504013,0l0,19.723999l11.17601,0l0,-2.557007z" id="path454"/>
      <path fill="#373535" fill-rule="nonzero" d="m272.169891,358.544891l1.748993,0.013c0.639008,0 1.221008,0.07901 1.75,0.238983c0.528015,0.160004 0.980011,0.394012 1.359009,0.705017c0.376984,0.311005 0.667999,0.69101 0.873993,1.144989c0.205994,0.453003 0.30899,0.968994 0.30899,1.546021c0,0.462982 -0.070984,0.897003 -0.213989,1.303986c-0.141998,0.406006 -0.377991,0.764008 -0.704987,1.071014c-0.326996,0.304993 -0.757996,0.548981 -1.289001,0.728973c-0.533997,0.18103 -1.193024,0.269012 -1.983002,0.269012l-1.850006,0l0,-7.020996zm0,-2.528992l0,-7.628021l-3.460999,0l0,19.723022l5.600983,0c1.249023,0 2.333008,-0.147003 3.254028,-0.44101c0.916992,-0.295013 1.678986,-0.699005 2.283997,-1.213989c0.604004,-0.518005 1.052979,-1.132019 1.345978,-1.846008c0.292999,-0.710999 0.44101,-1.48999 0.44101,-2.328003c0,-0.325989 -0.041992,-0.708008 -0.126984,-1.145996c-0.084015,-0.434998 -0.230011,-0.886017 -0.44101,-1.351013c-0.209015,-0.467987 -0.498016,-0.923981 -0.868011,-1.372986c-0.367981,-0.449005 -0.841003,-0.851013 -1.415985,-1.209015c-0.574005,-0.355988 -1.261993,-0.640991 -2.065002,-0.859985c-0.799011,-0.218994 -1.740997,-0.326996 -2.824005,-0.326996l-1.723999,0z" id="path456"/>
      <path fill="#373535" fill-rule="nonzero" d="m298.5625,358.344696c0,1.131012 -0.125,2.161011 -0.371002,3.088013c-0.247986,0.927002 -0.602997,1.722992 -1.063995,2.384979c-0.462006,0.663025 -1.019989,1.177002 -1.674011,1.542023c-0.653992,0.365997 -1.388,0.548004 -2.203003,0.548004c-0.79599,0 -1.524994,-0.172028 -2.182983,-0.515015c-0.65802,-0.343994 -1.226013,-0.838989 -1.700012,-1.480011c-0.473999,-0.642975 -0.842987,-1.417999 -1.108002,-2.322998c-0.263,-0.906982 -0.393982,-1.916992 -0.393982,-3.031982c0,-1.132996 0.109985,-2.181 0.332977,-3.141022c0.222015,-0.959991 0.554016,-1.793976 0.994019,-2.496979c0.44101,-0.705994 0.985992,-1.255005 1.640991,-1.651001c0.656006,-0.394012 1.411011,-0.589996 2.266998,-0.589996c0.856018,0 1.619995,0.211975 2.296997,0.634979c0.675018,0.425018 1.248016,0.990997 1.71701,1.699005c0.468994,0.709991 0.82901,1.524017 1.076996,2.447998c0.246002,0.924011 0.371002,1.88501 0.371002,2.884003m3.649994,0.313019c0,-0.989014 -0.098999,-1.942017 -0.294983,-2.857025c-0.197998,-0.914001 -0.484009,-1.768982 -0.855011,-2.559998c-0.376007,-0.794983 -0.829987,-1.511993 -1.359985,-2.160004c-0.535004,-0.647003 -1.134003,-1.199982 -1.801025,-1.66098c-0.665985,-0.460999 -1.393982,-0.817993 -2.182983,-1.070007c-0.790009,-0.252014 -1.627991,-0.376007 -2.518005,-0.376007c-1.424988,0 -2.696014,0.253021 -3.808014,0.753998c-1.109985,0.505005 -2.050995,1.213013 -2.817993,2.127014c-0.768005,0.914001 -1.352997,2.010986 -1.755981,3.291992c-0.402008,1.279999 -0.604004,2.695007 -0.604004,4.247009c0,1.493988 0.209991,2.86499 0.630005,4.11499c0.417999,1.252014 1.018982,2.32901 1.797974,3.237c0.781006,0.904999 1.732025,1.610016 2.85202,2.113007c1.119995,0.505005 2.380005,0.755981 3.781982,0.755981c1.309021,0 2.51001,-0.230988 3.605011,-0.686981c1.095001,-0.458008 2.036011,-1.113007 2.825989,-1.971008c0.789001,-0.85498 1.404999,-1.899994 1.84201,-3.132996c0.442993,-1.234009 0.662994,-2.623993 0.662994,-4.165985" id="path458"/>
      <path fill="#373535" fill-rule="nonzero" d="m308.947296,362.508789l0,-14.121002l-3.463989,0l0,19.723999l3.273987,0l8.381012,-14.186005l0,14.186005l3.459991,0l0.049988,-19.723999l-3.270996,0l-8.429993,14.121002z" id="path460"/>
      <path fill="#373535" fill-rule="nonzero" d="m338.482391,365.566406l-6.062988,0l0,-17.178986l-3.463013,0l0,17.178986l-6.052002,0l0,2.545013l15.578003,0l0,-2.545013z" id="path462"/>
      <path fill="#373535" fill-rule="nonzero" d="m356.242188,353.282196c0.446014,-0.460999 0.839996,-0.850006 1.188995,-1.167999c0.347015,-0.320007 0.697998,-0.578003 1.044006,-0.774994c0.351013,-0.197998 0.722992,-0.338989 1.121002,-0.428009c0.39801,-0.087982 0.875,-0.131989 1.428986,-0.131989c0.427002,0 0.845001,0.044006 1.252014,0.131989c0.406006,0.08902 0.769012,0.238007 1.088989,0.446991c0.318024,0.209015 0.574005,0.492004 0.769012,0.844025c0.19101,0.35199 0.287994,0.792999 0.287994,1.320984c0,0.360016 -0.072998,0.679993 -0.214996,0.955994c-0.140991,0.278015 -0.356995,0.532013 -0.641998,0.766998c-0.283997,0.235016 -0.639008,0.462006 -1.069,0.682007c-0.427002,0.216003 -0.923004,0.447021 -1.484009,0.69101c-0.192993,0.083008 -0.369995,0.15799 -0.529999,0.226013c-0.160004,0.067993 -0.309998,0.132996 -0.45401,0.201996c-0.140991,0.067993 -0.28299,0.130981 -0.425995,0.194977c-0.141998,0.062012 -0.293976,0.132019 -0.453003,0.207001c-0.329987,0.151001 -0.679993,0.312012 -1.056,0.484009c-0.380981,0.171997 -0.753998,0.373993 -1.126984,0.605011c-0.373993,0.229004 -0.735992,0.497986 -1.083008,0.799988c-0.348999,0.300995 -0.654999,0.653992 -0.919983,1.056c-0.263,0.403015 -0.476013,0.86499 -0.63501,1.38501c-0.160004,0.520996 -0.23999,1.110992 -0.23999,1.77298c0,0.867004 0.188995,1.618011 0.567993,2.254028c0.376984,0.638 0.877991,1.164001 1.503998,1.579987c0.625,0.415009 1.339996,0.72699 2.143982,0.931c0.805023,0.205994 1.634003,0.309998 2.479004,0.309998c0.640015,0 1.239014,-0.046997 1.802002,-0.134003c0.561005,-0.087982 1.096008,-0.227997 1.604004,-0.42099c0.507996,-0.194 0.994995,-0.44101 1.46701,-0.743011c0.471008,-0.302979 0.937988,-0.662994 1.408997,-1.082001l-1.924988,-2.556c-0.336029,0.345001 -0.655029,0.654999 -0.956024,0.932007c-0.302002,0.277008 -0.617004,0.511993 -0.940002,0.704987c-0.322998,0.194 -0.675995,0.340027 -1.056976,0.439026c-0.383026,0.10199 -0.815002,0.151978 -1.302002,0.151978c-0.369995,0 -0.744995,-0.036987 -1.125,-0.112976c-0.382019,-0.076019 -0.729004,-0.199005 -1.040009,-0.371002c-0.311005,-0.171997 -0.563995,-0.393005 -0.761993,-0.666016c-0.196014,-0.27301 -0.295013,-0.605988 -0.295013,-1.001984c0,-0.469025 0.131012,-0.889008 0.390991,-1.263c0.259003,-0.374023 0.575012,-0.703003 0.944,-0.988007c0.368011,-0.287994 0.758026,-0.531006 1.164001,-0.731995c0.406006,-0.201019 0.757019,-0.364014 1.051025,-0.490021c0.258972,-0.117981 0.47998,-0.21698 0.66098,-0.294983c0.179016,-0.080017 0.358002,-0.157013 0.535004,-0.234009c0.175995,-0.075989 0.367004,-0.154999 0.571991,-0.240997c0.205017,-0.082001 0.463013,-0.190002 0.77301,-0.325012c0.244995,-0.099976 0.515991,-0.223999 0.817993,-0.371002c0.303009,-0.146973 0.610016,-0.323975 0.927002,-0.527985c0.312012,-0.205994 0.621002,-0.449005 0.923004,-0.730988c0.302002,-0.281006 0.571014,-0.612 0.804016,-0.988007c0.237976,-0.378021 0.425995,-0.811005 0.569,-1.296021c0.142975,-0.484985 0.215973,-1.039978 0.215973,-1.661987c0,-0.627991 -0.095978,-1.20401 -0.286987,-1.722992c-0.187012,-0.520996 -0.447998,-0.988007 -0.778992,-1.397003c-0.330994,-0.412018 -0.725006,-0.772003 -1.178009,-1.078003c-0.451996,-0.304993 -0.938995,-0.558014 -1.459991,-0.753998c-0.519012,-0.197998 -1.063019,-0.346008 -1.628021,-0.445007c-0.566986,-0.10199 -1.134979,-0.152985 -1.705994,-0.152985c-0.779999,0 -1.502991,0.062988 -2.164978,0.188995c-0.662018,0.125 -1.287018,0.311005 -1.874023,0.55899c-0.588989,0.247009 -1.144989,0.554993 -1.668976,0.92099c-0.524017,0.364014 -1.030029,0.785004 -1.516022,1.263l2.492004,2.277008z" id="path464"/>
      <path fill="#373535" fill-rule="nonzero" d="m386.295898,351.231415c-0.570007,-0.679016 -1.109985,-1.22699 -1.623993,-1.640991c-0.511017,-0.417023 -1.03302,-0.742004 -1.56601,-0.976013c-0.53299,-0.234009 -1.093994,-0.394012 -1.686981,-0.472992c-0.591003,-0.080017 -1.257019,-0.117004 -1.993011,-0.117004c-1.393005,0 -2.615997,0.272003 -3.669006,0.820984c-1.053986,0.551025 -1.936005,1.296997 -2.643982,2.236023c-0.709015,0.938995 -1.242004,2.035004 -1.597015,3.285004c-0.356995,1.25 -0.536987,2.575989 -0.536987,3.977997c0,0.878998 0.073975,1.747009 0.220978,2.605011c0.14801,0.85498 0.371002,1.662994 0.674011,2.42099c0.303009,0.759003 0.684998,1.460999 1.152008,2.10199c0.463989,0.643005 1.018005,1.197998 1.662994,1.667023c0.639008,0.470978 1.368988,0.835999 2.187988,1.094971c0.81601,0.262024 1.731018,0.393005 2.737,0.393005c0.605011,0 1.177002,-0.040985 1.718994,-0.113983c0.539001,-0.076996 1.053009,-0.197021 1.534027,-0.365997c0.483978,-0.169006 0.945984,-0.39502 1.390991,-0.680023c0.445007,-0.283997 0.876984,-0.631989 1.296997,-1.044983l-1.901001,-2.35199c-0.309998,0.326996 -0.618988,0.606995 -0.924988,0.84198c-0.306,0.235016 -0.623016,0.429993 -0.949005,0.580994c-0.330017,0.150024 -0.671997,0.259003 -1.035004,0.325012c-0.359009,0.066986 -0.755005,0.101013 -1.179016,0.101013c-0.856995,0 -1.595978,-0.194 -2.215973,-0.585999c-0.622009,-0.388 -1.13501,-0.907013 -1.538025,-1.552002c-0.402985,-0.64801 -0.699982,-1.386017 -0.891998,-2.216003c-0.194,-0.832001 -0.289001,-1.69101 -0.289001,-2.581024c0,-1.163971 0.114014,-2.248993 0.344025,-3.252991c0.230988,-1.001984 0.556,-1.876007 0.975983,-2.617004c0.420013,-0.743988 0.924011,-1.325989 1.511017,-1.75c0.586975,-0.424988 1.240997,-0.635986 1.963989,-0.635986c0.636993,0 1.18399,0.057007 1.640991,0.169983c0.458008,0.113007 0.860016,0.276001 1.208008,0.485016c0.348999,0.208984 0.661987,0.467987 0.937988,0.774994c0.278015,0.304016 0.554016,0.656006 0.832001,1.052002l2.251007,-1.979004z" id="path466"/>
      <path fill="#373535" fill-rule="nonzero" d="m389.292999,368.111298l3.459015,0l0,-8.597992l8.169983,0l0,8.597992l3.460999,0l0,-19.723999l-3.460999,0l0,8.584015l-8.169983,0l0,-8.584015l-3.459015,0l0,19.723999z" id="path468"/>
      <path fill="#373535" fill-rule="nonzero" d="m422.192413,358.344696c0,1.131012 -0.123016,2.161011 -0.369995,3.088013c-0.248016,0.927002 -0.602997,1.722992 -1.063995,2.384979c-0.462006,0.663025 -1.02002,1.177002 -1.675018,1.542023c-0.652985,0.365997 -1.388,0.548004 -2.199982,0.548004c-0.799011,0 -1.528015,-0.172028 -2.184021,-0.515015c-0.658997,-0.343994 -1.22699,-0.838989 -1.700989,-1.480011c-0.473999,-0.642975 -0.841003,-1.417999 -1.108002,-2.322998c-0.263,-0.906982 -0.394012,-1.916992 -0.394012,-3.031982c0,-1.132996 0.110016,-2.181 0.333008,-3.141022c0.222015,-0.959991 0.553009,-1.793976 0.994019,-2.496979c0.440979,-0.705994 0.987976,-1.255005 1.642975,-1.651001c0.654022,-0.394012 1.410004,-0.589996 2.265015,-0.589996c0.855988,0 1.621002,0.211975 2.29599,0.634979c0.675995,0.425018 1.248016,0.990997 1.718018,1.699005c0.470001,0.709991 0.828979,1.524017 1.076996,2.447998c0.246979,0.924011 0.369995,1.88501 0.369995,2.884003m3.651001,0.313019c0,-0.989014 -0.098999,-1.942017 -0.29599,-2.857025c-0.198029,-0.914001 -0.482025,-1.768982 -0.857025,-2.559998c-0.371979,-0.794983 -0.825989,-1.511993 -1.356995,-2.160004c-0.533997,-0.647003 -1.134003,-1.199982 -1.802002,-1.66098c-0.665985,-0.460999 -1.394989,-0.817993 -2.182007,-1.070007c-0.789978,-0.252014 -1.629974,-0.376007 -2.516998,-0.376007c-1.427002,0 -2.697998,0.253021 -3.80899,0.753998c-1.110992,0.505005 -2.052002,1.213013 -2.817993,2.127014c-0.768005,0.914001 -1.355011,2.010986 -1.757996,3.291992c-0.402008,1.279999 -0.604004,2.695007 -0.604004,4.247009c0,1.493988 0.210999,2.86499 0.631989,4.11499c0.417999,1.252014 1.019012,2.32901 1.799011,3.237c0.779999,0.904999 1.730011,1.610016 2.850983,2.113007c1.120026,0.505005 2.379028,0.755981 3.779999,0.755981c1.310028,0 2.511017,-0.230988 3.607025,-0.686981c1.095001,-0.458008 2.036987,-1.113007 2.825989,-1.971008c0.787994,-0.85498 1.403992,-1.899994 1.842987,-3.132996c0.442017,-1.234009 0.662018,-2.623993 0.662018,-4.165985" id="path470"/>
      <path fill="#373535" fill-rule="nonzero" d="m443.335907,358.344696c0,1.131012 -0.121002,2.161011 -0.368988,3.088013c-0.248016,0.927002 -0.60202,1.722992 -1.063995,2.384979c-0.462006,0.663025 -1.02002,1.177002 -1.674011,1.542023c-0.654999,0.365997 -1.390015,0.548004 -2.201996,0.548004c-0.799011,0 -1.526001,-0.172028 -2.183014,-0.515015c-0.660004,-0.343994 -1.22699,-0.838989 -1.700989,-1.480011c-0.475006,-0.642975 -0.84201,-1.417999 -1.108002,-2.322998c-0.261993,-0.906982 -0.394989,-1.916992 -0.394989,-3.031982c0,-1.132996 0.110992,-2.181 0.332977,-3.141022c0.222015,-0.959991 0.553009,-1.793976 0.994019,-2.496979c0.440979,-0.705994 0.988983,-1.255005 1.643982,-1.651001c0.654022,-0.394012 1.410004,-0.589996 2.265015,-0.589996c0.85498,0 1.621002,0.211975 2.294983,0.634979c0.677002,0.425018 1.249023,0.990997 1.719025,1.699005c0.470001,0.709991 0.828979,1.524017 1.076996,2.447998c0.247986,0.924011 0.368988,1.88501 0.368988,2.884003m3.651001,0.313019c0,-0.989014 -0.097992,-1.942017 -0.29599,-2.857025c-0.197021,-0.914001 -0.481018,-1.768982 -0.855011,-2.559998c-0.372986,-0.794983 -0.826996,-1.511993 -1.359009,-2.160004c-0.53299,-0.647003 -1.132996,-1.199982 -1.800995,-1.66098c-0.665985,-0.460999 -1.394989,-0.817993 -2.182983,-1.070007c-0.790009,-0.252014 -1.628021,-0.376007 -2.516022,-0.376007c-1.427979,0 -2.697998,0.253021 -3.80899,0.753998c-1.112,0.505005 -2.050995,1.213013 -2.819,2.127014c-0.766998,0.914001 -1.355011,2.010986 -1.756989,3.291992c-0.403015,1.279999 -0.605011,2.695007 -0.605011,4.247009c0,1.493988 0.212006,2.86499 0.631989,4.11499c0.417999,1.252014 1.02002,2.32901 1.800018,3.237c0.778992,0.904999 1.72998,1.610016 2.850006,2.113007c1.121002,0.505005 2.380981,0.755981 3.780975,0.755981c1.309021,0 2.512024,-0.230988 3.607025,-0.686981c1.095001,-0.458008 2.036987,-1.113007 2.824982,-1.971008c0.787994,-0.85498 1.403992,-1.899994 1.843018,-3.132996c0.441986,-1.234009 0.661987,-2.623993 0.661987,-4.165985" id="path472"/>
      <path fill="#373535" fill-rule="nonzero" d="m462.415009,348.387695l-11.96701,0l0,19.723999l3.460022,0l0,-17.167999l8.506989,0l0,-2.556z" id="path474"/>
      <path fill="#373535" fill-rule="nonzero" d="m261.367188,328.838898l3.730011,0l-4.891022,-18.204987l-2.902985,0l-3.138,14.092987l-3.393005,-14.092987l-2.856995,0l-4.785004,18.204987l3.507004,0l2.951996,-14.035004l3.438004,14.035004l2.287994,0l3.242004,-13.987l2.809998,13.987z" id="path476"/>
      <path fill="#373535" fill-rule="nonzero" d="m272.613312,321.113312c-0.485992,0 -0.890015,-0.084991 -1.208008,-0.255005c-0.315979,-0.17099 -0.567993,-0.394989 -0.753998,-0.674988c-0.186005,-0.278015 -0.317993,-0.595001 -0.394989,-0.953003c-0.078003,-0.355011 -0.117004,-0.722992 -0.117004,-1.101013l4.798004,0c0,0.324005 -0.02301,0.664001 -0.069,1.014008c-0.046021,0.354004 -0.151001,0.674011 -0.313995,0.964996c-0.163025,0.290009 -0.397003,0.531006 -0.702026,0.721008c-0.306976,0.188995 -0.717987,0.283997 -1.238983,0.283997m5.855011,-8.398987c-0.479004,-0.512024 -0.942017,-0.921021 -1.387024,-1.232025c-0.445984,-0.30899 -0.889984,-0.548981 -1.329987,-0.713989c-0.442993,-0.167999 -0.891998,-0.277008 -1.347015,-0.332001c-0.458984,-0.052002 -0.934998,-0.080994 -1.429993,-0.080994c-1.069,0 -1.984985,0.186981 -2.747986,0.557983c-0.761993,0.372009 -1.38501,0.867004 -1.869995,1.487c-0.483002,0.619019 -0.840027,1.332001 -1.069,2.138c-0.229004,0.805023 -0.344025,1.641022 -0.344025,2.509003c0,0.837006 0.120026,1.636993 0.357025,2.39801c0.233978,0.764984 0.595001,1.436005 1.078979,2.016998c0.484009,0.580994 1.09201,1.045013 1.825012,1.394012c0.730988,0.347992 1.592987,0.523987 2.584991,0.523987c0.882996,0 1.657013,-0.121002 2.322998,-0.362c0.666016,-0.239014 1.222015,-0.584015 1.666992,-1.03299c0.444,-0.449005 0.779999,-0.994019 1.005005,-1.633026c0.223999,-0.63797 0.337006,-1.352997 0.337006,-2.142975c0,-0.302002 -0.01001,-0.615021 -0.028992,-0.936005c-0.02002,-0.321014 -0.059998,-0.656006 -0.123016,-1.003998l-7.839996,0c0,-0.365021 0.063995,-0.763 0.196014,-1.197021c0.132996,-0.43399 0.322998,-0.84198 0.575989,-1.22699c0.25,-0.380981 0.563019,-0.701996 0.934998,-0.958008c0.371002,-0.253998 0.798004,-0.381989 1.278015,-0.381989c0.417999,0 0.783997,0.031006 1.096985,0.092987c0.313995,0.062012 0.604004,0.161011 0.872009,0.301025c0.265991,0.139984 0.522003,0.323975 0.766998,0.552002c0.242004,0.228973 0.506012,0.513977 0.783997,0.853973l1.834015,-1.590973z" id="path478"/>
      <path fill="#373535" fill-rule="nonzero" d="m282.279297,314.293915c1.145996,-1.270996 2.369995,-1.906006 3.671997,-1.906006c0.287018,0 0.554016,0.029999 0.800995,0.088013c0.249023,0.057983 0.462006,0.14798 0.639008,0.27298c0.179993,0.124023 0.320007,0.282013 0.424011,0.476013c0.10498,0.194 0.15799,0.425995 0.15799,0.695984c0,0.195007 -0.044006,0.368011 -0.128998,0.524017c-0.084991,0.154999 -0.196014,0.290985 -0.335999,0.406982c-0.139008,0.117004 -0.294006,0.218018 -0.463989,0.307007c-0.170013,0.08902 -0.341003,0.166016 -0.512024,0.227997c-0.317993,0.131012 -0.634003,0.248993 -0.945984,0.354004c-0.315002,0.104004 -0.630005,0.222015 -0.947998,0.352997c-0.178009,0.062012 -0.393005,0.141998 -0.644012,0.239014c-0.251984,0.096985 -0.513,0.21698 -0.785004,0.359985c-0.270996,0.141998 -0.536987,0.311005 -0.800995,0.505005c-0.264984,0.194 -0.501984,0.425995 -0.716003,0.698029c-0.212006,0.269989 -0.384003,0.578979 -0.516998,0.921997c-0.130005,0.345978 -0.196991,0.741974 -0.196991,1.191986c0,0.557007 0.136993,1.04599 0.407013,1.463989c0.270996,0.419006 0.630981,0.768005 1.079987,1.051025c0.449005,0.281982 0.959991,0.496002 1.528992,0.638977c0.569,0.144012 1.154999,0.216003 1.759003,0.216003c0.960999,0 1.834015,-0.113007 2.619995,-0.337982c0.787018,-0.225006 1.505005,-0.60202 2.156006,-1.128021l-1.372009,-2.112c-0.238983,0.238007 -0.473999,0.45401 -0.701996,0.641998c-0.229004,0.192017 -0.470978,0.354004 -0.72699,0.490021c-0.255005,0.134979 -0.533997,0.237 -0.837006,0.307983c-0.300995,0.069 -0.645996,0.104004 -1.033997,0.104004c-0.325012,0 -0.602997,-0.037994 -0.837006,-0.11499c-0.230988,-0.07901 -0.423004,-0.183014 -0.572998,-0.315002c-0.151001,-0.132019 -0.263,-0.28299 -0.330994,-0.453003c-0.071014,-0.17099 -0.105988,-0.348999 -0.105988,-0.535004c0,-0.208008 0.049988,-0.389008 0.151978,-0.539001c0.100006,-0.152008 0.230011,-0.28299 0.389008,-0.395996c0.158997,-0.112 0.338989,-0.209015 0.540985,-0.290985c0.202026,-0.080017 0.406006,-0.155029 0.615021,-0.226013c0.324982,-0.115997 0.652985,-0.230011 0.981995,-0.34201c0.32901,-0.112 0.654999,-0.22699 0.980988,-0.343994c0.164001,-0.059998 0.360016,-0.13501 0.59201,-0.220001c0.234009,-0.085999 0.472992,-0.194 0.721008,-0.324005c0.247986,-0.134003 0.492981,-0.294006 0.738007,-0.481995c0.244995,-0.192017 0.461975,-0.419006 0.656982,-0.687012c0.192993,-0.265991 0.350006,-0.576996 0.468994,-0.928986c0.121002,-0.35202 0.180023,-0.761993 0.180023,-1.22702c0,-0.578979 -0.143005,-1.092987 -0.430023,-1.537994c-0.285004,-0.444 -0.662994,-0.816986 -1.130981,-1.115997c-0.470001,-0.297974 -1.001007,-0.524994 -1.598022,-0.678986c-0.596985,-0.154999 -1.207977,-0.232025 -1.835999,-0.232025c-0.556976,0 -1.084991,0.031006 -1.579987,0.09201c-0.494995,0.062988 -0.966003,0.166992 -1.411011,0.313995c-0.444977,0.14801 -0.869995,0.346008 -1.273987,0.598022c-0.402008,0.251984 -0.779999,0.567993 -1.136017,0.947998l1.64801,1.985992z" id="path480"/>
      <path fill="#373535" fill-rule="nonzero" d="m292.364288,322.554688l1.847992,0.627014l0.789001,3.23999l2.231018,0l0,-3.23999l3.078003,0l-0.279022,-2.161011l-2.798981,0l0,-6.403015c0,-0.35498 0.024994,-0.652985 0.074982,-0.892975c0.050995,-0.239014 0.121002,-0.434998 0.21402,-0.581024c0.093994,-0.14798 0.210999,-0.250977 0.350983,-0.312988c0.139008,-0.062012 0.296997,-0.092987 0.475006,-0.092987c0.247986,0 0.528992,0.028992 0.84201,0.086975c0.313995,0.057007 0.664978,0.161011 1.052002,0.307007l0.696991,-1.475006c-0.557007,-0.424988 -1.106018,-0.743988 -1.644012,-0.952972c-0.537994,-0.209015 -1.062988,-0.314026 -1.574982,-0.314026c-0.696014,0 -1.27002,0.09201 -1.718994,0.27301c-0.448029,0.183014 -0.808014,0.441986 -1.074005,0.778992c-0.268005,0.337006 -0.45401,0.744995 -0.558014,1.223999c-0.105011,0.481018 -0.156006,1.02002 -0.156006,1.617004l0,6.738007l-1.847992,0l0,1.533997z" id="path482"/>
      <path fill="#373535" fill-rule="nonzero" d="m308.43161,321.102509c-0.411011,0 -0.803986,-0.049011 -1.179993,-0.145996c-0.375,-0.096008 -0.772003,-0.256989 -1.190002,-0.483002l0,-7.178986c0.208984,-0.170013 0.415985,-0.302002 0.622009,-0.39502c0.203979,-0.093994 0.412994,-0.161987 0.626984,-0.208008c0.213013,-0.046997 0.429016,-0.073975 0.649994,-0.082001c0.220001,-0.007996 0.449005,-0.010986 0.680023,-0.010986c0.463989,0 0.860992,0.128998 1.189972,0.388c0.330017,0.26001 0.598999,0.60199 0.808014,1.027985c0.209991,0.428009 0.364014,0.911011 0.464996,1.452026c0.100006,0.542999 0.152008,1.096985 0.152008,1.66098c0,0.574005 -0.056,1.104004 -0.165009,1.593018c-0.108002,0.487 -0.27301,0.906982 -0.497986,1.259979c-0.223999,0.35202 -0.516022,0.628021 -0.878021,0.825012c-0.358978,0.195984 -0.786987,0.296997 -1.28299,0.296997m-2.752991,2.07901c0.046997,-0.117004 0.095978,-0.281006 0.149994,-0.494019c0.053986,-0.213989 0.092987,-0.419983 0.117004,-0.621979c0.184998,0.164001 0.382996,0.322998 0.591003,0.481995c0.210999,0.158997 0.442993,0.298004 0.697998,0.419006c0.256989,0.118988 0.540985,0.218994 0.854004,0.29599c0.313995,0.076996 0.667999,0.117004 1.063995,0.117004c1.005981,0 1.850006,-0.175018 2.531006,-0.52301c0.682983,-0.350006 1.22699,-0.813995 1.632996,-1.394989c0.406982,-0.580994 0.696991,-1.251007 0.871979,-2.01001c0.174011,-0.759003 0.261017,-1.549011 0.261017,-2.369995c0,-0.889008 -0.119019,-1.743988 -0.354004,-2.561005c-0.237,-0.81601 -0.592987,-1.536987 -1.069,-2.161011c-0.47699,-0.622986 -1.075989,-1.121002 -1.800995,-1.491974c-0.725006,-0.372009 -1.575012,-0.558014 -2.550995,-0.558014c-0.982025,0 -1.852997,0.298004 -2.613007,0.894989l0,-5.832977l-3.020996,0l0,15.427002c0,0.046997 -0.002014,0.164001 -0.005005,0.349976c-0.003998,0.184998 -0.011993,0.396027 -0.024017,0.634003c-0.011993,0.235016 -0.030975,0.481995 -0.057983,0.737c-0.027008,0.256012 -0.067993,0.476013 -0.123016,0.662018l2.848022,0z" id="path484"/>
      <path fill="#373535" fill-rule="nonzero" d="m323.430695,312.413086c0.511993,0 0.951996,0.139008 1.322998,0.417999c0.372009,0.278015 0.678009,0.64502 0.919006,1.102997c0.238983,0.457001 0.417999,0.972015 0.53299,1.545013c0.117004,0.574005 0.174988,1.15799 0.174988,1.752991c0,0.550995 -0.052979,1.071991 -0.155975,1.563995c-0.106018,0.492004 -0.278015,0.921997 -0.516998,1.290009c-0.242004,0.367004 -0.550018,0.661011 -0.930023,0.877014c-0.379974,0.21698 -0.839996,0.324982 -1.381989,0.324982c-0.488007,0 -0.920013,-0.113007 -1.29599,-0.337006c-0.375,-0.224976 -0.688019,-0.531982 -0.936005,-0.923981c-0.247009,-0.391022 -0.434998,-0.855011 -0.562012,-1.394012c-0.127991,-0.536987 -0.191986,-1.121002 -0.191986,-1.747986c0,-0.512024 0.054993,-1.031006 0.167999,-1.557007c0.113007,-0.527008 0.289978,-1.007996 0.535004,-1.440002c0.243988,-0.43399 0.556976,-0.787994 0.940979,-1.063995c0.382996,-0.274994 0.841003,-0.411011 1.377014,-0.411011m0.104004,-2.09201c-1.02301,0 -1.927002,0.15802 -2.713013,0.476013c-0.786011,0.317017 -1.446991,0.769012 -1.980988,1.35199c-0.533997,0.585999 -0.938995,1.290009 -1.213013,2.115997c-0.276001,0.825012 -0.414001,1.745026 -0.414001,2.759003c0,0.860016 0.128998,1.673004 0.384003,2.440002c0.256989,0.766998 0.644012,1.440002 1.161011,2.020996c0.519989,0.580017 1.171997,1.042023 1.957977,1.383026c0.787018,0.340973 1.711029,0.511993 2.771027,0.511993c1.060974,0 1.974976,-0.171021 2.742981,-0.511993c0.766022,-0.341003 1.39801,-0.808014 1.893005,-1.400024c0.496002,-0.59198 0.860992,-1.289001 1.097992,-2.09198c0.235016,-0.800995 0.355011,-1.660004 0.355011,-2.572998c0,-0.890015 -0.138,-1.727997 -0.414001,-2.516022c-0.273987,-0.785004 -0.673004,-1.472992 -1.196014,-2.060974c-0.521973,-0.587006 -1.158997,-1.053009 -1.904999,-1.393005c-0.747986,-0.34201 -1.589996,-0.512024 -2.526978,-0.512024" id="path486"/>
      <path fill="#373535" fill-rule="nonzero" d="m335.454102,323.18161c0.161987,-0.821014 0.277985,-1.657013 0.348999,-2.51001c0.145996,0.341003 0.359985,0.674011 0.639008,1c0.278992,0.324005 0.588989,0.614014 0.929993,0.864014c0.339996,0.252991 0.697998,0.457001 1.074005,0.612c0.375,0.153992 0.734009,0.231995 1.074005,0.231995c0.425995,0 0.743988,-0.027985 0.953003,-0.082001c0.209991,-0.053986 0.375,-0.108002 0.5,-0.162994l-0.652008,-2.729004c-0.248016,0.114014 -0.47702,0.195007 -0.690002,0.238007c-0.213989,0.041992 -0.424011,0.061981 -0.632996,0.061981c-0.722015,0 -1.338013,-0.169983 -1.852997,-0.509979c-0.515015,-0.34201 -0.934998,-0.790009 -1.26001,-1.348022l0.020996,-8.213989l-3.041992,0l0,10.433014c0,0.132996 -0.002014,0.298981 -0.007996,0.500977c-0.003021,0.201019 -0.006012,0.406006 -0.01001,0.614014c-0.003998,0.209991 -0.011993,0.404999 -0.02301,0.587006c-0.013,0.182983 -0.024994,0.320007 -0.041992,0.412994l2.673004,0z" id="path488"/>
      <path fill="#373535" fill-rule="nonzero" d="m341.751007,322.554688l1.847992,0.627014l0.790009,3.23999l2.230988,0l0,-3.23999l3.077026,0l-0.278015,-2.161011l-2.799011,0l0,-6.403015c0,-0.35498 0.024017,-0.652985 0.075012,-0.892975c0.049011,-0.239014 0.121002,-0.434998 0.213989,-0.581024c0.093018,-0.14798 0.209015,-0.250977 0.348999,-0.312988c0.139008,-0.062012 0.298004,-0.092987 0.476013,-0.092987c0.248993,0 0.528992,0.028992 0.842987,0.086975c0.313019,0.057007 0.664001,0.161011 1.051025,0.307007l0.696991,-1.475006c-0.557007,-0.424988 -1.105011,-0.743988 -1.643005,-0.952972c-0.539001,-0.209015 -1.063995,-0.314026 -1.575989,-0.314026c-0.697021,0 -1.27002,0.09201 -1.718994,0.27301c-0.449005,0.183014 -0.807007,0.441986 -1.074005,0.778992c-0.266998,0.337006 -0.453003,0.744995 -0.558014,1.223999c-0.10498,0.481018 -0.156006,1.02002 -0.156006,1.617004l0,6.738007l-1.847992,0l0,1.533997z" id="path490"/>
      <path fill="#373535" fill-rule="nonzero" d="m351.730499,307.798798c0.270996,0.17099 0.522003,0.338989 0.756012,0.5c0.230988,0.162994 0.431976,0.334991 0.602997,0.518005c0.17099,0.181 0.303986,0.376984 0.401001,0.585999c0.096985,0.208984 0.145996,0.449005 0.145996,0.720001c0,0.085999 -0.009003,0.166992 -0.024017,0.243988c-0.015991,0.078003 -0.034973,0.161011 -0.057983,0.255005c-0.046997,-0.036987 -0.13501,-0.079987 -0.268005,-0.126984c-0.130005,-0.046997 -0.273987,-0.069 -0.428986,-0.069c-0.44101,0 -0.77301,0.125 -0.993011,0.376984c-0.221008,0.252014 -0.330994,0.574005 -0.330994,0.970001c0,0.201996 0.03598,0.397003 0.109985,0.587006c0.072998,0.188995 0.179016,0.358002 0.313019,0.505005c0.135986,0.14798 0.297974,0.265991 0.488983,0.354004c0.190002,0.089996 0.404999,0.134003 0.644012,0.134003c0.449982,0 0.830994,-0.074005 1.143982,-0.221008c0.315002,-0.145996 0.572021,-0.337006 0.772003,-0.567993c0.201996,-0.234009 0.351013,-0.490021 0.444,-0.768005c0.093018,-0.278992 0.139008,-0.550018 0.139008,-0.812012c0,-0.566986 -0.087006,-1.05899 -0.256012,-1.47699c-0.17099,-0.419006 -0.401978,-0.787994 -0.691986,-1.108002c-0.291016,-0.322998 -0.626007,-0.602997 -1.003998,-0.843018c-0.381012,-0.23999 -0.78302,-0.465973 -1.209015,-0.672974l-0.696991,0.915985z" id="path492"/>
      <path fill="#373535" fill-rule="nonzero" d="m384.364288,313.260712c-0.526001,-0.627991 -1.026001,-1.134003 -1.497986,-1.518005c-0.473022,-0.381989 -0.95401,-0.682007 -1.447021,-0.898987c-0.492004,-0.218018 -1.009979,-0.362 -1.556976,-0.437012c-0.546021,-0.072998 -1.159027,-0.109985 -1.841003,-0.109985c-1.286011,0 -2.414001,0.253998 -3.386017,0.761993c-0.971985,0.507996 -1.78598,1.194 -2.44101,2.061981c-0.652985,0.867004 -1.144989,1.878998 -1.474976,3.032013c-0.330017,1.153992 -0.493011,2.377991 -0.493011,3.67099c0,0.813995 0.069,1.615021 0.201996,2.406006c0.136993,0.789001 0.343018,1.533997 0.623016,2.235016c0.278992,0.700989 0.631989,1.347992 1.062988,1.940979c0.429993,0.591003 0.938995,1.105011 1.53299,1.540009c0.593018,0.432007 1.266998,0.769012 2.022003,1.01001c0.755005,0.23999 1.597015,0.359985 2.526001,0.359985c0.558014,0 1.085999,-0.033997 1.587006,-0.105988c0.498016,-0.067993 0.971008,-0.179993 1.416992,-0.335999c0.444,-0.154022 0.873016,-0.364014 1.28302,-0.627014c0.410004,-0.263 0.80899,-0.585999 1.194977,-0.963989l-1.751984,-2.171997c-0.287018,0.300995 -0.571991,0.561005 -0.854004,0.777985c-0.28299,0.21701 -0.575012,0.394012 -0.877991,0.53302c-0.300995,0.139984 -0.619995,0.240997 -0.951996,0.303986c-0.334015,0.061005 -0.696014,0.092987 -1.09201,0.092987c-0.791016,0 -1.472015,-0.181 -2.04599,-0.541992c-0.572021,-0.358978 -1.044006,-0.837006 -1.415009,-1.43399c-0.372009,-0.597015 -0.64801,-1.277008 -0.825989,-2.04599c-0.179016,-0.765015 -0.268005,-1.559021 -0.268005,-2.380005c0,-1.076996 0.108002,-2.07901 0.320984,-3.003998c0.212006,-0.925018 0.511993,-1.731018 0.899017,-2.416016c0.388,-0.686005 0.852997,-1.223999 1.394989,-1.61499c0.542999,-0.390991 1.145996,-0.587006 1.812012,-0.587006c0.588989,0 1.095001,0.052002 1.515991,0.157013c0.423004,0.10498 0.794983,0.253998 1.11499,0.447998c0.322021,0.194 0.610016,0.431 0.865997,0.714996c0.255005,0.281006 0.512024,0.605988 0.766998,0.967987l2.07901,-1.821991z" id="path494"/>
      <path fill="#373535" fill-rule="nonzero" d="m400.222687,326.492188l-5.600006,0l0,-15.858002l-3.194,0l0,15.858002l-5.587982,0l0,2.347015l14.381989,0l0,-2.347015z" id="path496"/>
     </g>
    </g>
   </g>
  </svg>
 </defs>
 <g>
  <title>Layer 1</title>
  <use x="0" y="0" transform="matrix(0.16161616146564484,0,0,0.16161616146564484,0,0) " id="svg_2" xlink:href="#svg_1"/>
 </g>
</svg>
