<?xml version="1.0" encoding="UTF-8" standalone="no"?>
<!DOCTYPE svg PUBLIC "-//W3C//DTD SVG 20010904//EN"
              "http://www.w3.org/TR/2001/REC-SVG-20010904/DTD/svg10.dtd">

<svg xmlns="http://www.w3.org/2000/svg"
     width="2.18649in" height="2.3598in"
     viewBox="0 0 328 354">
  <path id="Selection"
        fill="none" stroke="#1B6A04" stroke-width="1"
        d="M 167.00,30.61
           C 165.81,30.40 164.13,29.84 163.06,29.28
             152.71,23.87 167.67,16.39 171.72,23.41
             171.72,23.41 173.00,30.00 173.00,30.00
             170.62,30.65 169.55,31.05 167.00,30.61 Z
           M 167.68,27.38
           C 170.46,26.16 170.40,21.14 163.33,22.60
             159.40,26.28 164.97,28.58 167.68,27.38 Z
           M 234.11,79.00
           C 237.29,85.78 238.00,90.73 239.00,98.00
             242.78,125.56 233.01,153.88 210.00,170.55
             203.90,174.97 203.25,175.94 196.00,178.80
             185.58,182.91 175.22,185.12 164.00,185.00
             164.00,185.00 146.00,183.25 146.00,183.25
             141.95,183.65 135.98,187.28 132.10,185.69
             126.86,183.54 127.96,176.49 120.96,170.74
             115.39,166.18 111.00,162.97 106.60,157.00
             83.02,124.93 84.89,78.82 116.00,52.30
             126.89,43.01 140.27,38.39 154.00,35.46
             185.58,31.11 220.64,50.26 234.11,79.00 Z
           M 122.00,50.91
           C 117.42,54.17 112.95,57.67 109.32,62.00
             99.94,73.23 94.38,88.59 92.84,103.00
             92.50,106.10 91.95,107.73 92.18,111.00
             92.96,121.90 96.60,135.43 101.86,145.00
             106.83,154.02 113.21,163.82 123.00,168.00
             121.88,161.07 117.59,159.02 113.18,154.00
             109.84,150.19 106.98,145.56 104.78,141.00
             90.71,111.73 95.60,77.73 122.00,57.01
             128.04,52.28 135.68,47.75 143.00,45.36
             149.34,43.29 155.04,44.05 160.00,39.00
             148.91,36.43 130.93,44.54 122.00,50.91 Z
           M 144.76,66.00
           C 136.15,83.45 132.95,101.76 136.32,121.00
             136.32,121.00 138.58,130.00 138.58,130.00
             140.31,137.70 140.71,140.38 143.58,148.00
             146.63,156.11 150.45,166.38 156.20,173.00
             156.35,171.35 156.70,170.83 156.20,169.00
             156.20,169.00 148.05,150.00 148.05,150.00
             142.97,136.13 137.68,117.77 138.01,103.00
             138.35,88.37 144.85,71.42 152.31,59.00
             156.11,52.67 163.06,45.83 165.00,39.00
             156.42,43.25 148.95,57.50 144.76,66.00 Z
           M 230.46,132.00
           C 232.26,126.80 233.93,115.56 234.00,110.00
             234.33,81.21 220.88,59.45 194.00,47.87
             186.81,44.78 179.90,42.18 172.00,42.00
             175.35,48.58 183.58,48.56 190.00,51.06
             198.24,54.27 207.80,60.69 213.91,67.04
             238.85,92.97 232.88,136.00 207.00,158.82
             203.01,162.33 195.89,167.21 191.00,169.32
             183.90,172.40 180.37,171.29 175.00,178.00
             200.46,177.42 222.54,154.89 230.46,132.00 Z
           M 167.00,44.00
           C 169.70,48.63 174.85,56.32 180.00,58.00
             180.00,58.00 170.00,43.00 170.00,43.00
             170.00,43.00 167.00,44.00 167.00,44.00 Z
           M 142.00,108.00
           C 155.68,98.11 148.98,90.85 151.52,79.00
             154.07,67.05 160.82,61.51 172.00,58.00
             172.00,58.00 165.00,49.00 165.00,49.00
             150.07,60.21 142.01,89.88 142.00,108.00 Z
           M 195.00,59.80
           C 202.59,62.20 210.97,70.87 211.97,79.00
             213.19,88.94 206.95,94.74 206.44,100.00
             205.56,109.03 211.70,124.24 203.65,139.00
             198.34,148.74 187.67,155.93 185.01,160.09
             183.20,162.91 182.82,166.74 182.00,170.00
             188.90,168.38 195.18,164.99 201.00,161.02
             213.79,152.29 222.76,140.32 226.05,125.00
             226.05,125.00 227.16,115.00 227.16,115.00
             228.69,101.00 226.08,87.01 218.30,75.00
             206.84,57.30 196.22,56.33 179.00,49.00
             177.90,58.81 188.91,57.88 195.00,59.80 Z
           M 129.00,59.67
           C 115.21,68.99 108.07,82.04 104.66,98.00
             103.94,101.38 102.94,106.63 103.18,110.00
             103.59,115.74 104.71,121.43 106.13,127.00
             108.56,136.55 113.08,146.81 121.00,153.00
             121.07,145.09 122.75,138.27 125.87,131.00
             125.87,131.00 132.92,118.00 132.92,118.00
             133.52,115.68 133.03,111.60 132.92,109.00
             132.89,97.80 134.43,86.53 138.46,76.00
             138.46,76.00 150.00,51.00 150.00,51.00
             141.95,51.44 135.54,55.25 129.00,59.67 Z
           M 241.00,62.00
           C 234.58,65.43 238.05,71.28 243.00,66.00
             243.00,66.00 245.00,66.00 245.00,66.00
             245.00,66.00 246.00,70.00 246.00,70.00
             246.00,70.00 239.05,70.57 239.05,70.57
             237.29,70.27 236.18,69.41 235.32,67.85
             232.92,63.54 236.17,60.63 238.00,57.00
             238.00,57.00 241.00,62.00 241.00,62.00 Z
           M 164.01,63.99
           C 151.39,72.04 154.67,88.32 153.00,101.00
             158.46,102.33 161.51,101.99 167.00,102.00
             170.58,102.01 174.68,101.89 178.00,103.43
             185.70,107.00 191.12,117.79 188.01,126.00
             183.87,136.93 172.98,144.91 165.00,153.00
             159.56,158.52 157.24,159.39 160.00,167.00
             163.29,165.06 167.17,162.39 170.00,166.00
             178.75,161.49 196.86,146.53 201.16,138.00
             202.89,134.57 204.44,126.91 204.83,123.00
             204.83,123.00 204.00,98.00 204.00,98.00
             198.64,97.68 197.43,97.24 194.00,93.00
             194.00,93.00 189.00,92.00 189.00,92.00
             186.22,95.64 183.56,98.92 179.00,100.35
             169.00,103.48 158.38,96.45 157.61,86.00
             156.43,70.10 164.34,68.14 172.00,61.00
             169.18,61.66 166.49,62.42 164.01,63.99 Z
           M 177.00,62.00
           C 182.64,62.12 188.79,64.07 194.00,62.00
             194.00,62.00 177.00,62.00 177.00,62.00 Z
           M 98.00,67.00
           C 98.00,67.00 95.00,72.00 95.00,72.00
             92.28,69.16 92.00,68.60 88.00,68.00
             88.00,68.00 91.00,63.00 91.00,63.00
             91.00,63.00 98.00,67.00 98.00,67.00 Z
           M 175.00,65.00
           C 175.00,65.00 176.00,69.00 176.00,69.00
             176.00,69.00 168.00,70.00 168.00,70.00
             168.00,70.00 165.00,73.00 165.00,73.00
             165.00,73.00 165.00,80.00 165.00,80.00
             165.00,80.00 161.00,81.00 161.00,81.00
             161.00,81.00 164.00,82.00 164.00,82.00
             164.00,82.00 164.00,84.00 164.00,84.00
             164.00,84.00 161.00,87.00 161.00,87.00
             161.00,87.00 165.00,86.00 165.00,86.00
             165.00,86.00 162.00,92.00 162.00,92.00
             162.00,92.00 167.00,89.00 167.00,89.00
             167.00,89.00 165.00,96.00 165.00,96.00
             165.00,96.00 170.00,92.00 170.00,92.00
             170.00,92.00 170.00,97.00 170.00,97.00
             170.00,97.00 173.00,98.00 173.00,98.00
             173.00,98.00 175.00,93.00 175.00,93.00
             175.00,93.00 178.00,98.00 178.00,98.00
             178.00,98.00 178.00,92.00 178.00,92.00
             178.00,92.00 183.00,96.00 183.00,96.00
             183.00,96.00 181.00,89.00 181.00,89.00
             181.00,89.00 186.00,92.00 186.00,92.00
             186.00,92.00 184.00,86.00 184.00,86.00
             184.00,86.00 199.00,87.00 199.00,87.00
             196.47,80.97 196.76,73.14 205.00,73.00
             205.00,73.00 205.00,70.00 205.00,70.00
             205.00,70.00 200.00,71.00 200.00,71.00
             200.00,71.00 200.00,67.00 200.00,67.00
             200.00,67.00 199.00,73.00 199.00,73.00
             199.00,73.00 196.00,73.00 196.00,73.00
             196.00,73.00 195.00,67.00 195.00,67.00
             195.00,67.00 196.00,78.00 196.00,78.00
             189.27,76.16 194.28,71.82 190.00,66.00
             190.10,70.98 191.50,73.20 188.00,77.00
             188.00,77.00 185.00,66.00 185.00,66.00
             185.00,66.00 185.00,72.00 185.00,72.00
             185.00,72.00 182.00,72.00 182.00,72.00
             182.00,72.00 180.00,65.00 180.00,65.00
             180.00,65.00 178.00,71.00 178.00,71.00
             178.00,71.00 177.00,65.00 177.00,65.00
             177.00,65.00 175.00,65.00 175.00,65.00 Z
           M 176.00,89.76
           C 166.04,91.28 162.51,79.17 170.11,73.02
             184.04,68.29 187.56,87.99 176.00,89.76 Z
           M 175.94,86.29
           C 181.00,84.86 181.90,75.39 173.06,75.71
             165.38,80.03 170.82,87.75 175.94,86.29 Z
           M 199.54,80.05
           C 199.00,83.06 201.60,87.93 205.00,83.00
             205.00,83.00 201.00,84.00 201.00,84.00
             201.00,84.00 202.00,77.00 202.00,77.00
             202.00,77.00 204.00,79.00 204.00,79.00
             204.00,79.00 205.00,79.00 205.00,79.00
             203.07,74.38 200.02,77.37 199.54,80.05 Z
           M 176.37,82.97
           C 174.62,84.41 170.12,83.34 172.63,79.03
             177.57,77.22 178.06,81.58 176.37,82.97 Z
           M 196.00,92.00
           C 196.00,92.00 201.00,90.00 201.00,90.00
             201.00,90.00 200.00,95.00 200.00,95.00
             200.00,95.00 203.00,95.00 203.00,95.00
             203.00,95.00 202.00,92.00 202.00,92.00
             202.00,92.00 207.00,92.00 207.00,92.00
             207.00,92.00 206.00,88.00 206.00,88.00
             200.80,88.89 198.78,87.42 196.00,92.00 Z
           M 157.00,106.00
           C 157.00,106.00 161.00,107.00 161.00,107.00
             159.37,105.17 159.34,105.24 157.00,106.00 Z
           M 169.00,105.00
           C 169.00,105.00 171.00,110.00 171.00,110.00
             171.00,110.00 171.00,105.00 171.00,105.00
             171.00,105.00 169.00,105.00 169.00,105.00 Z
           M 163.00,109.00
           C 163.00,109.00 167.00,110.00 167.00,110.00
             167.00,110.00 166.00,106.00 166.00,106.00
             166.00,106.00 163.00,109.00 163.00,109.00 Z
           M 174.00,106.00
           C 174.00,106.00 174.00,109.00 174.00,109.00
             174.00,109.00 181.00,108.00 181.00,108.00
             181.00,108.00 174.00,106.00 174.00,106.00 Z
           M 142.00,114.00
           C 142.00,114.00 147.00,109.00 147.00,109.00
             147.00,109.00 142.00,114.00 142.00,114.00 Z
           M 144.00,118.00
           C 149.07,117.18 149.99,116.06 153.00,112.00
             153.00,112.00 152.00,111.00 152.00,111.00
             152.00,111.00 144.00,118.00 144.00,118.00 Z
           M 185.00,117.00
           C 185.00,117.00 183.00,111.00 183.00,111.00
             180.87,114.35 181.77,115.16 185.00,117.00 Z
           M 153.00,118.00
           C 157.86,117.18 158.36,116.02 161.00,112.00
             156.32,113.00 155.17,113.68 153.00,118.00 Z
           M 160.00,120.00
           C 164.16,118.01 165.01,117.16 167.00,113.00
             162.38,114.39 161.56,115.49 160.00,120.00 Z
           M 171.00,113.00
           C 171.00,113.00 172.00,114.00 172.00,114.00
             172.00,114.00 172.00,113.00 172.00,113.00
             172.00,113.00 171.00,113.00 171.00,113.00 Z
           M 175.00,113.00
           C 175.00,113.00 175.00,117.00 175.00,117.00
             175.00,117.00 179.00,117.00 179.00,117.00
             179.00,117.00 178.00,113.00 178.00,113.00
             178.00,113.00 175.00,113.00 175.00,113.00 Z
           M 164.00,123.00
           C 164.00,123.00 165.00,124.00 165.00,124.00
             169.14,122.32 170.60,121.69 170.00,117.00
             170.00,117.00 164.00,123.00 164.00,123.00 Z
           M 176.00,120.00
           C 176.00,120.00 177.00,125.00 177.00,125.00
             180.33,122.44 179.80,121.30 176.00,120.00 Z
           M 186.00,123.00
           C 186.00,123.00 184.00,120.00 184.00,120.00
             183.48,122.33 183.88,122.17 186.00,123.00 Z
           M 145.00,127.00
           C 149.05,125.69 149.42,124.89 151.00,121.00
             146.01,121.40 145.59,122.05 145.00,127.00 Z
           M 151.00,131.00
           C 156.19,129.47 157.49,127.65 160.00,123.00
             153.44,121.93 151.70,124.92 151.00,131.00 Z
           M 168.00,129.00
           C 168.00,129.00 174.00,127.00 174.00,127.00
             174.00,127.00 173.00,123.00 173.00,123.00
             173.00,123.00 168.00,129.00 168.00,129.00 Z
           M 133.00,124.00
           C 130.37,128.61 126.21,134.55 128.00,140.00
             128.00,140.00 135.00,124.00 135.00,124.00
             135.00,124.00 133.00,124.00 133.00,124.00 Z
           M 159.00,135.00
           C 159.00,135.00 166.00,129.00 166.00,129.00
             166.00,129.00 164.00,127.00 164.00,127.00
             164.00,127.00 164.00,126.00 164.00,126.00
             159.36,128.27 157.94,129.77 159.00,135.00 Z
           M 177.00,128.00
           C 177.00,128.00 177.00,133.00 177.00,133.00
             177.00,133.00 182.00,132.00 182.00,132.00
             182.00,132.00 177.00,128.00 177.00,128.00 Z
           M 170.00,135.00
           C 170.00,135.00 174.00,130.00 174.00,130.00
             174.00,130.00 170.00,135.00 170.00,135.00 Z
           M 131.00,142.00
           C 135.39,139.36 136.48,135.90 137.00,131.00
             132.96,134.57 132.21,136.86 131.00,142.00 Z
           M 148.00,133.00
           C 148.00,133.00 148.00,139.00 148.00,139.00
             148.00,139.00 153.00,134.00 153.00,134.00
             153.00,134.00 148.00,133.00 148.00,133.00 Z
           M 167.00,140.00
           C 167.00,140.00 167.00,134.00 167.00,134.00
             164.47,136.65 163.70,137.69 167.00,140.00 Z
           M 151.00,147.00
           C 154.75,144.75 155.99,141.76 158.00,138.00
             158.00,138.00 156.00,136.00 156.00,136.00
             152.14,139.91 150.78,141.39 151.00,147.00 Z
           M 176.00,137.00
           C 176.00,137.00 175.00,140.00 175.00,140.00
             175.00,140.00 178.00,137.00 178.00,137.00
             178.00,137.00 176.00,137.00 176.00,137.00 Z
           M 136.00,145.00
           C 136.00,145.00 139.00,139.00 139.00,139.00
             136.34,141.49 136.21,141.35 136.00,145.00 Z
           M 17.98,157.31
           C 12.45,158.77 6.75,153.66 7.49,148.00
             8.03,143.93 10.55,142.16 14.02,140.69
             26.45,139.31 27.91,154.69 17.98,157.31 Z
           M 153.00,152.00
           C 157.80,149.62 160.00,146.33 163.00,142.00
             157.31,142.06 155.25,147.38 153.00,152.00 Z
           M 126.00,143.00
           C 126.00,143.00 124.00,155.00 124.00,155.00
             124.00,155.00 126.00,155.00 126.00,155.00
             126.00,155.00 128.00,143.00 128.00,143.00
             128.00,143.00 126.00,143.00 126.00,143.00 Z
           M 155.00,157.00
           C 160.69,154.31 165.97,149.39 167.00,143.00
             162.20,146.82 157.90,151.59 155.00,157.00 Z
           M 96.00,145.00
           C 96.00,145.00 95.00,154.00 95.00,154.00
             95.00,154.00 98.00,151.00 98.00,151.00
             98.00,151.00 100.00,151.00 100.00,151.00
             100.00,151.00 101.00,155.00 101.00,155.00
             97.26,155.26 96.49,156.41 94.00,159.00
             91.72,153.83 92.58,153.39 93.00,148.00
             93.00,148.00 89.00,151.00 89.00,151.00
             89.00,151.00 87.00,147.00 87.00,147.00
             87.00,147.00 96.00,145.00 96.00,145.00 Z
           M 129.00,157.00
           C 133.66,154.29 135.12,151.03 133.00,146.00
             129.91,149.59 129.42,152.38 129.00,157.00 Z
           M 243.00,149.00
           C 243.00,149.00 238.00,155.00 238.00,155.00
             236.90,151.75 235.15,151.65 232.00,151.00
             232.00,151.00 235.00,146.00 235.00,146.00
             238.38,148.58 238.70,148.87 243.00,149.00 Z
           M 137.00,150.00
           C 137.00,150.00 135.00,161.00 135.00,161.00
             139.98,158.45 140.24,156.25 141.00,151.00
             141.00,151.00 137.00,150.00 137.00,150.00 Z
           M 141.00,164.00
           C 145.20,161.48 145.17,159.51 144.00,155.00
             144.00,155.00 141.00,164.00 141.00,164.00 Z
           M 127.00,166.00
           C 127.00,166.00 126.00,159.00 126.00,159.00
             124.82,162.25 125.15,163.14 127.00,166.00 Z
           M 131.00,163.00
           C 129.48,168.38 127.71,169.36 129.00,175.00
             129.00,175.00 133.00,163.00 133.00,163.00
             133.00,163.00 131.00,163.00 131.00,163.00 Z
           M 149.00,166.00
           C 149.00,166.00 148.00,163.00 148.00,163.00
             146.63,165.08 146.73,165.04 149.00,166.00 Z
           M 136.00,164.00
           C 136.00,164.00 131.75,179.78 131.75,179.78
             131.75,179.78 133.00,182.00 133.00,182.00
             135.52,177.38 138.11,169.24 138.00,164.00
             138.00,164.00 136.00,164.00 136.00,164.00 Z
           M 173.00,169.00
           C 173.00,169.00 179.00,171.00 179.00,171.00
             179.00,171.00 176.00,166.00 176.00,166.00
             176.00,166.00 181.00,168.00 181.00,168.00
             178.07,162.86 174.96,163.93 173.00,169.00 Z
           M 158.00,179.00
           C 158.00,179.00 163.00,172.00 163.00,172.00
             163.00,172.00 164.00,173.00 164.00,173.00
             164.00,173.00 161.00,182.00 161.00,182.00
             161.00,182.00 163.00,182.00 163.00,182.00
             163.00,182.00 168.00,166.00 168.00,166.00
             162.12,167.53 155.84,172.21 158.00,179.00 Z
           M 142.00,167.00
           C 140.35,170.88 138.62,174.84 140.00,179.00
             140.00,179.00 146.00,169.00 146.00,169.00
             146.00,169.00 145.00,169.00 145.00,169.00
             145.00,169.00 144.00,167.00 144.00,167.00
             144.00,167.00 142.00,167.00 142.00,167.00 Z
           M 144.00,179.00
           C 144.00,179.00 154.00,176.00 154.00,176.00
             154.00,176.00 151.00,170.00 151.00,170.00
             151.00,170.00 144.00,179.00 144.00,179.00 Z
           M 171.00,175.00
           C 171.00,175.00 175.00,171.00 175.00,171.00
             171.93,172.07 172.07,171.93 171.00,175.00 Z
           M 138.00,179.00
           C 138.00,179.00 139.00,180.00 139.00,180.00
             139.00,180.00 139.00,179.00 139.00,179.00
             139.00,179.00 138.00,179.00 138.00,179.00 Z
           M 151.00,181.00
           C 151.00,181.00 158.00,181.00 158.00,181.00
             154.64,179.68 154.13,179.00 151.00,181.00 Z
           M 164.00,180.00
           C 164.00,180.00 168.00,182.00 168.00,182.00
             168.00,182.00 168.00,181.00 168.00,181.00
             168.00,181.00 166.00,179.00 166.00,179.00
             166.00,179.00 164.00,180.00 164.00,180.00 Z
           M 164.06,198.40
           C 160.38,196.93 159.02,192.62 163.15,190.74
             165.34,189.74 171.37,190.00 174.00,190.00
             172.30,194.87 172.30,194.13 174.00,199.00
             171.31,198.80 166.12,199.23 164.06,198.40 Z
           M 163.00,192.00
           C 163.79,196.52 164.56,196.63 169.00,197.00
             169.00,197.00 169.00,192.00 169.00,192.00
             169.00,192.00 163.00,192.00 163.00,192.00 Z
           M 23.57,239.74
           C 27.18,242.87 26.04,249.41 16.00,250.00
             16.00,250.00 16.00,257.00 16.00,257.00
             16.00,257.00 13.00,257.00 13.00,257.00
             13.00,257.00 13.00,238.00 13.00,238.00
             16.14,238.00 21.08,237.58 23.57,239.74 Z
           M 33.00,238.00
           C 33.00,238.00 33.00,257.00 33.00,257.00
             33.00,257.00 30.00,257.00 30.00,257.00
             30.00,257.00 30.00,238.00 30.00,238.00
             30.00,238.00 33.00,238.00 33.00,238.00 Z
           M 51.00,238.00
           C 48.66,241.50 46.95,240.95 43.00,241.00
             43.00,241.00 43.00,246.00 43.00,246.00
             43.00,246.00 50.00,246.00 50.00,246.00
             46.82,250.43 44.18,247.20 43.00,254.00
             43.00,254.00 51.00,254.00 51.00,254.00
             48.27,258.07 44.51,257.00 40.00,257.00
             40.00,257.00 40.00,238.00 40.00,238.00
             40.00,238.00 51.00,238.00 51.00,238.00 Z
           M 57.60,239.02
           C 62.38,235.25 74.74,242.24 64.00,248.00
             64.00,248.00 69.00,257.00 69.00,257.00
             64.17,255.57 63.36,254.35 61.00,250.00
             61.00,250.00 59.00,257.00 59.00,257.00
             59.00,257.00 56.00,257.00 56.00,257.00
             56.00,253.52 55.08,241.01 57.60,239.02 Z
           M 75.60,239.02
           C 80.38,235.25 92.74,242.24 82.00,248.00
             82.00,248.00 88.00,257.00 88.00,257.00
             82.30,256.07 81.58,254.30 78.00,250.00
             77.85,254.17 78.21,255.52 74.00,257.00
             74.00,253.52 73.08,241.01 75.60,239.02 Z
           M 104.00,240.00
           C 104.00,240.00 96.00,241.00 96.00,241.00
             96.00,241.00 96.00,246.00 96.00,246.00
             96.00,246.00 103.00,246.00 103.00,246.00
             103.00,246.00 103.00,249.00 103.00,249.00
             103.00,249.00 96.00,249.00 96.00,249.00
             96.00,249.00 96.00,254.00 96.00,254.00
             96.00,254.00 103.00,254.00 103.00,254.00
             103.00,254.00 103.00,257.00 103.00,257.00
             100.73,257.00 95.32,257.35 93.60,255.98
             90.83,253.76 92.50,241.44 93.00,238.00
             97.44,238.00 100.31,237.28 104.00,240.00 Z
           M 114.00,238.05
           C 118.33,238.59 123.41,242.05 120.22,246.78
             116.85,251.77 112.75,247.83 112.00,257.00
             112.00,257.00 109.00,257.00 109.00,257.00
             109.00,257.00 109.00,238.05 109.00,238.05
             109.00,238.05 114.00,238.05 114.00,238.05 Z
           M 140.57,240.51
           C 144.04,243.85 145.18,255.89 135.00,256.89
             123.02,258.06 120.27,244.50 131.00,238.74
             134.42,237.99 137.82,237.86 140.57,240.51 Z
           M 148.07,242.06
           C 148.47,240.13 149.37,238.07 151.73,239.17
             153.73,240.09 159.18,248.65 161.00,251.00
             161.00,246.29 159.71,240.87 164.00,238.00
             164.00,238.00 164.00,257.00 164.00,257.00
             157.08,255.85 154.66,249.50 151.00,244.00
             151.00,244.00 151.00,257.00 151.00,257.00
             151.00,257.00 148.07,257.00 148.07,257.00
             148.07,257.00 148.07,242.06 148.07,242.06 Z
           M 183.00,241.00
           C 174.75,242.38 177.00,250.07 177.00,257.00
             177.00,257.00 174.00,257.00 174.00,257.00
             174.00,257.00 174.00,241.00 174.00,241.00
             174.00,241.00 168.00,241.00 168.00,241.00
             170.96,236.58 180.04,236.58 183.00,241.00 Z
           M 194.54,244.00
           C 194.23,240.05 201.13,235.25 205.00,241.00
             203.44,241.13 200.05,241.13 199.62,243.18
             199.03,246.00 205.12,246.80 206.04,251.04
             207.15,256.16 197.98,260.69 194.00,255.00
             194.00,255.00 203.00,254.00 203.00,254.00
             199.70,247.75 194.89,248.54 194.54,244.00 Z
           M 210.26,250.00
           C 209.07,240.98 221.80,233.82 225.00,242.00
             222.41,241.88 219.46,241.42 217.19,242.97
             213.03,245.80 213.60,251.57 218.06,253.89
             220.38,254.94 222.59,254.37 225.00,253.89
             222.05,261.57 211.17,256.86 210.26,250.00 Z
           M 230.80,255.59
           C 229.57,253.42 229.59,242.47 230.80,240.59
             231.95,239.38 232.77,239.43 234.00,239.00
             234.00,239.00 235.00,247.00 235.00,247.00
             235.00,247.00 243.00,246.00 243.00,246.00
             243.00,246.00 243.00,239.00 243.00,239.00
             243.00,239.00 247.00,239.00 247.00,239.00
             247.00,239.00 246.00,258.00 246.00,258.00
             242.25,255.19 243.02,253.46 243.00,249.00
             243.00,249.00 234.00,249.00 234.00,249.00
             234.00,249.00 233.00,258.00 233.00,258.00
             231.88,257.16 231.24,257.04 230.80,255.59 Z
           M 267.57,241.43
           C 271.50,245.36 270.79,254.66 263.98,257.26
             253.49,261.26 245.41,246.50 257.04,239.74
             260.68,238.85 264.65,238.51 267.57,241.43 Z
           M 289.61,240.74
           C 294.12,244.36 294.12,253.45 287.95,256.69
             277.19,262.32 267.82,248.37 279.04,240.02
             282.39,238.88 286.60,238.32 289.61,240.74 Z
           M 301.00,239.00
           C 301.00,239.00 301.00,255.00 301.00,255.00
             301.00,255.00 308.00,255.00 308.00,255.00
             308.00,255.00 308.00,258.00 308.00,258.00
             308.00,258.00 298.00,258.00 298.00,258.00
             298.00,258.00 298.00,239.00 298.00,239.00
             298.00,239.00 301.00,239.00 301.00,239.00 Z
           M 16.00,241.00
           C 16.00,241.00 16.00,247.00 16.00,247.00
             23.40,246.12 23.45,241.62 16.00,241.00 Z
           M 60.00,241.00
           C 60.00,241.00 60.00,246.00 60.00,246.00
             65.67,245.00 65.67,242.00 60.00,241.00 Z
           M 78.00,241.00
           C 78.00,241.00 78.00,246.00 78.00,246.00
             83.67,245.00 83.67,242.00 78.00,241.00 Z
           M 112.00,241.00
           C 112.00,241.00 112.00,247.00 112.00,247.00
             119.29,246.39 119.29,241.61 112.00,241.00 Z
           M 134.96,253.92
           C 141.45,252.21 142.00,240.52 132.11,241.64
             124.81,246.13 128.65,255.59 134.96,253.92 Z
           M 262.87,254.24
           C 268.11,252.19 268.71,241.25 259.06,242.62
             251.08,247.43 256.66,256.67 262.87,254.24 Z
           M 284.94,254.38
           C 290.17,252.51 291.72,240.60 281.13,242.60
             273.80,247.43 278.72,256.62 284.94,254.38 Z
           M 81.00,279.00
           C 81.00,279.00 85.00,290.00 85.00,290.00
             85.00,290.00 88.00,279.00 88.00,279.00
             88.00,279.00 92.00,279.00 92.00,279.00
             92.00,279.00 96.00,290.00 96.00,290.00
             96.93,285.37 97.12,280.74 102.00,279.00
             102.00,279.00 97.00,296.00 97.00,296.00
             91.64,294.17 91.51,288.91 89.00,284.00
             89.00,284.00 86.00,296.00 86.00,296.00
             79.93,293.93 78.87,284.68 78.00,279.00
             78.00,279.00 81.00,279.00 81.00,279.00 Z
           M 136.00,279.00
           C 136.00,279.00 136.00,283.00 136.00,283.00
             136.00,283.00 140.00,285.00 140.00,285.00
             140.00,285.00 136.00,286.00 136.00,286.00
             136.00,286.00 139.00,296.00 139.00,296.00
             131.60,295.38 134.18,293.42 132.46,288.17
             132.46,288.17 130.00,283.00 130.00,283.00
             130.00,283.00 133.00,279.00 133.00,279.00
             133.00,279.00 136.00,279.00 136.00,279.00 Z
           M 190.00,279.00
           C 190.00,279.00 190.00,283.00 190.00,283.00
             190.00,283.00 194.00,286.00 194.00,286.00
             194.00,286.00 190.00,286.00 190.00,286.00
             190.22,292.36 190.94,291.18 194.00,296.00
             183.82,295.64 189.54,292.16 185.00,286.00
             185.00,286.00 188.00,279.00 188.00,279.00
             188.00,279.00 190.00,279.00 190.00,279.00 Z
           M 212.74,291.94
           C 208.95,282.79 219.95,274.46 225.00,282.00
             222.43,282.07 219.51,281.95 217.43,283.74
             214.08,286.62 214.39,294.53 225.00,293.00
             222.72,298.66 214.76,296.84 212.74,291.94 Z
           M 241.00,282.00
           C 241.00,282.00 236.00,282.00 236.00,282.00
             236.00,282.00 236.00,296.00 236.00,296.00
             236.00,296.00 233.00,296.00 233.00,296.00
             233.00,296.00 233.00,282.00 233.00,282.00
             233.00,282.00 228.00,282.00 228.00,282.00
             228.00,282.00 228.00,279.00 228.00,279.00
             232.71,279.00 238.13,277.71 241.00,282.00 Z
           M 109.04,295.76
           C 101.08,294.49 103.48,282.02 110.94,283.37
             112.65,283.68 113.71,284.57 114.40,286.15
             114.94,287.37 114.89,288.71 115.00,290.00
             115.00,290.00 107.00,290.00 107.00,290.00
             107.00,290.00 115.00,295.00 115.00,295.00
             112.90,295.59 111.28,296.12 109.04,295.76 Z
           M 127.00,283.00
           C 127.00,283.00 122.00,286.00 122.00,286.00
             123.19,287.09 126.32,289.27 126.92,290.41
             129.71,295.62 121.95,295.96 119.00,296.00
             119.00,296.00 125.00,292.00 125.00,292.00
             116.66,288.06 118.12,283.31 127.00,283.00 Z
           M 153.40,284.60
           C 155.40,286.58 157.41,295.16 147.00,296.00
             147.00,296.00 146.00,302.00 146.00,302.00
             144.80,301.20 144.30,301.26 143.80,299.71
             142.16,296.53 143.03,286.41 143.80,283.00
             146.65,283.13 151.49,282.70 153.40,284.60 Z
           M 167.77,295.26
           C 160.16,298.75 154.97,288.63 163.06,283.76
             172.70,282.12 172.42,293.13 167.77,295.26 Z
           M 182.00,283.00
           C 182.00,283.00 183.00,286.00 183.00,286.00
             178.44,288.54 178.42,291.11 178.00,296.00
             178.00,296.00 176.00,296.00 176.00,296.00
             176.00,296.00 176.00,283.00 176.00,283.00
             176.00,283.00 182.00,283.00 182.00,283.00 Z
           M 107.00,287.00
           C 107.00,287.00 112.00,288.00 112.00,288.00
             110.16,285.41 109.75,285.46 107.00,287.00 Z
           M 147.00,294.00
           C 151.92,292.43 151.83,290.83 152.00,286.00
             146.51,286.97 147.07,288.95 147.00,294.00 Z
           M 165.74,293.18
           C 167.97,292.55 169.47,287.00 164.26,286.74
             160.19,289.91 163.11,293.91 165.74,293.18 Z
           M 200.00,293.00
           C 200.51,297.11 200.09,297.33 197.00,300.00
             197.00,300.00 197.00,294.00 197.00,294.00
             197.00,294.00 200.00,293.00 200.00,293.00 Z" />
</svg>
